<svg id="Layer_5" enable-background="new 0 0 64 64" height="512" viewBox="0 0 64 64" width="512" xmlns="http://www.w3.org/2000/svg"><g><g><path d="m41.63 29.27v.01c-1.59 2.33-3.61 4.7-5.63 6.72s-4.4 4.04-6.73 5.63c-3.33-.95-5.96-3.58-6.89-6.92-.25-.86-.38-1.77-.38-2.71 0-5.52 4.48-10 10-10 .94 0 1.86.13 2.72.38 3.33.94 5.96 3.56 6.91 6.89z" fill="#ff826e"/><g fill="#fcd770"><path d="m58.05 34.84c-1.19-.39-2.05-1.51-2.05-2.84 0-1.66 1.34-3 3-3 .41 0 .8.08 1.15.23 1.09.45 1.85 1.52 1.85 2.77 0 1.66-1.34 3-3 3-.33 0-.65-.05-.95-.16z"/><path d="m53 19c1.66 0 3 1.34 3 3s-1.34 3-3 3c-.05 0-.09 0-.14-.01-1.59-.07-2.86-1.38-2.86-2.99 0-1.48 1.07-2.71 2.48-2.95.17-.03.34-.05.52-.05z"/><path d="m53.3 6.92c-.54.66-1.37 1.08-2.3 1.08-1.66 0-3-1.34-3-3 0-.29.04-.57.12-.83.36-1.26 1.51-2.17 2.88-2.17 1.66 0 3 1.34 3 3 0 .73-.26 1.4-.7 1.92z"/><path d="m34.9 12.26c.07.24.1.48.1.74 0 1.66-1.34 3-3 3-.97 0-1.82-.45-2.36-1.16-.4-.51-.64-1.15-.64-1.84 0-1.66 1.34-3 3-3 1.4 0 2.58.96 2.9 2.26z"/><path d="m6.37 28.33c.97.5 1.63 1.5 1.63 2.67 0 1.66-1.34 3-3 3-.31 0-.6-.05-.88-.14-1.23-.37-2.12-1.51-2.12-2.86 0-1.66 1.34-3 3-3 .49 0 .96.12 1.37.33z"/><path d="m6.71 53.06c.55-.65 1.37-1.06 2.29-1.06 1.66 0 3 1.34 3 3 0 .91-.4 1.72-1.04 2.26-.52.46-1.21.74-1.96.74-1.66 0-3-1.34-3-3 0-.74.27-1.42.71-1.94z"/><path d="m24.79 44.12c.14.27.21.56.21.88 0 1.1-.9 2-2 2s-2-.9-2-2c0-.13.01-.25.03-.37.18-.93 1-1.63 1.97-1.63.78 0 1.47.46 1.79 1.12z"/><path d="m34.79 48.9c.14.34.21.71.21 1.1 0 1.66-1.34 3-3 3-1.07 0-2.01-.56-2.54-1.4-.29-.46-.46-1.01-.46-1.6 0-1.66 1.34-3 3-3 1.27 0 2.35.79 2.79 1.9z"/><path d="m32.99 58.81c.01.06.01.13.01.19 0 1.66-1.34 3-3 3-1.1 0-2.07-.59-2.58-1.48h-.01c-.26-.44-.41-.96-.41-1.52 0-1.66 1.34-3 3-3 1.6 0 2.9 1.24 2.99 2.81z"/></g></g><g><path d="m34.528 21.302c-.817-.194-1.663-.302-2.528-.302-6.065 0-11 4.935-11 11 0 .865.108 1.711.302 2.529-3.197 4.8-3.905 8.324-2.03 10.2.224.223.48.404.756.556.146 1.519 1.415 2.715 2.972 2.715 1.654 0 3-1.346 3-3 0-.11-.021-.214-.032-.321 3.729-1.712 7.927-5.16 10.739-7.972 4.402-4.402 11.744-13.711 8.021-17.435-1.874-1.876-5.399-1.167-10.2 2.03zm-12.358 15.602c1.057 2.11 2.773 3.857 4.919 4.932-.691.411-1.348.753-1.973 1.039-.543-.54-1.291-.875-2.116-.875-.977 0-1.837.476-2.385 1.2-.805-.994-.219-3.311 1.555-6.296zm.83 9.096c-.551 0-1-.449-1-1s.449-1 1-1 1 .449 1 1-.449 1-1 1zm12.293-10.707c-2.003 2.002-4.149 3.799-6.183 5.226-3.618-1.228-6.11-4.662-6.11-8.519 0-4.962 4.038-9 9-9 3.862 0 7.3 2.499 8.524 6.126-1.393 1.981-3.168 4.104-5.231 6.167zm6.549-8.193c-1.075-2.151-2.824-3.872-4.938-4.93 3.086-1.835 5.477-2.415 6.41-1.484.973.973.314 3.41-1.472 6.414z"/><path d="m61.294 28.733c1.948-8.062.104-15.417-5.253-20.775-.423-.424-.891-.838-1.427-1.271.241-.514.386-1.082.386-1.687 0-2.206-1.794-4-4-4-1.458 0-2.724.793-3.423 1.962-2.06-.628-4.186-.965-6.34-.965-8.373 0-17.924 4.75-26.207 13.032-3.859 3.859-6.925 7.919-9.146 12.077-.285-.065-.579-.106-.884-.106-2.206 0-4 1.794-4 4 0 1.444.777 2.701 1.927 3.404-1.925 7.019-1.036 13.444 2.584 18.68-.316.572-.511 1.218-.511 1.916 0 2.206 1.794 4 4 4 .718 0 1.382-.205 1.965-.537 3.436 2.309 7.494 3.541 11.799 3.541 1.371 0 2.793-.136 4.233-.389.734.841 1.801 1.385 3.003 1.385 2.039 0 3.708-1.54 3.951-3.515 5.154-2.214 10.334-5.829 15.019-10.515 4.164-4.164 7.394-8.538 9.635-13.011.132.014.26.041.395.041 2.206 0 4-1.794 4-4 0-1.351-.677-2.542-1.706-3.267zm-10.294-25.733c1.103 0 2 .897 2 2s-.897 2-2 2-2-.897-2-2 .897-2 2-2zm-46 26c1.103 0 2 .897 2 2s-.897 2-2 2-2-.897-2-2 .897-2 2-2zm2 26c0-1.103.897-2 2-2s2 .897 2 2-.897 2-2 2-2-.897-2-2zm23 6c-1.103 0-2-.897-2-2s.897-2 2-2 2 .897 2 2-.897 2-2 2zm17.556-13.443c-4.352 4.352-9.13 7.733-13.884 9.865-.613-1.423-2.027-2.422-3.672-2.422-2.206 0-4 1.794-4 4 0 .255.029.503.075.746-1.128.171-2.238.258-3.312.258-3.76 0-7.308-1.03-10.338-2.97.357-.598.575-1.289.575-2.034 0-2.206-1.794-4-4-4-.766 0-1.476.227-2.085.602-3.065-4.66-3.775-10.368-2.075-16.619.055.003.105.017.16.017 2.206 0 4-1.794 4-4 0-1.182-.525-2.235-1.344-2.968 2.127-3.979 5.073-7.875 8.788-11.589 7.91-7.91 16.947-12.446 24.793-12.446 1.962 0 3.899.308 5.775.882-.001.041-.012.079-.012.121 0 2.206 1.794 4 4 4 .876 0 1.68-.291 2.34-.771.489.393.91.765 1.287 1.143 4.794 4.795 6.468 11.396 4.778 18.669-.135-.014-.266-.041-.405-.041-2.206 0-4 1.794-4 4 0 1.354.68 2.548 1.712 3.272-2.14 4.208-5.209 8.337-9.156 12.285zm11.444-13.557c-1.103 0-2-.897-2-2s.897-2 2-2 2 .897 2 2-.897 2-2 2z"/><path d="m57 22c0-2.149-1.707-3.894-3.835-3.983-.616-1.67-1.536-3.156-2.781-4.402-1.65-1.65-4.577-3.618-9.147-3.618-1.792 0-3.737.359-5.781 1.027-.69-1.203-1.973-2.024-3.456-2.024-2.206 0-4 1.794-4 4 0 .537.11 1.048.303 1.517-2.636 1.692-5.197 3.75-7.616 6.169-10.997 10.996-13.839 22.931-7.071 29.699 1.65 1.65 4.578 3.618 9.148 3.618 1.967 0 4.11-.427 6.367-1.227.728.752 1.742 1.224 2.869 1.224 2.206 0 4-1.794 4-4 0-.227-.031-.445-.067-.661 2.552-1.665 5.035-3.678 7.38-6.025 5.692-5.691 9.352-11.83 10.394-17.385 1.868-.336 3.293-1.966 3.293-3.929zm-2 0c0 1.103-.897 2-2 2s-2-.897-2-2 .897-2 2-2 2 .897 2 2zm-23-11c1.103 0 2 .897 2 2s-.897 2-2 2-2-.897-2-2 .897-2 2-2zm0 41c-1.103 0-2-.897-2-2s.897-2 2-2 2 .897 2 2-.897 2-2 2zm9.899-10.101c-2.171 2.171-4.459 4.037-6.807 5.595-.733-.903-1.839-1.494-3.092-1.494-2.206 0-4 1.794-4 4 0 .349.059.681.143 1.003-1.922.651-3.732 1-5.38 1-3.885 0-6.35-1.649-7.733-3.032-5.922-5.922-3.08-16.721 7.071-26.871 2.36-2.36 4.854-4.359 7.416-5.989.684.548 1.54.889 2.483.889 2.206 0 4-1.794 4-4 0-.017-.005-.033-.005-.051 1.873-.62 3.637-.953 5.242-.953 3.885 0 6.35 1.649 7.733 3.032.974.975 1.712 2.127 2.227 3.42-1.297.663-2.197 1.998-2.197 3.552 0 1.75 1.137 3.225 2.706 3.766-1.019 5.106-4.468 10.795-9.807 16.133z"/></g></g></svg>