<svg id="Layer_5" enable-background="new 0 0 64 64" height="512" viewBox="0 0 64 64" width="512" xmlns="http://www.w3.org/2000/svg"><g><g><path d="m45 2v15.16c-1.24-.25-2.58-.46-4-.64v-6.52h-12v-8z" fill="#aab2bd"/><path d="m42.35 20.47 2.65 3.53h-26l2.65-3.53c3.08-.3 6.61-.47 10.35-.47s7.27.17 10.35.47z" fill="#ccd1d9"/><path d="m41 10v6.52c-2.74-.33-5.79-.52-9-.52s-6.26.19-9 .52v-6.52h6z" fill="#ccd1d9"/><path d="m45 24-2.33 3.5-1.67 2.5h-18l-1.66-2.5h-.01l-2.33-3.5z" fill="#aab2bd"/><path d="m41 16.52c1.42.18 2.76.39 4 .64 5.46 1.09 9 2.85 9 4.84v2c0-1.53-4.72-2.86-11.65-3.53-3.08-.3-6.61-.47-10.35-.47s-7.27.17-10.35.47c-6.93.67-11.65 2-11.65 3.53v-2c0-2.44 5.34-4.54 13-5.48 2.74-.33 5.79-.52 9-.52s6.26.19 9 .52z" fill="#fcd770"/><path d="m54 24c0 1.51-4.57 2.82-11.33 3.5l2.33-3.5-2.65-3.53c6.93.67 11.65 2 11.65 3.53z" fill="#ffeaa7"/><path d="m50 38v4c0-1.48-3.62-2.77-9-3.46-1.82-.24-3.85-.4-6-.48-.97-.04-1.98-.06-3-.06s-2.03.02-3 .06c-2.15.08-4.18.24-6 .48-5.38.69-9 1.98-9 3.46v-4c0-1.48 3.62-2.77 9-3.46 2.65-.34 5.72-.54 9-.54s6.35.2 9 .54c5.38.69 9 1.98 9 3.46z" fill="#fcd770"/><path d="m50 42c0 1.48-3.62 2.77-9 3.46v-6.92c5.38.69 9 1.98 9 3.46z" fill="#ffeaa7"/><path d="m41 45.46v2.54h-3-3v-9.94c2.15.08 4.18.24 6 .48z" fill="#aab2bd"/><path d="m41 30v4.54c-2.65-.34-5.72-.54-9-.54s-6.35.2-9 .54v-4.54z" fill="#ccd1d9"/><path d="m38 48v4h-2-8-2v-4h3v-9.94c.97-.04 1.98-.06 3-.06s2.03.02 3 .06v9.94z" fill="#ccd1d9"/><path d="m36 56v2h-2-4-2v-2-4h8z" fill="#fc6e51"/><path d="m30 58h4v4h-4z" fill="#ff826e"/><path d="m29 38.06v9.94h-3-3v-2.54-6.92c1.82-.24 3.85-.4 6-.48z" fill="#aab2bd"/><path d="m23 38.54v6.92c-5.38-.69-9-1.98-9-3.46s3.62-2.77 9-3.46z" fill="#ffeaa7"/><path d="m21.65 20.47-2.65 3.53 2.33 3.5c-6.75-.68-11.33-1.99-11.33-3.5 0-1.53 4.72-2.86 11.65-3.53z" fill="#ffeaa7"/><g fill="#e6e9ed"><path d="m56 50h-6-6v6 6h6 6 6v-6-6z"/><path d="m8 50h-6v6 6h6 6 6v-6-6h-6z"/></g></g><g><path d="m40 5h2v2h-2z"/><path d="m32 5h2v2h-2z"/><path d="m36 5h2v2h-2z"/><path d="m43 49v6h-6v-2h2v-4h3v-2.664c5.968-.861 9-2.317 9-4.336v-4c0-2.326-4.149-3.647-9-4.339v-3.358l1.239-1.859c11.752-1.251 11.761-3.649 11.761-4.444v-2c0-2.602-3.709-4.5-9-5.659v-15.341h-18v8h-6v6.644c-7.325.996-13 3.138-13 6.356v2c0 .795.009 3.193 11.761 4.444l1.239 1.859v3.358c-4.851.693-9 2.013-9 4.339v4c0 2.018 3.032 3.475 9 4.336v2.664h3v4h2v2h-6v-6h-20v14h20v-6h6v2h2v4h6v-4h2v-2h6v6h20v-14zm-24 6h-4v-4h4zm-10 0v-4h4v4zm4 2v4h-4v-4zm-6-6v4h-4v-4zm-4 6h4v4h-4zm12 4v-4h4v4zm21-14v-7.9c1.449.073 2.779.185 4 .322v7.578zm6-2.685v-4.633c4.37.664 6.808 1.663 7 2.298v.007c-.094.303-1.553 1.504-7 2.328zm2.698-18.059 1.527-2.29-1.677-2.235c4.979.648 7.892 1.593 8.413 2.266-.383.438-2.461 1.501-8.263 2.259zm-12.698-5.256c3.747 0 7.024.167 9.821.428l1.179 1.572h-22l1.179-1.572c2.797-.261 6.074-.428 9.821-.428zm-2-18h14v12.952c-.65-.113-1.318-.215-2-.308v-6.644h-12zm-6 8h16v4.405c-2.571-.268-5.289-.405-8-.405s-5.429.137-8 .405zm8 6c12.182 0 20.16 2.673 20.924 4.688-5.512-2.65-20.163-2.688-20.924-2.688s-15.412.038-20.924 2.688c.764-2.015 8.742-4.688 20.924-4.688zm-20.961 6.996c.521-.672 3.433-1.617 8.413-2.266l-1.677 2.235 1.527 2.29c-5.802-.757-7.88-1.82-8.263-2.259zm9.829 1.004h22.263l-2.667 4h-16.93zm3.132 6h16v2.414c-2.795-.298-5.665-.414-8-.414s-5.205.116-8 .414zm8 4c10.605 0 16.706 1.965 17 3v1.542c-3.7-1.952-11.718-2.542-17-2.542-5.283 0-13.302.59-17.001 2.542l-.001-1.525c.296-1.052 6.397-3.017 17.002-3.017zm-17.002 7.018c.185-.656 2.625-1.666 7.002-2.334v4.632c-5.467-.828-6.918-2.034-7.002-2.298zm9.002-2.594c1.221-.138 2.551-.25 4-.323v7.899h-4zm6 9.576v-9.975c.648-.016 1.314-.025 2-.025s1.352.009 2 .025v9.975h3v2h-10v-2zm3 12h-2v-2h2zm-4-4v-4h6v4zm32-2h-4v-4h4zm-10 0v-4h4v4zm4 2v4h-4v-4zm-6-6v4h-4v-4zm-4 6h4v4h-4zm12 4v-4h4v4z"/></g></g></svg>