<svg id="Layer_5" enable-background="new 0 0 64 64" height="512" viewBox="0 0 64 64" width="512" xmlns="http://www.w3.org/2000/svg"><g><g><path d="m40.61 29.02c-1.07-.5-2.23-.83-3.44-.96-4.4-.46-8.34 1.69-10.48 5.09-.88 1.41-2.19 2.48-3.8 2.9l-.45.12c-2.46.64-4.45 2.48-5.16 4.86-9.12 1.37-15.28 3.98-15.28 6.97v-10c0-9.06 4.02-17.19 10.37-22.69 1 .91 1.63 2.23 1.63 3.69 0-2.76 2.24-5 5-5-1.24 0-2.38-.45-3.26-1.21 2.34-1.51 4.91-2.71 7.64-3.53s5.62-1.26 8.62-1.26c9.06 0 17.19 4.02 22.69 10.37-.91 1-2.23 1.63-3.69 1.63 2.76 0 5 2.24 5 5 0-1.24.45-2.38 1.21-3.26 3.03 4.68 4.79 10.27 4.79 16.26v10c0-3.09-6.59-5.77-16.21-7.11-.15-.74-.46-1.46-.93-2.09-.53-.72-.86-1.71-.86-2.8 0-.18.01-.36.03-.53.27-2.69-.98-5.31-3.42-6.45z" fill="#e6e9ed"/><g fill="#ff826e"><circle cx="56" cy="20" r="5"/><circle cx="42" cy="23" r="5"/><circle cx="14" cy="14" r="5"/></g><path d="m62 48v6c0 4.42-13.43 8-30 8s-30-3.58-30-8v-6c0 4.42 13.43 8 30 8s30-3.58 30-8z" fill="#aab2bd"/><path d="m36 50c3.5 0 6.61-1.63 8.62-4.18 1.11-1.4 1.53-3.24 1.17-4.93 9.62 1.34 16.21 4.02 16.21 7.11 0 4.42-13.43 8-30 8s-30-3.58-30-8c0-2.99 6.16-5.6 15.28-6.97-.1.33-.17.67-.22 1.02-.56 4.29 2.76 7.95 6.94 7.95.92 0 1.8-.18 2.61-.51 1.95-.78 4.12-.61 6.12.01 1.04.33 2.13.5 3.27.5z" fill="#ccd1d9"/><path d="m44 36c0 1.09.33 2.08.86 2.8.47.63.78 1.35.93 2.09.36 1.69-.06 3.53-1.17 4.93-2.01 2.55-5.12 4.18-8.62 4.18-1.14 0-2.23-.17-3.27-.5-2-.62-4.17-.79-6.12-.01-.81.33-1.69.51-2.61.51-4.18 0-7.5-3.66-6.94-7.95.05-.35.12-.69.22-1.02.71-2.38 2.7-4.22 5.16-4.86l.45-.12c1.61-.42 2.92-1.49 3.8-2.9 2.14-3.4 6.08-5.55 10.48-5.09 1.21.13 2.37.46 3.44.96 2.44 1.14 3.69 3.76 3.42 6.45-.02.17-.03.35-.03.53z" fill="#cf9e76"/><circle cx="28" cy="43" fill="#b27946" r="2"/><circle cx="37" cy="34" fill="#b27946" r="2"/></g><g><path d="m58.484 21.916c.689-.564 1.558-.916 2.516-.916v-2c-2.206 0-4-1.794-4-4h-2c0 .636-.163 1.229-.428 1.763-5.852-6.217-14.002-9.763-22.572-9.763-5.705 0-11.242 1.57-16.084 4.516-.564-.69-.916-1.558-.916-2.516h-2c0 2.206-1.794 4-4 4v2c.636 0 1.229.163 1.763.428-6.216 5.851-9.763 14.002-9.763 22.572v16c0 5.846 15.972 9 31 9s31-3.154 31-9v-16c0-5.705-1.57-11.242-4.516-16.084zm-.794-1.916c-.67.445-1.245 1.02-1.69 1.69-.445-.67-1.02-1.245-1.69-1.69.67-.445 1.245-1.02 1.69-1.69.445.67 1.02 1.245 1.69 1.69zm-43.69-7.69c.445.67 1.02 1.245 1.69 1.69-.67.445-1.245 1.02-1.69 1.69-.445-.67-1.02-1.245-1.69-1.69.67-.445 1.245-1.02 1.69-1.69zm-1.707 4.428c.444.644.707 1.422.707 2.262h2c0-2.206 1.794-4 4-4v-2c-.452 0-.879-.092-1.284-.23 4.343-2.464 9.244-3.77 14.284-3.77 8.089 0 15.778 3.38 21.263 9.293-.645.444-1.423.707-2.263.707v2c2.206 0 4 1.794 4 4h2c0-.452.092-.879.23-1.284 2.464 4.344 3.77 9.245 3.77 14.284v6.612c-3.427-2.66-10.436-4.026-14.431-4.614-.207-.637-.501-1.246-.905-1.792-.428-.581-.664-1.364-.664-2.206 0-.146.007-.289.022-.43.329-3.241-1.236-6.169-3.987-7.459-1.195-.559-2.46-.91-3.76-1.046-4.596-.474-8.976 1.653-11.427 5.555-.787 1.252-1.926 2.127-3.208 2.463l-.457.12c-2.604.683-4.681 2.569-5.62 4.925-3.721.593-10.275 1.951-13.563 4.502v-6.63c0-8.089 3.38-15.778 9.293-21.262zm5.691 31.535c1.52 1.733 3.713 2.727 6.016 2.727 1.032 0 2.036-.194 2.984-.579 1.922-.775 4.027-.408 5.451.036 1.149.36 2.349.543 3.565.543 3.688 0 7.117-1.661 9.407-4.558 1.002-1.267 1.492-2.828 1.487-4.369 9.67 1.496 14.106 4.083 14.106 5.927 0 2.923-11.033 7-29 7s-29-4.077-29-7c0-1.747 4.102-4.233 13.046-5.756-.2 2.198.49 4.38 1.938 6.029zm26.072-8.878c1.225 1.657 1.133 4.1-.218 5.808-1.908 2.412-4.765 3.797-7.838 3.797-1.013 0-2.011-.151-2.967-.451-1.236-.387-2.438-.58-3.573-.58-1.154 0-2.24.2-3.226.599-.709.286-1.461.432-2.234.432-1.728 0-3.372-.745-4.512-2.045-1.156-1.317-1.665-3.012-1.434-4.772.311-2.372 2.174-4.399 4.636-5.045l.457-.12c1.776-.466 3.337-1.649 4.395-3.333 2.043-3.253 5.699-5.029 9.527-4.629 1.078.111 2.127.403 3.119.867 1.97.924 3.087 3.062 2.845 5.445-.022.206-.033.418-.033.632 0 1.267.375 2.473 1.056 3.395zm-12.056 21.605c-17.967 0-29-4.077-29-7v-2.65c4.739 3.69 17.159 5.65 29 5.65s24.261-1.96 29-5.65v2.65c0 2.923-11.033 7-29 7z"/><path d="m58.98 36.962c-.138-3.624-.982-7.118-2.509-10.386l-1.812.848c1.413 3.023 2.194 6.259 2.322 9.614z"/><path d="m57 39h2v2h-2z"/><path d="m43 18h-2c0 2.206-1.794 4-4 4v2c2.206 0 4 1.794 4 4h2c0-2.206 1.794-4 4-4v-2c-2.206 0-4-1.794-4-4zm-1 6.69c-.445-.67-1.02-1.245-1.69-1.69.67-.445 1.245-1.02 1.69-1.69.445.67 1.02 1.245 1.69 1.69-.67.445-1.245 1.02-1.69 1.69z"/><path d="m27 11h2v2h-2z"/><path d="m27 15h2v2h-2z"/><path d="m29 13h2v2h-2z"/><path d="m25 13h2v2h-2z"/><path d="m3 1h2v2h-2z"/><path d="m3 5h2v2h-2z"/><path d="m5 3h2v2h-2z"/><path d="m1 3h2v2h-2z"/><path d="m54 1h2v2h-2z"/><path d="m54 5h2v2h-2z"/><path d="m56 3h2v2h-2z"/><path d="m52 3h2v2h-2z"/><path d="m10 29h2v2h-2z"/><path d="m10 33h2v2h-2z"/><path d="m12 31h2v2h-2z"/><path d="m8 31h2v2h-2z"/><path d="m48.616 16.717c-.668-.522-1.367-1.018-2.077-1.472l-1.078 1.684c.657.421 1.304.88 1.923 1.364z"/><path d="m44.603 14.116c-3.592-1.9-7.483-2.942-11.564-3.097l-.076 1.998c3.779.144 7.381 1.108 10.706 2.866z"/><path d="m57.564 48.896-.956-1.756c-.513.279-1.169.564-1.949.847l.682 1.881c.874-.318 1.623-.645 2.223-.972z"/><path d="m53.276 50.532-.552-1.922c-2.256.647-6.136 1.522-11.811 2.018l.174 1.992c5.834-.509 9.849-1.416 12.189-2.088z"/><path d="m28 40c-1.654 0-3 1.346-3 3s1.346 3 3 3v-2c-.551 0-1-.448-1-1s.449-1 1-1 1 .448 1 1h2c0-1.654-1.346-3-3-3z"/><path d="m38 34c0 .552-.449 1-1 1s-1-.448-1-1 .449-1 1-1v-2c-1.654 0-3 1.346-3 3s1.346 3 3 3 3-1.346 3-3z"/><path d="m35 43.382h2v2.236h-2z" transform="matrix(.447 -.894 .894 .447 -19.902 56.798)"/><path d="m19.5 42.793h2v1.414h-2z" transform="matrix(.707 -.707 .707 .707 -24.755 27.237)"/><path d="m39.793 41.5h1.414v2h-1.414z" transform="matrix(.707 -.707 .707 .707 -18.19 41.086)"/><path d="m29 34.382h2v2.236h-2z" transform="matrix(.447 -.894 .894 .447 -15.169 46.457)"/></g></g></svg>