<svg id="Layer_5" enable-background="new 0 0 64 64" height="512" viewBox="0 0 64 64" width="512" xmlns="http://www.w3.org/2000/svg"><g><g><path d="m19.3 36.72c-5.63-1.27-9.3-3.36-9.3-5.72 0-.67.3-1.32.85-1.93 4.71 1.78 12.43 2.93 21.15 2.93s16.44-1.15 21.15-2.93c.55.61.85 1.26.85 1.93 0 2.36-3.67 4.45-9.3 5.72-3.59.81-7.97 1.28-12.7 1.28s-9.11-.47-12.7-1.28z" fill="#aab2bd"/><path d="m12.12 20.49h.01l.11-.46c.45-1.78 2.05-3.03 3.88-3.03h.88 4 22 4 .88c1.83 0 3.43 1.25 3.88 3.03l.11.46h.01c3.82 1.21 6.12 2.79 6.12 4.51 0 1.52-1.8 2.92-4.85 4.07-4.71 1.78-12.43 2.93-21.15 2.93s-16.44-1.15-21.15-2.93c-3.05-1.15-4.85-2.55-4.85-4.07 0-1.72 2.3-3.3 6.12-4.51z" fill="#ccd1d9"/><path d="m47 17h-4c0-6.08-4.92-11-11-11s-11 4.92-11 11h-4c0-8.28 6.72-15 15-15s15 6.72 15 15z" fill="#4fc1e9"/><path d="m43 17h-22c0-6.08 4.92-11 11-11s11 4.92 11 11z" fill="#69d6f4"/><g fill="#ff826e"><circle cx="44" cy="25" r="2"/><circle cx="36" cy="25" r="2"/><circle cx="28" cy="25" r="2"/><circle cx="20" cy="25" r="2"/></g><path d="m44.7 36.72c-3.59.81-7.97 1.28-12.7 1.28s-9.11-.47-12.7-1.28l-7.3 20.28v1c0-2.21 12.27-4 20-4s20 1.79 20 4v-1z" fill="#ffeaa7"/><ellipse cx="32" cy="58" fill="#fcd770" rx="20" ry="4"/></g><g><path d="m20 22c-1.654 0-3 1.346-3 3s1.346 3 3 3 3-1.346 3-3-1.346-3-3-3zm0 4c-.552 0-1-.448-1-1s.448-1 1-1 1 .448 1 1-.448 1-1 1z"/><path d="m28 22c-1.654 0-3 1.346-3 3s1.346 3 3 3 3-1.346 3-3-1.346-3-3-3zm0 4c-.552 0-1-.448-1-1s.448-1 1-1 1 .448 1 1-.448 1-1 1z"/><path d="m36 22c-1.654 0-3 1.346-3 3s1.346 3 3 3 3-1.346 3-3-1.346-3-3-3zm0 4c-.552 0-1-.448-1-1s.448-1 1-1 1 .448 1 1-.448 1-1 1z"/><path d="m44 22c-1.654 0-3 1.346-3 3s1.346 3 3 3 3-1.346 3-3-1.346-3-3-3zm0 4c-.552 0-1-.448-1-1s.448-1 1-1 1 .448 1 1-.448 1-1 1z"/><path d="m59 25c0-2.094-2.133-3.867-6.297-5.282-.576-2.168-2.512-3.679-4.754-3.711-.517-8.36-7.462-15.007-15.949-15.007s-15.432 6.647-15.95 15.006c-2.242.033-4.178 1.544-4.754 3.712-4.163 1.415-6.296 3.188-6.296 5.282 0 1.824 1.64 3.345 4.34 4.554-.219.471-.34.953-.34 1.446 0 2.918 3.737 5.081 8.987 6.417l-6.927 19.244-.06.164v1.175c0 1.183.941 2.56 7.924 3.812 4.081.733 9.091 1.188 13.076 1.188s8.995-.455 13.076-1.188c6.983-1.252 7.924-2.629 7.924-3.812v-1.175l-6.987-19.408c5.25-1.336 8.987-3.499 8.987-6.417 0-.493-.121-.975-.34-1.446 2.7-1.209 4.34-2.73 4.34-4.554zm-27-22c7.382 0 13.433 5.747 13.949 13h-2c-.511-6.15-5.669-11-11.949-11s-11.438 4.85-11.949 11h-2c.516-7.253 6.567-13 13.949-13zm9.949 13h-19.898c.504-5.046 4.773-9 9.949-9s9.446 3.954 9.949 9zm-10.949 22.992v14.021c-3.803.067-8.327.501-12.076 1.174-2.456.441-4.153.897-5.336 1.354l6.364-17.678c3.389.69 7.237 1.072 11.048 1.129zm1 22.008c-7.899 0-17.426-1.71-18.896-3 1.47-1.29 10.996-3 18.896-3s17.426 1.71 18.896 3c-1.47 1.29-10.997 3-18.896 3zm18.412-5.458c-1.183-.458-2.88-.914-5.336-1.354-3.75-.673-8.273-1.107-12.076-1.174v-14.022c3.811-.057 7.659-.439 11.049-1.128zm2.588-24.542c0 2.506-7.989 6-21 6s-21-3.494-21-6c0-.23.076-.47.209-.716 5.211 1.794 13.026 2.716 20.791 2.716s15.58-.922 20.791-2.716c.133.246.209.486.209.716zm-21 0c-15.489 0-25-3.494-25-6 0-.743 1.012-1.849 3.705-2.94l-.674 2.697 1.939.484 1.242-4.97c.335-1.336 1.532-2.271 2.911-2.271h31.754c1.379 0 2.576.935 2.911 2.272l1.242 4.97 1.939-.484-.674-2.698c2.693 1.091 3.705 2.197 3.705 2.94 0 2.506-9.511 6-25 6z"/></g></g></svg>