<svg height="200pt" viewBox="0 0 512 512.00059" width="512pt" xmlns="http://www.w3.org/2000/svg"><path d="m93.023438 395.722656c-51.375 0-93.023438 41.648438-93.023438 93.023438v23.253906h23.253906c51.375 0 93.023438-41.644531 93.023438-93.019531 0-12.84375-10.414063-23.257813-23.253906-23.257813zm0 0" fill="#f0a319"/><path d="m116.277344 418.980469v.367187l-.003906.101563v.5l-.003907.101562v.261719l-.003906.101562v.132813l-.003906.105469v.023437l-.003907.214844v.023437l-.003906.101563v.132813l-.003906.105468v.019532c-.003906.074218-.003906.140624-.007812.21875v.019531l-.003907.105469v.113281l-.003906.015625v.105468l-.003906.023438-.003907.210938v.023437l-.003906.105469-.003906.015625v.09375l-.003906.019531-.003906.105469v.019531l-.007813.214844v.023437l-.003906.101563-.003907.023437-.003906.09375v.015625l-.003906.105469v.019531l-.007812.214844-.003907.019531-.003906.105469v.015625l-.003906.101563v.011718l-.007813.105469v.019531l-.011718.21875v.015625l-.003907.109375-.003906.011719-.003906.105469v.007812l-.007813.105469v.023437l-.011718.210938v.023438l-.007813.101562v.019531l-.007813.09375v.019531l-.007812.101563v.019531l-.011719.21875-.003906.015625-.003906.105469-.003907.015625-.003906.105469-.003906.003906-.003906.109375-.003906.019531-.015626.214844v.019531l-.007812.105469v.011719l-.007812.105469v.007812l-.007813.109375-.003906.015625-.015625.21875v.011719l-.007813.109375-.003906.011718-.007813.101563v.015625l-.007812.101562-.003906.023438-.015625.210938-.003907.019531-.007812.105469v.011718l-.011719.105469v.007813l-.007812.109374v.011719l-.019531.222657-.003907.011718-.007812.109375v.011719l-.011719.105469v.007812l-.011719.109375v.011719c-.007812.074219-.015625.144531-.019531.21875l-.003906.015625-.007813.109375-.003906.007813-.007813.109374-.003906.003907-.007812.113281-.003906.007812-.019532.226563-.003906.007813-.011719.109374v.007813l-.023437.226563v.007812l-.023438.226562v.003907l-.015625.113281v.003906l-.011719.113282v.003906l-.011718.109375-.003906.011719c-.007813.074218-.015626.148437-.023438.226562v.003906l-.015625.113282v.003906l-.027344.226562v.011719l-.027343.21875v.011719l-.015626.109375v.003906l-.027343.230469v.003906c-.011719.078125-.019531.152344-.03125.230469l-.011719.113281-.003906.003906c-.007813.078125-.019532.152344-.027344.226563v.007812l-.03125.226563v.003906c-.03125.230469-.0625.464844-.097656.695312-.066406.464844-.136719.925782-.207032 1.386719-.03125.195313-.0625.386719-.09375.578125-5.664062 34.046875-29.6875 62.167969-62.429687 73.082032-12.1875 4.054687-25.355469-2.535157-29.410156-14.722657-4.054688-12.1875 2.539062-25.355469 14.726562-29.410156.003907 0 .011719-.003906.015625-.003906 19.023438-6.3125 31.855469-24.113281 31.824219-44.15625 0-12.84375 10.410156-23.257813 23.253906-23.257813s23.257813 10.414063 23.257813 23.257813zm0 0" fill="#db6600"/><path d="m335.402344 306.589844-92.375 60.015625c-6.5 4.167969-10.441406 11.347656-10.472656 19.070312v92.878907c0 18.472656 15.363281 33.445312 34.320312 33.445312 9.042969.023438 17.742188-3.472656 24.253906-9.746094 21.75-20.945312 68.71875-76.414062 80.777344-173.726562 2.40625-19.4375-19.785156-32.796875-36.503906-21.9375zm0 0" fill="#b13b39"/><path d="m244.179688 390.289062c-6.421876 0-11.625 5.207032-11.625 11.628907v1.277343c0 .394532.019531.78125.054687 1.164063-.035156.382813-.054687.769531-.054687 1.164063v73.515624l.003906.050782v.167968l.003906.050782v.097656l.003906.019531v.105469l.003906.042969v.121093l.003907.03125v.078126l.003906.035156v.050781l.003906.019531v.046875l.003907.046875v.070313l.003906.03125v.050781l.003906.019531v.050781l.003906.046876v.015624l.003906.035157v.046875l.003907.019531v.050781l.003906.042969v.003906l.003906.050781v.011719l.003907.039063v.050781l.003906.011719v.054687l.003906.046875v.003906l.003906.046876v.011718l.003906.039063v.011719l.003907.039062v.011719l.003906.046875v.003906l.003906.050781v.007813l.003907.042968v.011719l.003906.035157v.019531l.003906.035156v.011719l.007812.101562v.007813l.003907.039062.003906.011719v.042969l.003906.007812.007813.101563v.003906l.003906.046875.003906.011719v.039062l.003906.011719.003907.039063v.011718l.007812.097656.003907.015626.003906.035156v.015625l.003906.035156v.011719l.003906.046875v.003906l.007813.050781v.007813l.003906.042969.003906.007812.003907.042969v.011719l.003906.042968v.003906l.011718.105469.007813.046875v.007813l.003906.042969v.007812c.007813.050781.011719.101562.019531.152344v.011718l.007813.039063v.007813l.003906.042968v.007813l.015625.101562v.003907l.003906.050781.003907.003906.003906.042969v.007812c.007813.050782.015625.101563.019531.152344l.003906.003906.003907.046875.003906.007813c.007813.066406.015625.136718.027344.203125v.003906l.007812.046875v.003906c.007813.066406.019531.136719.03125.203125v.007813l.007813.046875v.003906l.015625.101563.007812.046874v.007813l.007813.046875v.003906c2.179687 12.855469 11.5625 23.3125 24.113281 26.863282 6.171875 1.765624 12.609375-1.808594 14.375-7.984376 1.757813-6.148437-1.78125-12.566406-7.921875-14.359374-4.4375-1.183594-7.574219-5.132813-7.722656-9.71875v-73.03125c0-.394532-.019532-.78125-.058594-1.164063.039062-.382813.058594-.769531.058594-1.164063v-1.277343c0-6.421875-5.207032-11.628907-11.628906-11.628907zm0 0" fill="#c26765"/><path d="m186.042969 418.980469s127.902343-34.882813 232.550781-139.53125c104.648438-104.652344 93.023438-255.808594 93.023438-255.808594 0-12.84375-10.414063-23.257813-23.257813-23.257813 0 0-151.15625-11.625-255.804687 93.023438-104.652344 104.648438-139.53125 232.550781-139.53125 232.550781 0 51.375 41.644531 93.023438 93.019531 93.023438zm0 0" fill="#9fd9c5"/><path d="m458.992188 156.191406c-9.1875-.003906-17.515626 5.398438-21.253907 13.792969-12.496093 28.5-30.136719 54.460937-52.03125 76.574219-66.242187 66.242187-143.300781 102.152344-183.339843 117.664062-11.980469 4.625-17.941407 18.089844-13.3125 30.070313 4.628906 11.980469 18.089843 17.941406 30.070312 13.316406.015625-.007813.03125-.011719.042969-.019531 14.113281-5.464844 31.964843-13.0625 52.046875-23.144532l.003906-.003906.371094-.1875h.003906c.1875-.09375.371094-.1875.558594-.28125l.003906-.003906c.191406-.09375.371094-.183594.558594-.28125l.007812-.003906.363282-.183594.027343-.011719.160157-.082031.015624-.007812c.121094-.0625.238282-.121094.359376-.183594l.027343-.011719.171875-.089844h.003906l.179688-.09375.023438-.011719.152343-.078124.035157-.015626.351562-.179687.210938-.105469c.113281-.058594.234374-.121094.351562-.179687l.039062-.023438.152344-.074219.023438-.011718.171875-.089844.179687-.089844.039063-.023437.351562-.179688.035157-.015625.140624-.074218.039063-.019532.171875-.089844.027344-.015624.148437-.074219.042969-.023438.140625-.070312.035156-.019531.167969-.085938.042969-.023438.136719-.070312.046874-.023438.34375-.175781.046876-.023437.136718-.070313.042969-.023437.171875-.089844.011719-.007812.160156-.082032.046875-.023437.132812-.070313.046876-.023437.167968-.085938.046875-.023437.125-.066406.054688-.027344.140625-.074219.035156-.015625.164062-.085938.0625-.03125.117188-.0625.054688-.027343.160156-.085938.046875-.023437.128906-.066406.066406-.035157.109375-.058593.0625-.03125.15625-.082032.066406-.035156.109376-.054688.070312-.039062.121094-.0625.046875-.023438.164062-.085937.0625-.035156.109375-.058594.066406-.035156.128907-.066407.089843-.046874.113282-.058594.070312-.035156.105469-.058594.070313-.035156.160156-.085938.054687-.027344.109375-.058594.082032-.042968.101562-.050782.066406-.035156.15625-.082031.074219-.039063.097656-.054687.074219-.039063.109375-.054687.117187-.0625.101563-.054687.164063-.085938.089843-.050781.125-.0625.109375-.058594.082032-.042969.09375-.050781.074218-.039063.125-.066406.113282-.0625.089843-.046875.085938-.046875.085937-.042968.089844-.050782.136719-.070312.09375-.050782.085937-.046874.082032-.042969.09375-.046875.101562-.054688.132812-.070312.078126-.042969.089843-.050781.089844-.046875.082031-.042969.148438-.082031.089844-.046875.078124-.042969.09375-.046875.085938-.046875.140625-.074219.1875-.101562.066406-.035156.105469-.054688.054688-.03125.1875-.101562.066406-.035157.101562-.054687.070313-.035156.097656-.054688.089844-.046875.15625-.085937.066406-.035157.097656-.054687.074219-.039063.175781-.09375.0625-.035156.109375-.058594.058594-.03125.109375-.058593.039063-.019532.210937-.117187.054687-.027344.109376-.0625.058593-.027344.351563-.195312.066406-.035157.105469-.054687.054687-.03125.210938-.113281.042968-.023438.109376-.0625.054687-.027344.113281-.0625.03125-.019531.210938-.113281.066406-.035156.105469-.058594.058593-.03125.359376-.195312.0625-.035157.101562-.054687.066406-.035156.21875-.121094.027344-.015625.113281-.0625.054688-.027344.113281-.0625.03125-.019531.238281-.128906.03125-.019532.121094-.0625.046875-.027344.382812-.210937.035157-.019531.121093-.066406.039063-.023438c.132813-.074219.257813-.140625.390625-.214844l.035156-.015625.128906-.074219.007813-.003906.28125-.15625h.003906l.128907-.074218.039062-.019532c.132812-.074218.261719-.144531.394531-.21875l.027344-.015625.128906-.070312.03125-.019531.394531-.21875.035157-.019532.128906-.070312.011719-.007813c.140625-.078125.277344-.152343.414062-.230469l.03125-.015624c.136719-.074219.273438-.152344.410156-.230469l.019532-.011719.128906-.070312.03125-.015626c.132812-.078124.269531-.152343.402344-.226562l.027344-.015625c.183593-.101563.378906-.210937.5625-.316406l.027343-.011719c.140625-.082031.28125-.160156.421875-.238281l.007813-.003907.136719-.078124.019531-.011719c.132812-.074219.28125-.15625.414062-.234375l.023438-.011719.136719-.078125.007812-.003906c.140625-.078125.277344-.15625.417969-.234375l.035156-.019531c.191406-.105469.378906-.214844.566406-.320313l.015625-.007813c.144532-.082031.277344-.160156.425782-.242187l.011718-.007813.136719-.074218.027344-.015625c.136719-.078125.261719-.152344.398437-.230469l.042969-.023438.128906-.074218h.003907l.28125-.160156.015624-.007813.128907-.074219.03125-.019531c.136719-.078125.28125-.160156.417969-.238281l.015624-.007813.140626-.082031h.003906c.140625-.082031.289062-.164062.429687-.246094l.023438-.015625.136719-.078125.007812-.003906.289062-.164062h.003907l.15625-.09375c.191406-.109376.390625-.222657.582031-.332032l.007812-.003906c.148438-.085938.289063-.167969.441407-.253906l.003906-.003906c.34375-.199219.691406-.398438 1.039063-.601563l.148437-.085937h.003906c.148438-.085938.289063-.167969.4375-.257813l.011719-.003906c.199219-.117188.390625-.230469.59375-.34375l.003906-.003907c1.09375-.636718 2.191406-1.28125 3.292969-1.933593h.003906c.902344-.535157 1.800781-1.070313 2.710938-1.609375l.007812-.007813c2.214844-1.324219 4.445313-2.675781 6.679688-4.050781l.007812-.003906.144531-.09375.011719-.003906c.148438-.089844.28125-.171876.425781-.261719l.039063-.027344.140625-.085937h.003906c.152344-.097657.296875-.183594.449219-.277344l.015625-.011719c.203125-.125.390625-.242187.59375-.367187l.019531-.011719c.148438-.09375.296875-.183594.445313-.277344l.007812-.003906.148438-.09375.003906-.003907c.921875-.570312 1.835938-1.144531 2.757812-1.726562l.011719-.003906c.203125-.128906.402344-.253906.605469-.382813l.011719-.007812c.359375-.226563.710937-.449219 1.070312-.675781l.003907-.003907c.207031-.132812.410156-.261719.613281-.390625h.003906c.148437-.09375.300781-.195312.449219-.289062l.019531-.011719.148437-.09375c.148438-.09375.300782-.195313.449219-.289063l.023438-.011718c.191406-.125.402343-.257813.59375-.382813l.035156-.023437c.140625-.089844.285156-.183594.429687-.273438l.023438-.015625.132812-.085937.035157-.023438c.144531-.089844.28125-.179687.425781-.273437l.027344-.019531.140625-.089844.007812-.003906c.15625-.097657.300781-.195313.457031-.292969l.003907-.003907c.570312-.367187 1.128906-.730468 1.699219-1.101562l.011718-.007812c.15625-.101563.296875-.191407.453125-.292969l.011719-.007813.144531-.097656.019531-.011719c.148438-.097656.296876-.195312.445313-.292969l.011719-.003906c.207031-.136718.40625-.265625.613281-.402344l.007813-.007812c.15625-.101562.304687-.195312.460937-.300781l.003906-.003907.148438-.097656.015625-.007812c.144531-.09375.292968-.195313.4375-.289063l.035156-.023437c.199219-.132813.398438-.261719.601562-.394532l.015626-.011718c.207031-.136719.402343-.265625.609374-.402344l.015626-.011719c.15625-.101562.300781-.199219.457031-.304687.003906 0-.003907.003906 0 0 .203125-.132813.414062-.273438.613281-.40625l.023438-.015625c.203124-.132813.40625-.269531.609374-.40625l.011719-.007813c.15625-.105468.296875-.199218.453125-.304687l.011719-.003907.152344-.105468c.152343-.101563.308593-.203125.457031-.304688l.023438-.015625c.195312-.128906.410156-.273437.605468-.40625l.023438-.015625c.140625-.097656.289062-.195312.433594-.292968l.03125-.019532.140624-.09375.023438-.019531c.144531-.09375.296875-.199219.441406-.292969l.019532-.015625c.144531-.097656.304687-.207031.449218-.304687l.015625-.011719.144531-.09375.019532-.015625c.144531-.097656.300781-.203125.441406-.300781l.023438-.015625.148437-.097656.007813-.007813c.152343-.101563.289062-.195313.441406-.296875l.042968-.03125.136719-.09375.003907-.003906c.152343-.101563.296874-.203125.449218-.304688l.039063-.027344c.152343-.105468.289062-.199218.441406-.300781l.011719-.007812.144531-.101563.027344-.015625c.148437-.105469.300781-.207031.449219-.308593l.003906-.003907c.203125-.140625.414062-.285156.617187-.421875l.023438-.019531c.144531-.097656.296875-.203125.441406-.300781l.023437-.019532.140626-.09375.03125-.023437c.144531-.097656.28125-.191406.425781-.292969l.042969-.03125.132812-.09375.019531-.011718c.144531-.101563.289063-.199219.433594-.300782l.046875-.03125c.144531-.101562.296875-.207031.4375-.304687l.015625-.011719.144531-.097656.027344-.019532.433594-.304687.03125-.019531.140625-.097656.019531-.015626c.144531-.101562.300781-.207031.445312-.308593l.027344-.019531c.144532-.101563.292969-.207032.4375-.308594l.027344-.015625.140625-.101563.027344-.015625c.136719-.097656.285156-.203125.421875-.296875l.050781-.039062.128906-.089844.035157-.023438c.136718-.097656.277343-.195312.414062-.292968l.0625-.042969.125-.089844.027344-.015625.28125-.199218.015625-.011719.136719-.097657.039062-.027343c.144531-.101563.296875-.207031.441406-.308594l.015625-.011719.144531-.101562.027344-.019532c.144532-.101562.296875-.210937.441406-.3125l.023438-.019531.144531-.101562.011719-.011719c.152344-.105469.300781-.210938.449219-.316406l.035156-.023438c.144531-.105468.289063-.207031.433594-.3125l.027343-.019531.144532-.101563.023437-.015624c.144531-.101563.285157-.203126.429688-.308594l.046875-.03125.132812-.09375.035156-.027344.265626-.191406.023437-.015625.128906-.09375.054688-.039063.128906-.09375.289063-.207031.035156-.023437.132812-.097657.042969-.03125c.136719-.097656.277344-.195312.414063-.296875l.054687-.039062.125-.089844.054687-.039062.242188-.175782.035156-.027344.128906-.089843.054688-.039063.125-.089844.035156-.027343.242188-.175781.058594-.042969.125-.089844.042968-.03125c.136719-.097656.273438-.199219.410156-.296875l.0625-.046875.121094-.089844.046875-.03125c.132813-.097656.277344-.203125.40625-.296875l.066407-.046875.121093-.089843.03125-.023438.253907-.183594.046874-.035156.125-.089844.054688-.039062c.128906-.097656.273438-.203125.40625-.296875l.054688-.042969.121093-.085938.074219-.054687.253906-.1875.007813-.003906.128906-.097657.054687-.039062.121094-.089844.066406-.046875.207032-.15625.070312-.046875.109375-.085937.074219-.050781.113281-.085938.082031-.058594.1875-.136718.074219-.058594.113281-.082032.074219-.054687.257813-.191406.007812-.003907.125-.09375.058594-.042968.121094-.089844.050781-.039062.242187-.179688.042969-.03125.128907-.097656.042968-.03125c.140625-.101563.28125-.207032.417969-.308594l.046875-.035156.128906-.097656.054688-.039063.28125-.210937.125-.089844.054687-.042969.125-.09375.050781-.039063.226563-.171874.0625-.042969.121094-.089844.050781-.039063.132812-.097656.007813-.007812.261719-.195313.066406-.050781.121094-.089844.054687-.042968.402344-.300782.0625-.046875.121094-.09375.050781-.039062.246094-.183594.035156-.027344.121094-.09375.066406-.046875.125-.09375c.003906-.003906-.003906 0 0-.003906l.289062-.21875.039063-.027344.128906-.097656.050781-.039062c.140626-.105469.277344-.207032.414063-.3125l.234375-.175782.238281-.183594.035157-.027343.125-.09375.058593-.046875.125-.09375.042969-.035156.234375-.175782.058594-.046875.117187-.089843.074219-.054688.109375-.082031.082031-.066407.191407-.144531.070312-.054687.113281-.085938.074219-.058594.21875-.164062.050781-.039062.117188-.089844.066406-.050782.121094-.09375.058593-.042968.210938-.164063.066406-.054687.117188-.089844.070312-.054688.113282-.085937.082031-.0625.179687-.140625.089844-.066406.101562-.078125.09375-.074219.121094-.09375.140625-.109375.097657-.074219.085937-.066406.105469-.082031.089844-.070313.160156-.125.105468-.078125.097657-.074219.089843-.074218.101563-.078125.09375-.070313.164063-.128906.097656-.074219.097656-.078125.082031-.066406.203125-.15625.0625-.050781.113282-.085938.074218-.058593.117188-.089844.066406-.054688.191406-.148437.082032-.066407.101562-.078124.097656-.074219.097656-.078125.089844-.070313.171875-.136719.089844-.066406.195313-.15625.105468-.082031.152344-.117187.101562-.082032.085938-.066406.105469-.082031.09375-.074219.15625-.125.101562-.078125.105469-.082031.078125-.066406.105469-.082032.109375-.085937.148437-.117188.101563-.078125.089843-.074218.105469-.082032.085938-.066406.167969-.132812.101562-.082032.082031-.066406.109375-.085938.085938-.066406.160156-.128906.203125-.164062.09375-.070313.097656-.078125.117188-.097656.132812-.101563.105469-.085937.09375-.074219.101562-.082031.09375-.074219.164063-.132813.1875-.148437.101563-.082031.097656-.074219.121094-.101563.140624-.109374.085938-.070313.105469-.085937.089843-.070313.105469-.085937.152344-.121094.101563-.082032.09375-.078124.09375-.074219.097656-.078125.125-.101563.140625-.113281.085937-.070312.109375-.085938.082031-.066406.152344-.121094.113282-.09375.09375-.078125.105468-.082031.085938-.070313.121094-.097656.121093-.101563.125-.097656.074219-.0625.128906-.105468.070313-.054688.179687-.144531.070313-.058594.113281-.09375.089844-.074219.117187-.09375.074219-.0625.175781-.140625.082031-.066406.109376-.09375.082031-.066406.25-.203125.117187-.097656.085938-.066407.113281-.09375.078125-.066406.175781-.140625.078125-.066406.113282-.089844.089843-.074219.117188-.097656.066406-.054687.179687-.148438.074219-.0625.125-.101562.074219-.058594.136719-.113282.085937-.070312.148438-.125.078125-.0625.121093-.101562.074219-.0625.183594-.148438.054687-.046875.132813-.109375.082031-.066406.121094-.105469.070312-.054687.179688-.148438.070312-.058594.121094-.101562.078125-.0625.136719-.117188.070312-.054687.167969-.140625.070313-.0625.121094-.097656.078124-.066407.167969-.140625.074219-.058594.125-.105468.085938-.074219.113281-.09375.074219-.0625.179687-.148437.070313-.058594.125-.105469.078124-.066406.121094-.101563.089844-.074218.15625-.132813.078125-.0625.121094-.101563.234375-.199218.082031-.066406.125-.109376.082031-.066406.125-.105468.070313-.058594.179687-.152344.070313-.058594.121093-.101562.078126-.066406.125-.105469.070312-.058594.179688-.152344.066406-.058593.125-.105469.074218-.0625.152344-.132813.082032-.066406.136718-.113281.082032-.074219.117187-.097656.070313-.0625.183593-.152344.0625-.054688.132813-.113281.070312-.058593.140625-.121094.050781-.042969.183594-.15625.066406-.054687.132813-.113282.070313-.0625.164062-.136718.046875-.042969.15625-.132813.085937-.074218.113282-.097657.078125-.066406.179687-.152344.058594-.054687.128906-.109375.082032-.066407.117187-.105468.074219-.0625.175781-.152344.078125-.066406.113281-.097656.085938-.074219.128906-.109375.089844-.078125.144531-.125.085938-.074219.109374-.097656.078126-.066406.175781-.152344.070312-.058594.125-.109375.078125-.066406.113282-.101563.082031-.066406.171875-.152344.070312-.0625.125-.109375.078125-.066406.140625-.121094.054688-.046875.171875-.152344.074219-.0625.128906-.113281.066406-.054687.183594-.164063.039062-.035156.15625-.136719.058594-.050781.148438-.128906.054687-.046875.183594-.164063.054687-.046875.136719-.121094.070313-.058593.144531-.125.050781-.046875.175781-.15625.082031-.070313.121094-.105469.066406-.058593.175782-.15625.058594-.050781.140624-.125.074219-.0625.125-.113282.066407-.058594.183593-.164062.050781-.042969.144532-.128906.066406-.054687.160156-.144532.03125-.027344.183594-.164062.070312-.0625.128907-.113281.066406-.058594.179687-.160156.039063-.035157.15625-.136718.070313-.0625.128906-.117188.066406-.058594.183594-.164062.042968-.039062.148438-.132813.066406-.058594.144532-.128906.050781-.042969.183593-.164062.066407-.058594.128906-.117188.0625-.058593.191406-.171875h.003907l.191406-.175782.050781-.042968.148437-.136719.050782-.042969.191406-.175781.035156-.027344.160156-.144531.058594-.054688.15625-.140624.039063-.03125.1875-.171876.054687-.050781.148438-.132812.050781-.046875.1875-.167969.003906-.007813.195313-.175781.050781-.042969.148437-.136718.054688-.046875.1875-.171875.035156-.03125.160156-.148438.054688-.046875.160156-.144531.035156-.035156.1875-.171875.0625-.054688.136719-.125.058594-.054687.171875-.15625.023438-.019532.1875-.171874.058593-.050782.140625-.132812.054688-.050782.1875-.171874.039062-.035157.152344-.140625.066406-.058594.144532-.132812.046874-.042969.183594-.167969.0625-.058593.140625-.125.054688-.054688.179687-.164062.011719-.011719.1875-.175781.066406-.058594.128907-.121094.070312-.0625.183594-.167969.027344-.027343.160156-.144531.070312-.066407.132813-.125.058593-.054687.179688-.167969.0625-.054687.128906-.121094.070313-.066406.136719-.125.234374-.21875.070313-.066407.121094-.113281.074219-.070312.179687-.164063.035156-.03125.160157-.152344.058593-.054687.140625-.132813.054688-.050781.183594-.167969.058593-.058593.136719-.125.066406-.0625.148438-.140626.039062-.035156.1875-.179687.050782-.046875.144531-.136719.0625-.054687.183593-.175782.015626-.015625.171874-.164062.0625-.054688.144532-.136719.050781-.046874.1875-.175782.042969-.042968.15625-.148438.046875-.042969.167969-.160156.027343-.027344.191407-.179687.050781-.050782.140625-.132812.058594-.054688.183593-.175781.007813-.007812.191406-.179688.054688-.050781.148437-.140625.046875-.046875.183594-.175781.054687-.050781.140625-.136719.058594-.054688.152344-.148437.039062-.035156.1875-.179688.050782-.050781.144531-.136719.058593-.054688c.125-.121093.253907-.246093.378907-.363281l.054687-.054687.144532-.136719.054687-.050781.183594-.179688.042969-.042968.148437-.140626.0625-.058593.144531-.140625.046875-.046875.191407-.183594.035156-.035156.152344-.148438.058593-.054687.179688-.171875.007812-.011719.195313-.183594.050781-.050781.148437-.144531.046876-.046875.191406-.183594.019531-.019531.175781-.171875.046875-.042969.15625-.15625.039063-.035156.191406-.1875.035156-.035156.15625-.152344.058594-.054688.183594-.183594.191406-.1875.050781-.046874.148438-.144532.050781-.054687.1875-.179688.03125-.03125.160156-.15625.054688-.050781.191406-.191406.195312-.191406.238282-.238282.167968-.164062.027344-.027344.1875-.183594.25-.25.175782-.171875.257812-.257812.144531-.140625.484375-.484375.15625-.152344.027344-.03125.1875-.183594.441406-.441406.15625-.160156.054688-.050781.167968-.167969.097657-.101563.386719-.386718.085937-.089844.320313-.320313.070312-.074219.246094-.246093.070312-.074219.09375-.09375.058594-.0625.160156-.160156.117188-.125.039062-.035156.15625-.160157.042969-.042969.113281-.121093.058594-.054688.097656-.101562.070313-.074219.085937-.085938.070313-.074218.085937-.085938.070313-.074218.085937-.089844.15625-.15625.070313-.078125.085937-.085938.070313-.074219.085937-.089843.066406-.070313.089844-.09375.066406-.066406.085938-.089844.070312-.074218.089844-.089844.066406-.070313.101563-.105469.050781-.050781.15625-.160156v-.003906l.15625-.160157.042969-.046874.109375-.117188.050781-.050781.105469-.109375.058594-.066406.089844-.09375.070312-.074219.082031-.085938.078125-.078125.078125-.082031.070313-.078125.082031-.085938.070313-.074218.085937-.089844.066406-.070312.085938-.089844.070312-.074219.085938-.09375.0625-.066406.09375-.097657.0625-.066406.089843-.09375.0625-.066406.09375-.101562.058594-.0625.152344-.160157.027344-.03125.121094-.128906.058593-.0625.09375-.101563.0625-.066406.089844-.097656.0625-.066406.089844-.097656.0625-.066407.085937-.09375.066406-.070312.085938-.09375.066406-.070313.082032-.089844.070312-.074218.082031-.089844.066407-.070312.085937-.09375.066406-.070313.085938-.097656.0625-.066407.09375-.101562.054687-.0625.101563-.109375.050781-.050781.125-.140625.039062-.042969.132813-.140625.0625-.070313.085937-.09375.070313-.078124.078125-.085938.066406-.074219.082032-.089843.066406-.074219.085937-.089844.0625-.070313.082031-.09375.070313-.074218.078125-.085938.070312-.078125.078126-.085937.074218-.082032.070313-.078124.078125-.082032.066406-.078125.082031-.089843.0625-.070313.082031-.089844.066407-.074219.164062-.179687.0625-.070313.089844-.101562.144531-.160156.054688-.0625.085937-.097656.058594-.0625.082031-.09375.0625-.074219.085938-.089844.058594-.070313.082031-.09375.066406-.070312.078125-.089844.066406-.074218.078125-.085938.070313-.082031.078125-.085938.0625-.074219.082031-.089843.066406-.074219.078125-.089844.0625-.074218.082031-.089844.0625-.070313.085938-.09375.039062-.046875c.109376-.125.210938-.242187.320313-.367187l.0625-.070313.082031-.089844.0625-.074218.082032-.09375.0625-.070313.078124-.09375.0625-.070312.078126-.089844.066406-.074219.078125-.09375.066406-.070312.078125-.089844.0625-.078125.078125-.089844.066406-.078125.074219-.082031.070312-.082031.074219-.085938.066407-.078125.074218-.085937.066406-.074219.078126-.09375.058593-.066406.085938-.097657.046875-.054687c.125-.144531.238281-.277344.363281-.425781h.003906l.09375-.113282.050781-.058593.085938-.097657.054688-.0625.082031-.101562.058593-.066406.082032-.097656.058594-.066407.078124-.09375.0625-.074219.078126-.089843.0625-.074219.078124-.09375.0625-.070312.136719-.164063.082031-.09375.0625-.074219.078126-.09375.054687-.066406.085937-.097656.046876-.058594.09375-.109375.007812-.007813c.121094-.148437.238281-.285156.359375-.429687l.175781-.210937.09375-.109376.046875-.058593.089844-.109375.046875-.054688.089844-.105468.046875-.058594.089843-.105469.050782-.0625.082031-.101563.054687-.0625.085938-.105468.050781-.058594.085938-.105469.050781-.058593.085938-.105469.050781-.0625.085937-.101563.046875-.058594.089844-.109374.023437-.027344c.128907-.15625.25-.300782.375-.457032l.113282-.140624.023437-.023438.101563-.125.035156-.042969.097656-.121093.035156-.042969.097657-.117188.039062-.050781.097657-.121094.03125-.035156.105468-.128906.03125-.039063.097656-.121093.039063-.046876.09375-.117187.039063-.046875.097656-.121094.03125-.039062.101562-.125.023438-.03125c.25-.308594.5-.617188.75-.925782l.015625-.023437.113281-.136719.019531-.027344.105469-.132812.027344-.035156.101562-.128906.03125-.035157.097656-.121093.035157-.046876.097656-.121093.03125-.042969.101563-.125.027343-.035156.105469-.132813.019531-.023437.109375-.136719.027344-.035156c.292969-.371094.578125-.734375.871094-1.105469l.003906-.003906.113281-.144532.019531-.023437.109376-.140625.019531-.027344.105469-.132812.023437-.03125.105469-.136719.023437-.027344.105469-.132812.023438-.035157.105468-.132812.019532-.027344.109374-.140625.011719-.015625c.332031-.425781.664063-.855468.992188-1.28125l.007812-.011718.113281-.148438.015626-.019531.109374-.140625.015626-.023438.113281-.144531.011719-.019531.109374-.144532.019532-.023437.109375-.140625.015625-.023438.109375-.140624.015625-.023438.113281-.148438c.371094-.492187.734375-.972656 1.105469-1.464843l.007812-.011719.117188-.152344.003906-.007812.113281-.152344.128907-.171875c13.691406-18.417969 25.285156-38.300781 34.570312-59.285156 5.1875-11.757813-.140625-25.492188-11.894531-30.679688-2.953125-1.308593-6.140625-1.980469-9.363281-1.984375zm0 0" fill="#70c5aa"/><path d="m335.589844 30.6875c-6.90625.003906-13.726563 1.550781-19.960938 4.527344-19.667968 9.3125-38.285156 20.699218-55.535156 33.96875l-.003906.003906c-.75.578125-1.496094 1.164062-2.242188 1.753906l-.160156.125h-.003906c-.210938.167969-.421875.335938-.632813.503906l-.007812.007813-.148438.117187-.011719.007813c-.210937.167969-.421874.335937-.632812.503906l-.007812.007813-.152344.121094-.003906.003906c-.160157.128906-.316407.253906-.476563.382812l-.007813.003906-.144531.117188-.015625.011719-.152344.125c-.160156.128906-.316406.253906-.472656.382812l-.015625.011719-.136719.109375-.023437.019531-.140625.113282-.011719.011718c-.152343.125-.3125.253906-.464843.378906l-.023438.015626-.136719.113281-.015625.015625-.144531.113281-.011719.011719c-.15625.125-.3125.253906-.464844.382812l-.015624.011719-.140626.113281-.019531.015625c-.152343.128907-.308593.257813-.464843.386719l-.011719.007812-.132813.109376-.035156.03125-.125.101562-.023438.019531c-.15625.128907-.308593.253907-.460937.382813l-.023437.019531-.128907.109375-.023437.019531-.132813.109375-.023437.019532c-.15625.128906-.3125.257812-.464844.386718l-.007812.007813-.140626.117187-.023437.023438-.136719.113281-.015625.011719c-.152343.128906-.304687.257812-.457031.386718l-.027344.023438-.128906.109375-.019531.019531-.136719.113282-.019531.015624c-.105469.089844-.203125.175782-.308594.261719l-.007813.003907-.144531.125-.019531.019531-.128906.109375-.027344.023437-.140625.117188-.007813.007812c-.101562.089844-.207031.175781-.308593.265625l-.011719.011719-.136719.113281-.035156.03125-.121094.101563-.023437.023437-.140625.117188-.011719.011718c-.101562.089844-.203125.175782-.304688.261719l-.019531.019531-.132812.113282-.027344.023437-.121094.105469-.03125.027344-.128906.113281-.019531.015625-.152344.132812-.015625.011719-.132813.117188-.035156.027343-.113281.101563-.039063.035156-.121093.101563-.023438.023437-.140625.121094-.011718.011719-.152344.132812-.015625.011719-.128907.113281-.039062.035156-.109375.097657-.042969.035156-.105468.09375-.042969.039063-.140625.121093c-.007813.007813 0 0-.003906.003907l-.152344.132812-.023438.019531-.121094.109375-.039062.035156-.109375.09375-.042969.039063-.117187.105469-.027344.023437c-.101563.089844-.195313.175781-.296875.261719l-.03125.027344-.113281.101562-.042969.039063-.113281.097656-.035157.035156-.121093.105469-.027344.023438c-.097656.089843-.195313.175781-.292969.261718l-.042968.039063-.101563.09375-.050781.042969-.097656.085937-.050782.046875-.113281.101562-.027344.023438-.144531.132812-.03125.027344-.117188.101563-.046874.042969-.097657.089843-.050781.042969-.101562.09375-.042969.039062-.113281.101563-.035157.03125-.144531.132813-.019531.019531-.125.109375-.046875.042968-.097656.089844-.050782.046875-.089844.082031-.058593.050782-.109375.101562-.03125.027344-.140625.128906-.046875.039063-.101563.09375-.046875.042969-.101562.089843-.046875.046875-.109375.097656-.035156.03125c-.097657.089844-.195313.179688-.292969.269532l-.027344.027344-.113281.101562-.050782.046875-.097656.089844-.046875.042969-.109375.105468-.03125.027344c-.097656.089844-.199218.179688-.292968.269531l-.035157.03125-.113281.105469-.039062.035156-.109376.101563-.039062.035156-.113281.105469-.03125.03125-.144531.132812-.023438.023438-.121094.113281-.039062.035156-.109375.101563-.042969.042968-.101562.09375-.046876.042969-.105468.097657-.039063.035156-.144531.136718-.007812.007813-.132813.125-.039063.039063-.109374.101562-.042969.039062-.101563.097657-.042968.039062-.121094.117188-.023438.019531-.144531.136719-.027344.027343-.117187.109376-.042969.039062-.101563.097656-.046874.046875-.097657.09375-.046875.039063-.117187.113281-.027344.023437-.140625.136719-.042969.039063-.09375.089844-.0625.0625-.082031.078124-.058594.054688-.089844.085938-.050781.046874-.125.121094-.019531.019532-.140625.132812-.042969.042969-.101562.097656-.039063.039063-.109375.101562-.039062.039062-.109375.105469-.035157.035157-.128906.125-.042968.039062-.113282.113281-.042968.039063-.097657.09375-.054687.050781-.09375.089844-.046875.050781-.101563.09375-.042968.042969-.140626.136719-.027343.027343-.109375.105469-.058594.058594-.082031.078125-.058594.058593-.085937.082032-.058594.058594-.101563.097656-.175781.175781-.035156.03125-.109375.109375-.046875.042969-.09375.09375-.054688.050781-.089844.09375-.050781.046875-.109375.105469-.03125.035156-.136718.136719-.042969.039062-.242188.242188-.050781.046875-.144531.144531-.121094.117187-.933594.933594-.042969.039063-.175781.175781-.097656.101562-.316406.316407-.070313.074219-.308594.308593-.097656.101563-.070312.066406-.085938.089844-.328125.328125-.050781.054687-.105469.101563-.058593.0625-.152344.152343-.132813.136719-.027343.023438c-.105469.109375-.207032.210937-.3125.320312l-.160157.160157-.058593.0625-.09375.09375-.070313.074218-.324219.324219-.078125.082031-.070312.070313-.085938.089843-.066406.066407-.09375.097656-.226563.226563-.089843.09375-.058594.0625-.101563.105468-.054687.050782-.113281.117187-.042969.042969-.109375.113281-.046875.050781-.15625.15625c-.15625.164063-.308594.320313-.464844.480469l-.070312.074219-.085938.089844-.160156.160156-.054687.058594-.097657.101562-.0625.0625-.09375.097656-.0625.066406-.097656.097657-.050781.054687-.101563.105469-.0625.0625-.089843.09375-.0625.066406-.089844.089844-.070313.078125-.085937.089844-.0625.0625-.101563.105468-.054687.054688-.109375.117188-.042969.042968-.117188.125-.039062.035156c-.152344.160157-.3125.328126-.464844.488282l-.03125.03125-.113281.121094-.078125.078124-.082031.085938-.0625.066406-.089844.09375-.0625.0625-.097656.101563-.054688.058593-.09375.101563-.058593.0625-.101563.105469-.050781.054687-.09375.097657-.0625.066406-.09375.09375-.0625.070312-.085938.085938-.070312.074218-.085938.09375-.0625.066407-.09375.097656-.058594.0625-.109374.113281-.042969.046875-.144531.152344-.003907.003906c-.105469.109375-.207031.21875-.3125.328125l-.027343.027344-.121094.132812-.058594.0625-.09375.097657-.070312.078125-.078126.082031-.070312.074219-.082031.085937-.066407.070313-.089843.09375-.058594.0625-.09375.097656-.0625.070312-.085937.09375-.0625.066407-.089844.09375-.066406.070312-.085938.089844-.0625.070313-.082031.085937-.074219.078125-.085938.089844-.058593.066406-.101563.105469-.050781.054687c-.097656.105469-.195313.210938-.292969.3125l-.007812.011719c-.101563.105469-.203125.214844-.304688.324219l-.035156.035156-.117188.128906-.140624.152344-.070313.074219-.085937.09375-.058594.0625-.09375.101562-.203125.21875-.09375.101563-.0625.066406-.089844.097656-.058594.0625-.097656.105469-.046875.050781-.113281.121094-.035157.039062-.105468.113282-.050782.054687-.113281.125-.03125.035157c-.203125.214843-.40625.4375-.605469.652343l-.019531.023438-.128906.140625-.046875.050781-.097656.105469-.0625.070312-.082032.089844-.070312.074219-.082031.09375-.054688.058593-.097656.105469-.054687.058594-.09375.105469-.054688.054687-.09375.101563-.058594.066406-.09375.101562-.046875.054688-.101562.109375-.050781.058594-.097657.105469-.050781.054687-.097656.105469-.054688.058594c-.199218.21875-.394531.433593-.589844.652343l-.007812.007813-.144531.160156-.003907.003906-.140624.152344-.039063.046875-.109375.121094-.039062.042969-.105469.113281-.046875.054687-.109375.117188-.035157.039062-.105468.121094-.046875.046875-.105469.117187-.042969.046876-.097656.113281-.046875.050781-.113281.125-.03125.035156-.121094.136719-.023437.023437c-.296876.332032-.597657.664063-.890626.996094l-.007812.003906-.140625.15625-.019531.027344-.125.136719-.03125.035156-.117188.128907-.03125.035156-.109375.121094-.050781.0625-.09375.105468-.046875.046875-.105469.121094-.039062.042969-.113282.128906-.027343.03125-.113281.125-.039063.046875-.105469.117187-.039062.042969-.113282.128907-.03125.035156c-.089843.101562-.183593.207031-.273437.308594l-.019531.019531c-.199219.222656-.386719.4375-.582032.664062l-.023437.023438-.128906.144531-.007813.011719-.132812.148437-.023438.027344-.121094.140625-.03125.03125-.105468.121094-.046875.054687-.105469.117188-.035156.042968-.109375.121094-.035157.039063-.117187.132812-.023437.03125-.117188.128907-.03125.039062-.128906.144531-.011719.015625c-.292969.332032-.578125.664063-.871094.996094l-.015625.019531-.128906.144531-.027344.035157-.113281.128906-.03125.035156-.117187.132813-.023438.03125-.117188.132812-.03125.035156-.105468.121094-.046875.054688-.101563.117187-.03125.039063-.113281.125-.035156.042968-.109375.125-.03125.035157-.140625.164062c-.382813.445313-.765625.890625-1.148438 1.332031l-.011719.015626-.132812.152343-.011719.015625-.125.144532-.027343.03125-.140626.164062-.113281.136719-.03125.03125-.121093.144531-.015626.015625-.132812.152344-.003906.011719c-.480469.558593-.953125 1.117187-1.429688 1.675781l-.140625.167969-.003906.003906-.132813.160156-.015624.011719-.128907.152343-.011719.015626-.121093.144531-.027344.03125-.121094.144531-.011719.015625c-.519531.613281-1.035156 1.226563-1.550781 1.84375l-.003906.007813-.132813.15625-.011718.011718-.128906.15625-.007813.011719-.132813.15625-.007812.011719-.128906.152344-.015625.015624c-.558594.671876-1.113281 1.34375-1.667969 2.011719l-.007812.011719c-.089844.109375-.183594.222656-.273438.332031l-.273438.332031-.007812.007813c-35.875 43.605469-61.035156 88.128906-77.789062 123.628906l-.003907.003907-.125.269531-.003906.003906-.058594.121094-.007812.019531-.054688.117188-.007812.019531c-.171875.359375-.339844.722656-.507813 1.078125l-.011718.027344-.050782.109374-.011718.019532-.054688.117187-.007812.015625-.050782.113282-.015625.03125-.042969.09375-.023437.046874-.042969.09375-.015625.035157-.046875.097656-.015625.035156-.050781.105469-.007812.023438-.054688.113281-.007812.019531-.109376.234375-.019531.039063-.035156.078124-.042969.085938-.046875.101562c-10.839843 23.289063-.75 50.953126 22.539063 61.792969 23.289062 10.84375 50.953125.75 61.792968-22.535156.007813-.019531.019532-.035156.027344-.054687 17.066406-36.71875 47.320313-90.402344 94.542969-137.625 16.671875-16.496094 36.046875-30.019532 57.285156-39.976563 23.195313-11.046875 33.042969-38.804687 21.996094-62-7.714844-16.203125-24.070313-26.523437-42.019531-26.515625zm0 0" fill="#daefe6"/><path d="m347.589844 48.738281c-3.089844.003907-6.144532.621094-8.992188 1.820313-28.484375 11.957031-57.609375 29.085937-83.726562 53.597656l-.007813.007812c-.105469.097657-.214843.203126-.324219.304688-.003906.003906.003907-.003906-.003906 0l-.15625.152344-.007812.003906c-.105469.101562-.210938.203125-.320313.304688l-.011719.011718c-.160156.148438-.316406.300782-.476562.453125l-.015625.011719c-.105469.101562-.210937.203125-.316406.304688l-.011719.007812-.152344.144531-.007812.011719c-.105469.101562-.214844.203125-.320313.304688l-.007812.007812-.15625.148438-.003907.007812-.160156.152344-.007812.007812-.144532.140625-.023437.023438c-.105469.097656-.207031.195312-.308594.296875l-.019531.019531-.136719.132813-.023437.023437c-.101563.09375-.203125.195313-.304688.292969l-.027344.027344-.132812.128906-.023438.023437-.152343.148438-.015625.015625-.132813.128906-.03125.03125-.144531.140625-.003906.007813-.152344.148437-.027344.027344-.125.121093-.03125.03125-.152344.148438-.179687.179688-.125.121093-.023437.027344-.152344.148437-.144532.144532-.042968.039062-.125.128906-.019532.015626-.144531.148437-.039062.035156-.296875.296875-.148438.144532-.035156.039062-.113281.113281-.039063.035157-.117187.121093-.175781.175781c-12.640626 12.714844-24.585938 26.109376-35.777344 40.117188-8.046875 10.011719-6.457032 24.648438 3.550781 32.695312 10.011719 8.046876 24.648437 6.457032 32.695313-3.550781.023437-.027343.042968-.054687.066406-.082031 10.308594-12.902344 21.316406-25.226562 32.980468-36.921875 20.503907-20.503906 45.640626-37.089844 74.714844-49.292969 11.84375-4.972656 17.414063-18.605468 12.441406-30.449218-3.628906-8.636719-12.082031-14.253907-21.449218-14.253907zm0 0" fill="#f2f9f6"/><path d="m340.410156 348.453125c-4.457031-.003906-8.820312 1.285156-12.5625 3.703125-9.398437 6.050781-18.648437 11.625-27.632812 16.753906l-.019532.007813-.121093.070312-.042969.023438-.097656.058593-.050782.027344-.09375.054688-.058593.03125-.074219.042968-.078125.042969-.058594.035157-.089843.050781-.042969.023437-.101563.058594-.03125.019531-.113281.0625-.011719.007813c-2.449218 1.390625-4.867187 2.742187-7.273437 4.066406-.175781.09375-.351563.195312-.519531.292969-.191407.097656-.378907.199219-.566407.300781l-.011719.007812c-14.90625 8.160157-28.957031 15.054688-41.636718 20.800782-11.683594 5.332031-16.832032 19.128906-11.496094 30.8125 5.324219 11.660156 19.074219 16.8125 30.75 11.523437 15.085938-6.835937 30.132812-14.355469 44.730469-22.347656.199219-.109375.398437-.222656.597656-.339844.203125-.105469.40625-.210937.609375-.324219 13.183594-7.253906 26.207031-15.007812 38.707031-23.054687 10.800781-6.953125 13.917969-21.34375 6.964844-32.144531-4.28125-6.65625-11.65625-10.675782-19.574219-10.667969zm0 0" fill="#9c0503"/><path d="m441.851562 163.171875c0 51.375-41.648437 93.019531-93.023437 93.019531-51.371094 0-93.019531-41.644531-93.019531-93.019531s41.648437-93.019531 93.019531-93.019531c51.375 0 93.023437 41.644531 93.023437 93.019531zm0 0" fill="#f0a319"/><path d="m283.054688 228.949219c36.304687 36.347656 95.203124 36.378906 131.550781.074219 36.347656-36.308594 36.382812-95.203126.074219-131.550782-.023438-.027344-.050782-.050781-.074219-.078125l-.097657-.097656-.085937-.082031-.011719-.015625-.085937-.082031-.28125-.28125-.015625-.011719-.097656-.097657-.082032-.078124-.015625-.015626-.085937-.082031-.003906-.007812-.085938-.082031-.09375-.09375-.015625-.011719-.097656-.097657-.085938-.078124-.097656-.097657-.089844-.085937-.011719-.011719-.082031-.078125-.019531-.015625-.09375-.09375-.089844-.082031-.003906-.007813-.089844-.082031-.003906-.003906-.085938-.082032-.015624-.015624-.082032-.078126-.019531-.015624-.082031-.078126-.015625-.015624-.085938-.078126-.007812-.007812-.082031-.078125-.015626-.011719-.082031-.078125-.015625-.015625-.082031-.078125-.019531-.015625-.082032-.078125-.011718-.011719-.089844-.082031-.003906-.003906-.085938-.078125-.011718-.011719-.085938-.078125-.015625-.015625-.085937-.078125-.015626-.011718-.085937-.078126-.011719-.015624-.082031-.074219-.007813-.007813-.089843-.078125-.015625-.011719-.085938-.078124-.011718-.015626-.085938-.078124-.015625-.011719-.085937-.078125-.007813-.007813-.089844-.078125-.007812-.007812-.085938-.078125-.015625-.015625-.085937-.074219-.015625-.015625-.085938-.074219-.015625-.011719-.085937-.078124-.007813-.007813-.085937-.078125-.011719-.007812-.085937-.078126-.015626-.015624-.085937-.074219-.015625-.011719-.089844-.078125-.007812-.007813-.089844-.078124-.003906-.003907-.089844-.078125-.015625-.015625-.085937-.074219-.015626-.011718-.085937-.078125-.015625-.011719-.089844-.078125-.007812-.003906-.085938-.078125-.011718-.007813-.085938-.074219-.015625-.015624-.085937-.074219-.015626-.011719-.085937-.074219-.015625-.015625-.089844-.074218-.011718-.007813-.078126-.070313-.019531-.015624-.082031-.070313-.019531-.015625-.085938-.070312-.019531-.019532-.082031-.070312-.015625-.011719-.085938-.074219-.007812-.003906-.089844-.078125-.015625-.011719-.085937-.070312-.015626-.015625-.085937-.070313-.019531-.015625-.085938-.074219-.015625-.007812-.078125-.070312-.015625-.011719-.085937-.070313-.019532-.015625-.082031-.070312-.023437-.019531-.082032-.066407-.019531-.015625-.085937-.070312-.011719-.011719-.085937-.066406-.011719-.011719-.085938-.070312-.019531-.015626-.085938-.070312-.019531-.015625-.085937-.070313-.015625-.011718-.089844-.074219h-.003906l-.089844-.074219-.015625-.015625-.085938-.066406-.023437-.019531-.082031-.066406-.023438-.015626-.082031-.066406-.019531-.019531-.074219-.054687-.019531-.019532-.085938-.066406-.019531-.015625-.082031-.066406-.027344-.019531-.082031-.066407-.019531-.015625-.082032-.066406-.019531-.011719-.097656-.078125-.082031-.0625-.027344-.023437-.078125-.0625-.027344-.019531-.078125-.0625-.027344-.019532-.074218-.058594-.023438-.015624-.078125-.0625-.023437-.015626-.082032-.0625-.027344-.023437-.078124-.0625-.027344-.019531-.082032-.0625-.023437-.015625-.074219-.058594-.019531-.011719-.082031-.0625-.027344-.023437-.074219-.058594-.035156-.023437-.078125-.058594-.027344-.019532-.074218-.058593-.027344-.023438-.070313-.050781-.027343-.019531-.1875-.140625-.027344-.023438-.109375-.078125-.070313-.054687-.027344-.019532-.070312-.054687-.109375-.082031-.03125-.019532-.109375-.082031-.082031-.058593-.019531-.015626-.074219-.054687-.03125-.019531-.070313-.054688-.109375-.082031-.03125-.019531-.109375-.082032-.070312-.050781-.035156-.027343-.066407-.046876-.027343-.019531-.078126-.058593-.03125-.019532-.078124-.058594-.035157-.023437-.074219-.054687-.03125-.019532-.070312-.050781-.035156-.023437-.066406-.046876-.03125-.027343-.078126-.054688-.03125-.019531-.078124-.054688-.035157-.027343-.078125-.054688-.027344-.019531-.0625-.042969-.042968-.03125-.066406-.046875-.03125-.023437-.078126-.050781-.035156-.027344-.074218-.050782-.035157-.023437-.0625-.046875-.050781-.03125-.050781-.035156-.058594-.042969-.050781-.035156-.042969-.03125-.070313-.046875-.042968-.027344-.070313-.050781-.039062-.027344-.054688-.035156-.054687-.039063-.050782-.035156-.046874-.03125-.066407-.042969-.039062-.027343-.074219-.050782-.039062-.027344-.0625-.042968-.046876-.03125-.054687-.035156-.058594-.039063-.050781-.035156-.042969-.03125-.066406-.042969-.042969-.03125-.074218-.046875-.039063-.027344-.054687-.035156-.105469-.070313-.054688-.039062-.058593-.039062-.042969-.027344-.070313-.046875-.039062-.027344-.0625-.039063-.054688-.035156-.046875-.03125-.0625-.042968-.046875-.027344-.0625-.042969-.050781-.03125-.046875-.03125-.066406-.042969-.046875-.035156-.046875-.027344-.070313-.046875-.039062-.023437-.070313-.046875-.042968-.027344-.074219-.046875-.039063-.023438-.050781-.035156-.039063-.027344-.078124-.046874-.03125-.019532-.082032-.054687-.03125-.019531-.089844-.058594-.023437-.011719-.101563-.066406-.015624-.011719-.058594-.035156-.015625-.011719-.101563-.0625-.015625-.011719-.105469-.0625-.015624-.011718-.105469-.066407-.011719-.007812-.179688-.109375-.011718-.007813-.101563-.066406-.019531-.011719-.101562-.0625-.015626-.007812-.113281-.070313-.007812-.003906-.179688-.113281h-.007812l-.113281-.070313-.007813-.007812-.117187-.070313-.003907-.003906c-.101562-.0625-.203125-.121094-.304687-.183594l-.003906-.003906c-3.058594-1.84375-6.222657-3.511719-9.476563-4.992188-5.851563-2.640624-12.738281-.039062-15.382813 5.8125-2.640624 5.84375-.050781 12.71875 5.785157 15.371094 35.066406 15.980469 50.542969 57.359375 34.5625 92.429688-15.976563 35.066406-57.359375 50.542968-92.425781 34.5625-7.59375-3.457032-14.5-8.25-20.402344-14.148438-4.539063-4.539062-11.902344-4.539062-16.441406 0-4.542969 4.539063-4.542969 11.902344 0 16.445313zm0 0" fill="#db6600"/><path d="m511.617188 23.640625c0-12.84375-10.410157-23.253906-23.253907-23.253906h-.003906s-69.109375-5.1875-146.199219 23.699219c2.238282-.109376 4.40625-.445313 6.667969-.445313 77.0625 0 139.53125 62.46875 139.53125 139.53125 0 2.261719-.335937 4.433594-.441406 6.667969 28.882812-77.089844 23.699219-146.199219 23.699219-146.199219zm0 0" fill="#b13b39"/><path d="m465.105469 35.269531c0-6.421875-10.410157-11.628906-23.253907-11.628906s-23.257812 5.207031-23.257812 11.628906c0 6.417969 10.414062 11.625 23.257812 11.625s23.253907-5.207031 23.253907-11.625zm0 0" fill="#c26765"/><path d="m499.96875 12.035156c-6.410156-.003906-11.605469 5.191406-11.609375 11.597656v.007813c0 .550781.023437 1.148437.0625 1.699219.019531.242187 1.6875 24.765625-3.160156 59.839844-.027344.199218-.050781.402343-.070313.601562-.035156.195312-.070312.394531-.097656.59375-.875 6.179688-1.949219 12.683594-3.269531 19.441406-1.234375 6.300782 2.875 12.410156 9.175781 13.644532 6.304688 1.234374 12.414062-2.871094 13.648438-9.175782 0-.003906 0-.007812 0-.015625.152343-.78125.304687-1.558593.449218-2.335937l.003906-.023438.027344-.128906.003906-.03125.023438-.117188.050781-.269531.003907-.019531c.527343-2.828125 1.019531-5.613281 1.472656-8.355469l.003906-.015625c.011719-.085937.027344-.175781.042969-.261718l.007812-.058594.019531-.117188.007813-.050781.019531-.113281.023438-.140625.011718-.0625.015626-.101563.011718-.074218.007813-.058594.019531-.109375.011719-.0625.015625-.101563.007812-.058594.015625-.089843.007813-.058594.019531-.113281.007813-.054688.050781-.304687.015625-.117188.011718-.054687.015626-.109375.011718-.058594.011719-.085937.011719-.0625.015625-.113282.007812-.042968.019531-.125.007813-.039063.015625-.109375.003906-.03125.019532-.113281.011718-.066407.015625-.109374.007813-.050782.015625-.085937.011719-.09375.011718-.066407.011719-.074218.007813-.046875.019531-.128907.007812-.042968.019531-.136719.003907-.03125c.285156-1.820313.550781-3.625.800781-5.398437.027344-.199219.050781-.394532.066406-.589844.039063-.195313.070313-.390625.097656-.585938 2.105469-15.082031 3.320313-30.277344 3.632813-45.503906v-.0625l.003906-.046875v-.015625c0-.070312 0-.140625.003907-.207031v-.179688l.003906-.105469v-.140624c.183594-11.179688-.273438-17.882813-.316406-18.46875v-.042969c0-.097657-.003907-.199219-.003907-.296875-.1875-6.289063-5.332031-11.292969-11.625-11.308594zm0 0" fill="#9c0503"/><path d="m418.59375 163.171875c0 38.53125-31.234375 69.765625-69.765625 69.765625s-69.765625-31.234375-69.765625-69.765625 31.234375-69.765625 69.765625-69.765625 69.765625 31.234375 69.765625 69.765625zm0 0" fill="#724d71"/><path d="m391.667969 121.355469c-3.164063 0-6.292969.652343-9.191407 1.917969-11.796874 5.140624-17.269531 18.808593-12.28125 30.671874l.164063.386719c.019531.050781.042969.101563.066406.152344.027344.082031.058594.160156.089844.238281 4.640625 12-1.324219 25.492188-13.324219 30.136719-2.667968 1.03125-5.503906 1.5625-8.363281 1.566406-8.398437-.023437-16.136719-4.546875-20.28125-11.851562-6.332031-11.175781-20.523437-15.097657-31.699219-8.765625-11.160156 6.324218-15.089844 20.496094-8.78125 31.664062v.007813c.105469.183593.210938.367187.316406.550781v.003906l.105469.179688.003907.003906c.035156.0625.070312.121094.105468.183594l.109375.183594c.070313.121093.144531.242187.21875.367187.121094.203125.242188.40625.367188.609375.074219.121094.148437.238281.222656.359375l.003906.003906.109375.179688h.003906c.035157.058593.074219.117187.109376.179687l.003906.003906c.035156.058594.074218.117188.109375.175782l.003906.003906.109375.175781.003906.003907.113282.175781v.003906l.113281.171875.003906.007812.15625.234376.070313.113281.007812.007812.035156.058594.003906.003906c.035157.054688.078126.113281.113282.171875l.003906.007813c.039062.054687.078125.113281.113281.171875l.003907.003906c.039062.054688.078124.113281.117187.171875v.003906c.078125.117188.15625.230469.234375.347657l.007812.007812c.078126.113281.15625.230469.234376.34375l.003906.003906c.039062.058594.078125.117188.117187.175782h.003907c.039062.054687.078124.113281.117187.167968l.003906.007813c.039063.058593.078125.113281.121094.171875l.039063.058594.003906.003906.078125.109375v.003906l.042969.058594c.082031.113281.164062.230469.246093.34375v.003906c.039063.054687.082031.113281.121094.167969l.007813.007812c.039062.054688.078124.109375.117187.164063l.007813.007812.117187.164063.003906.007812.121094.164063.007813.003906c.039062.054687.078124.109375.117187.164063l.007813.011718c.042968.054688.082031.105469.121093.160156l.003907.007813.121093.164063.007813.007812c.039062.050781.082031.105469.121094.160156l.003906.007813.042968.050781.003907.007812.074219.101563.007812.007813.039062.054687.007813.003906.078125.109375h.003906l.039063.054688.007812.011718.082031.101563.039063.054687.007813.007813.121093.160156.007813.011719.121094.152344.011718.015625c.039063.050781.082032.101562.121094.15625l.007812.007812.125.160157.003907.003906.125.160156.007812.007812.125.15625.007813.007813c.042968.054687.085937.105469.125.15625l.007812.011719c.238282.292968.472656.582031.710938.871094l.011718.007812.125.152344.007813.007812.128906.15625.007813.007813.128906.152343.007812.011719.128907.148438.011719.011719.125.148437.011718.015625.039063.046875.011719.011719.074218.089844.011719.011718.128906.148438.011719.011718.039062.046876.011719.011718.074219.085938.011719.015625.042969.042969.007812.011718.078125.09375.011719.007813.039062.046875.015625.015625.078125.089843.003906.007813.042969.046875.011719.011719.128906.148437.007813.007813.132812.148437.011719.011719.128906.144531.011719.011719.136719.148437.003906.003907.136719.152343.003906.007813.136719.148437.007812.007813c.046875.046875.089844.097656.136719.148437l.007813.007813.140624.152344.050782.050781.09375.101562v.003907c.066406.066406.128906.132812.191406.203125l.007812.003906.089844.097656.054688.054688.140625.152344.007812.003906c.046875.050781.089844.097656.136719.144531l.011719.011719c.046875.046875.089843.09375.136719.140625l.007812.011719.140625.140624.007813.011719c.042968.042969.089843.09375.136718.136719l.015625.015625c.042969.046875.089844.09375.136719.140625l.148438.148438.007812.011718.148438.148438c.046874.046875.097656.097656.144531.144531l.003906.003906c.050781.050781.097656.097657.148437.148438l.050782.046875.007812.007812c.046875.046875.09375.097656.144532.144532v.003906l.148437.144531.003906.003906.148438.144531.003906.003907.144531.140625.011719.007812.140625.136719.011719.011719.144531.136718.007812.007813c.046876.046875.097657.09375.144532.140625l.007812.003906.144532.140625.011718.007813.144532.136718.007812.007813.046875.042969.003906.003906.097657.09375.003906.003906.050781.046875h.003906l.097657.089844.003906.007813.050781.042968.007813.007813.148437.136719.003906.003906c.050781.046875.097657.089844.148438.136718l.011719.011719c.050781.042969.097656.089844.148437.132813l.007813.007812c.046874.042969.09375.085938.144531.132813l.015625.011719.140625.128906.015625.015625.144531.125.015625.015625.144531.128906.011719.007812.046875.042969.007813.007813.089843.078125.015625.011719.046875.042968.003907.003906.09375.082032.011718.011718.046875.042969.007813.003907.09375.078124.011718.015626.046876.039062.007812.007812.152344.128907.011718.007812.097657.085938.003906.003906.046875.042969.011719.007812c.050781.042969.101562.085938.152343.128906l.007813.007813.152344.128906.011719.007813.148437.125.015625.015625c.050781.042969.097656.082031.148438.125l.011718.007812.152344.125.007812.011719.15625.128906.007813.003906c.050781.042969.101563.085938.152344.128907l.011719.007812c.054687.042969.105468.085938.15625.128907l.007812.003906.050781.039062.007813.007813.097656.078125.007812.007812.050782.042969.003906.003906.160156.128907.007813.003906.097656.078125.011719.007812.046875.039063.011719.011718.097656.078126.007812.003906.046875.039062.019531.015625.09375.074219.003907.003906.046875.039063.019531.011719.148437.117187.015626.015625.152343.117188.015625.011718.148438.117188.019531.015625.152344.117187.011719.007813.15625.121093.015624.007813.046876.039063.003906.003906.101562.078125.015625.007812.050781.039063.007813.003906.097656.078125.011719.007813.050781.039062.003907.003906.105468.078125.007813.003907.050781.039062.011719.007812.105469.078126v.003906l.054687.039062.007813.007813c.054687.039062.105468.078125.160156.117187l.109375.082032.011719.007812.046874.035156.019532.011719.152344.113281.015624.011719.15625.113281.015626.011719.15625.113281.015624.011719.160157.113281.011719.007813.15625.113281.015624.011719.160157.113281.011719.007812.054687.035157.011719.011719.09375.066406.015625.007812.050781.039063.011719.007812.097656.066407.011719.011718.050781.035156.019531.011719.089844.0625.015625.011719.050781.035156.015625.011719.09375.0625.015625.011719.070313.046875.15625.105469.011719.011718.175781.117188.164062.113281.011719.007813.160156.105468.019532.015625.15625.101563.019531.015625.050781.03125.007812.007812.101563.066407.011719.007812.167968.109375.011719.007813.054688.035156.003906.003906.101563.070312.019531.011719.050781.03125.007812.007813.105469.066406.011719.007812.050781.03125.015625.011719.101563.066407.011719.003906.050781.035156.011719.007812.105468.066407.007813.007812.050781.03125.019531.011719.097657.0625.011718.007812.050782.03125.019531.011719.105469.066407.003906.003906.050781.03125.023437.015625.160157.097656.015625.011719.160156.101562.023438.011719.046874.03125h.003907l.105469.066406.023437.015625.050781.03125.105469.066406.023437.011719.050782.03125.003906.003907.109375.066406.015625.007812.054688.035156.011718.007813.117188.070313.050781.03125.015625.007812.097656.058594.015625.011718.050781.03125.027344.015626.078125.042968.03125.019532.046875.027343.027344.015625.085938.054688.019531.007812.050781.03125.023438.015625.097656.054688.011718.007812.050782.03125.019531.011719.164063.09375.019531.011719.109375.066406h.003906l.050781.027344.019531.015625.164063.09375.023437.011718.160157.09375.023437.011719.050782.03125.011718.003907.101563.058593.019531.011719.054688.03125.007812.003906.101562.058594.019532.011719.054687.027343.015625.011719.09375.050781.023438.011719.050781.03125.019531.007813.09375.050781.023438.015625.046875.027344.03125.015625.085937.046875.019532.011718.050781.027344.023437.011719.097656.054687.015626.007813.050781.027344.019531.011719.105469.058593.011719.003907.050781.03125.019531.007812.167969.089844.023437.011718.164063.089844.023437.011719.164063.085937.023437.015626.164063.085937.027343.011719.050782.027344.019531.011718.085937.046875.03125.015625.050782.023438.019531.011718.09375.046876.023437.015624.050782.023438.027344.015625.085937.042969.027344.015625.050781.023437.03125.015625.074219.039063.035156.019531.1875.09375.050781.027344.21875.109375.097656.046875.011719.007812.078125.039063.097656.046875.070313.035156.027344.011719.082031.042968.03125.011719.265625.132813.171875.082031.019531.007813.070313.035156.101562.046875.078125.039062h.003907l.132812.066407.054688.023437.019531.007813.089843.042968.03125.015625.050782.023438.023437.011719.09375.042968.023438.011719.050781.023437.03125.011719.082031.039063.03125.015625.050781.023437.03125.015625.082032.035157.078125.039062.03125.011719.082031.039062.035156.015625.046875.019532.03125.015624.097657.042969.015624.007813.050782.023437.035156.015625.078125.035156.035156.015626.046875.019531.03125.011719.164063.074218.035156.015625.046875.019531.066406.03125.046875.019532.03125.015625.050781.019531.023438.011719.089844.039062.035156.015625.046875.019532.039063.015624.074218.035157.035156.015625.046876.019531.039062.015625.074219.03125.035156.015625.050781.023437.027344.007813.097656.042969.015625.007812.078125.03125.09375.039063.03125.015625.050782.019531.027343.011719.09375.039062.023438.011719.050781.019531.03125.011719.089844.039063.027344.011718.050781.019532.03125.011718.097656.042969.015625.003906.082031.035157.101563.039062.015625.007812.054687.023438.027344.007812.167969.070313.035156.015625.046875.015625.050781.023437.066407.023438.03125.015625.050781.019531.027343.007813.09375.039062.03125.011719.046876.019531.042968.015625.074219.027344.035156.015625.046875.019531.035156.011719.082032.03125.035156.015625.050781.019531.03125.011719.085938.03125.03125.015625.046875.015625.039062.015625.085938.03125.03125.011719.050781.019531.03125.011719.082031.03125.035156.011718.050782.019532.035156.015625.074219.027343.042969.015626.046874.015624.039063.015626.078125.027343.035156.015625.050782.015625.035156.015625.085937.03125.03125.011719.050781.015625.035157.015625.117187.039063.046875.019531.039063.011719.046875.015624.070312.027344.128907.046875.074218.027344.039063.011719.050781.015625.039062.015625.0625.023437.054688.015625.085938.03125.046874.019532.070313.023437.042969.011719.046875.019531.050781.015625.152344.050781.039062.015625.074219.027344.042969.011719.046875.015625.039062.015625.074219.023437.042969.015625.152343.050781.054688.015626.042969.015624.046875.015626.050781.015624.0625.023438.046875.011719.042969.015625.117187.039062.042969.011719.085937.03125.074219.023437.042969.011719.046875.015625.042969.011719.074218.023437.042969.015626.046875.015624.039063.011719.074219.023438.046874.015625.042969.011718.042969.015626.054688.015624.066406.019532.039062.015625.046875.011719.054688.019531.058593.015625.050782.015625.039062.011719.0625.019531.050782.015625.054687.015625.039063.011719.058593.019531.050781.011719.058594.019531.039063.011719.058593.019531.039063.011719.070313.019531.035156.011719.0625.015624.039062.011719.070313.023438.039062.007812.054688.015625.035156.011719.078125.023437.035156.011719.058594.015625.035156.007813.117188.035156.054687.015625.035157.011719.082031.019531.03125.011719.09375.023437.085937.027344.023438.003906.070312.019532.027344.007812.085938.023438.027343.007812.066407.019531.03125.007813.085937.023437.027344.007813.0625.015625.03125.011719.082031.019531.035156.007812.058594.019531.039062.007813.074219.019531.03125.011719.0625.015625.039063.007812.070312.019532.035156.007812.070313.019532.035156.007812.0625.019531.046875.011719.058594.015625.042969.011719.054687.011718.050782.011719.066406.019531.039062.007813.058594.015625.03125.007812.082031.019532.039063.011718.058594.011719.03125.011719.082031.019531.035156.007813.058594.015625.035156.007812.082031.019531.035156.007813.09375.023437.082032.019532.035156.007812.058594.015625.035156.007813.082031.019531.035157.007813.058593.015624.035157.007813.085937.019531.03125.007813.058594.011719.039062.011718.066407.015625.050781.011719.054687.011719.039063.007812.074219.015625.039062.011719.0625.011719.105469.023437.042969.011719.0625.011719.039062.011719.066406.011718.035156.007813.074219.015625.035157.007812.0625.015625.039062.007813.074219.015625.039062.007812.0625.015625.027344.003906.085937.019532.035157.007812.0625.011719.03125.007813.085937.019531.03125.003906.066406.015625.03125.007812.085938.015626.035156.007812.054688.011719.039062.007812.082032.015625.035156.007813.097656.019531.082031.015625.035157.007813.097656.019531.082031.015625.035156.007812.097657.019532.082031.015624.03125.003907.0625.011719.039062.007812.085938.019531h.019531l.105469.023438.078125.011719.03125.007812.074218.011719.035157.007812.074219.011719.023437.007812.082031.011719.03125.007813.074219.011718.023437.003907.085938.015625.035156.007812.066406.011719.027344.003906.085938.015625.035156.007813.066406.011719.027344.003906.089844.015625.03125.003906.09375.015625.089844.015625.03125.007813.070312.011718.027344.003906.089844.015626.03125.003906.066406.011718.027344.003907.089843.015625.027344.003906.070313.011719.03125.003906.089843.015625.027344.003906.070313.011719.03125.003906.089843.011719.019531.003906.074219.011719.03125.007813.089844.011718.027344.003906.066406.011719.035156.003907.085938.011718.019531.003906.109375.015626.085937.011718.015626.003906.089843.011719.027344.003907.078125.011718.019531.003906.09375.011719.027344.003907.074219.011718.023437.003906.089844.011719.109375.015625.019531.003906.09375.011719.023438.003907.078125.007812.023437.003906.089844.011719.03125.003906.070313.011719.027343.003906.09375.011719.023438.003906.105469.011719.085937.011719.027344.003906.074219.007813.027343.003906.09375.011718.023438.003907.074219.007812.03125.003907.089843.011718h.023438l.074219.011719.03125.003906.089843.007813.023438.003906.074219.007812.035156.003907.089844.011719h.011718l.085938.011718h.03125l.085937.011719h.007813l.125.015625.082031.007812h.015625l.09375.011719.027344.003907.082031.007812h.015625l.089844.011719h.035156l.070312.007812.027344.003907.09375.007812.027344.003906.074219.007813h.027343l.089844.011719h.03125l.074219.007812.023437.003906.09375.007813.027344.003906.074219.003906.027344.003907.09375.007812.027343.003906.074219.003906.027344.003907.09375.007812.023437.003907.074219.003906.03125.003906.089844.007812.027344.003907.070312.003906.035157.003906.089843.007813h.023438l.074219.007812h.035156l.085937.007813h.023438l.082031.007812.027344.003907.089844.003906h.011718l.09375.007812.027344.003906.085938.003907h.011718l.101563.007812h.019531l.089844.007813h.011718l.097657.007812h.027343l.082032.007813h.019531l.09375.007812h.027344l.085937.003907h.011719l.101563.007812h.023437l.082031.007812h.019532l.097656.003907.019531.003906.085937.003906h.023438l.09375.007813h.023438l.078124.003906h.027344l.097656.003906.019532.003906.078125.003907h.027343l.097657.003906h.015625l.085937.003906.027344.003907.097656.003906h.007813l.09375.003906h.023437l.097657.003906h.007812l.09375.003906.027344.003907.199218.003906.019532.003906.097656.003907h.105469l.023437.003906h.101563l.097656.003906h.027344l.085937.003906h.015625l.097657.003906h.027343l.082031.003907h.140626l.085937.003906h.117187l.023438.003906h.101562l.101563.003907h.222656l.023438.003906h.332031l.097656.003906h.457032c38.527343 0 69.765624-31.238281 69.765624-69.765625v-.375l-.003906-.0625v-.375l-.003906-.0625v-.265625l-.003906-.066406v-.109375l-.003906-.039063c0-.074218 0-.144531-.003907-.21875v-.144531l-.003906-.070313v-.042968l-.003906-.070313v-.105469l-.003907-.042968v-.070313l-.003906-.039062v-.109375l-.003906-.070313v-.035156l-.003906-.074219v-.035156l-.003906-.078125v-.03125l-.003907-.082031v-.027344l-.003906-.101562v-.007813c-.007813-.109375-.011719-.21875-.015625-.328125v-.019531l-.003906-.09375-.003906-.019531-.003907-.085938v-.027344l-.003906-.082031v-.03125l-.003906-.078125-.003907-.03125-.003906-.078125v-.03125l-.003906-.078125-.003906-.027344-.003906-.085937v-.023438l-.003907-.089843-.003906-.019532-.003906-.105468c-.011719-.1875-.023438-.371094-.035157-.554688v-.003906l-.007812-.105469v-.007813l-.007812-.101562v-.015625l-.007813-.09375v-.015625l-.007813-.09375-.003906-.015625-.003906-.09375-.003906-.015625-.003906-.097656-.003907-.011719-.007812-.101563v-.003906c-.527344-6.84375-2.070313-13.570312-4.570313-19.960937-.042968-.105469-.085937-.210938-.128906-.316407-.023438-.0625-.046875-.121093-.070312-.183593-.082032-.203125-.164063-.410157-.25-.613281-.128907-.3125-.257813-.625-.390626-.9375l-.023437-.054688-.003906-.003906c-.113281-.269532-.230469-.535156-.351563-.800782-3.734375-8.203124-11.914062-13.46875-20.925781-13.46875zm0 0" fill="#432542"/><path d="m205.410156 199.851562-60.011718 92.375c-4.171876 6.5-11.351563 10.445313-19.074219 10.476563h-92.878907c-18.472656 0-33.445312-15.367187-33.445312-34.320313-.0234375-9.042968 3.472656-17.742187 9.746094-24.253906 20.949218-21.75 76.414062-68.71875 173.726562-80.777344 19.4375-2.40625 32.796875 19.785157 21.9375 36.5zm0 0" fill="#b13b39"/><path d="m166.011719 193.710938c-7.882813-.007813-15.230469 3.976562-19.523438 10.589843l-37.9375 59.269531c-7 10.765626-3.949219 25.171876 6.820313 32.171876 10.765625 7 25.171875 3.949218 32.171875-6.820313.003906-.003906.007812-.007813.011719-.011719 0 0 25.664062-40.382812 32.042968-50.199218l.019532-.03125c.140624-.214844.277343-.429688.417968-.640626l.085938-.132812.039062-.058594 5.339844-8.21875c6.988281-10.777344 3.917969-25.183594-6.859375-32.171875-3.761719-2.441406-8.144531-3.738281-12.628906-3.746093zm0 0" fill="#9c0503"/><path d="m186.371094 163.171875c-.382813 0-.765625.007813-1.152344.027344l-.019531.003906h-.066407l-.035156.003906h-.042968l-.019532.003907-.125.007812c-.476562.027344-.953125.074219-1.4375.132812-97.3125 12.058594-152.78125 59.027344-173.726562 80.777344-6.273438 6.511719-9.7695315 15.210938-9.746094 24.253906v.386719l.00390625.058594v.207031l.00390625.039063v.148437l.0039063.050782v.085937l.0039062.03125v.089844l.0039062.035156v.082031l.0039063.058594v.0625l.0039063.023438v.058593l.0039062.039063v.058594l.0039062.023437v.058594l.0039063.0625v.003906l.0039063.054687v.058594l.0039062.023438v.0625l.0039062.035156v.023438l.0039063.039062v.019531l.0039063.046875v.027344l.0039062.046875v.019531l.0039062.039063v.019531l.0039063.042969v.019531l.0039063.039062v.023438l.0039062.039062v.019532l.0039062.054687v.003907l.0039063.0625v.003906l.0039063.050781.0039062.023437v.039063l.0039062.019531.0039058.039063v.023437l.003907.039063v.019531l.003906.042969v.015625l.011719.121094v.015624l.003906.042969v.019531l.003906.039063.003906.019531.003907.042969v.015625l.003906.046875v.015625l.011719.117188.003906.011718.003906.050782v.015624l.003906.042969.003907.015625.003906.046875v.011719l.003906.046875.003907.015625.003906.054688v.003906l.007812.0625v.003906l.003906.054688.003907.015624.003906.042969v.019531l.007813.039063v.019531l.003906.042969.003906.015625.003906.046875v.011719l.015625.121094v.011718l.007813.046875v.015625l.007812.042969v.019531l.003906.039063.003907.019531.007812.046875v.011719l.007813.058594.007812.0625.007813.058593v.011719l.007812.046875v.015625l.007813.042969v.015625l.007812.050781v.007813c.011719.058593.019532.121093.027344.179687v.007813l.007812.050781v.015625l.007813.042968.003906.015626.003907.046874.003906.011719.007812.054688v.003906l.019532.121094v.003906l.007812.058594v.007812l.007812.050781.003907.007813.007812.050781v.011719l.007813.050781v.007813c.011718.0625.019531.121093.03125.179687v.003906l.007812.054688.003906.011719.007813.050781v.007812l.007813.050782.003906.007812c.011718.082032.027344.160156.039062.238282l.003906.011718.007813.050782.003906.007812.007813.050781v.007813l.011718.054687v.003907c.011719.0625.023438.121093.035157.179687v.007813l.007812.050781.003907.011719.007812.050781.003906.007812.007813.054688.003906.003906c.015625.078125.027344.160156.046875.238281v.003906l.011719.054688v.007812l.011719.050782v.007812c.015624.082032.035156.160156.050781.238282v.003906l.011719.054687v.007813l.011718.050781.003906.007813.007813.050781.003906.007812c.011719.058594.023438.117188.039063.179688l.011718.054687.003907.007813.011719.054687v.003906l.011718.054688.003906.003906.011719.058594.027344.121094.011719.054687.003906.007813.011719.050781v.007813l.011719.050781.003906.007812c.019531.078125.035156.15625.054687.234375l.003907.007813.007812.050781.003906.003906.011719.058594c.027344.097656.050781.195312.074219.292969l.003906.007812.011719.050781.003906.007813.015625.054687c.023438.097657.050781.199219.078125.296876l.015625.058593c.027344.097657.054688.195313.082031.292969v.003906l.015625.054688v.003906l.015625.054688h.003907c.03125.117187.066406.234374.101562.351562.070312.230469.140625.464844.214844.695312v.003907c.074218.230469.152344.457031.230468.6875.054688.152343.109376.304687.164063.457031 2.128906 5.910156 5.835937 11.121094 10.71875 15.070312 5 4.03125 12.320313 3.246094 16.351563-1.753906 4.03125-4.996094 3.246093-12.316406-1.753907-16.347656-2.660156-2.183594-4.183593-5.457031-4.140625-8.898438-.015625-3.027343 1.148438-5.941406 3.246094-8.125 17.761719-18.441406 68.890625-62.558593 159.832031-73.828124l.046875-.003907c6.464844-.675781 11.339844-6.191406 11.214844-12.695312-.089844-5.230469-3.921875-9.640625-9.089844-10.457031-.699218-.066407-1.410156-.101563-2.132812-.101563zm0 0" fill="#c26765"/><path d="m155.804688 356.195312c-36.703126-36.703124-73.40625-31.636718-88.984376-27.054687-4.5625 1.332031-8.714843 3.796875-12.070312 7.164063-10.984375 10.984374-10.984375 28.792968 0 39.777343l81.167969 81.167969c10.984375 10.984375 28.792969 10.984375 39.777343 0 3.367188-3.351562 5.832032-7.507812 7.164063-12.070312 4.585937-15.578126 9.652344-52.28125-27.054687-88.984376zm0 0" fill="#47153d"/><path d="m129.183594 410.742188c3.371094-3.355469 5.835937-7.507813 7.167968-12.074219.035157-.117188.070313-.234375.105469-.355469 12.011719-41.65625-27.621093-81.292969-69.277343-69.277344-.121094.035156-.242188.070313-.359376.105469-14.941406 4.359375-23.519531 20.007813-19.15625 34.953125 1.320313 4.523438 3.757813 8.648438 7.085938 11.988281l34.65625 34.660157c10.984375 10.980468 28.792969 10.980468 39.777344 0zm0 0" fill="#593558"/><path d="m372.085938 139.917969c0 12.84375-10.414063 23.253906-23.257813 23.253906s-23.253906-10.410156-23.253906-23.253906 10.410156-23.257813 23.253906-23.257813 23.257813 10.414063 23.257813 23.257813zm0 0" fill="#dca7be"/><path d="m116.277344 349.214844c0 12.84375-10.410156 23.253906-23.253906 23.253906s-23.257813-10.410156-23.257813-23.253906 10.414063-23.257813 23.257813-23.257813 23.253906 10.414063 23.253906 23.257813zm0 0" fill="#724d71"/></svg>