<?xml version="1.0" encoding="iso-8859-1"?>
<!-- Generator: Adobe Illustrator 19.0.0, SVG Export Plug-In . SVG Version: 6.00 Build 0)  -->
<svg version="1.1" id="Capa_1" xmlns="http://www.w3.org/2000/svg" xmlns:xlink="http://www.w3.org/1999/xlink" x="0px" y="0px"
	 viewBox="0 0 512.001 512.001" style="enable-background:new 0 0 512.001 512.001;" xml:space="preserve">
<path style="fill:#FFC850;" d="M186.399,269.297c0.886,6.496,5.637,11.795,11.997,13.385l72.598,18.15
	c3.4,0.85,3.439,5.673,0.039,6.523c-19.267,4.817-54.986,13.746-72.677,18.169c-6.36,1.59-11.07,6.882-11.956,13.377
	l-19.246,141.137c-0.529,3.882-6.142,3.882-6.672,0l-19.246-141.135c-0.886-6.496-5.597-11.788-11.958-13.378
	c-17.692-4.421-53.412-13.35-72.68-18.167c-3.4-0.85-3.4-5.663,0-6.513c19.269-4.817,54.991-13.748,72.682-18.173
	c6.359-1.59,11.069-6.882,11.955-13.377l19.246-141.14c0.529-3.882,6.141-3.892,6.67-0.009
	C173.142,172.074,185.214,260.602,186.399,269.297z"/>
<path style="fill:#FFDC64;" d="M347.19,122.052c-4.24-1.018-7.408-4.409-7.998-8.567c-2.456-17.292-8.947-62.991-12.552-88.37
	c-0.412-2.898-4.594-2.887-5.006,0.011l-12.551,88.359c-0.59,4.157-3.73,7.543-7.97,8.561c-11.351,2.725-33.835,8.122-46.96,11.272
	c-2.576,0.618-2.576,4.267,0,4.886c13.125,3.15,35.608,8.545,46.959,11.268c4.24,1.017,7.381,4.404,7.972,8.562l12.515,88.103
	c0.418,2.939,4.662,2.939,5.079,0l12.515-88.105c0.591-4.157,3.731-7.544,7.971-8.562c11.341-2.722,33.794-8.11,46.923-11.261
	c2.585-0.62,2.551-4.29-0.034-4.91L347.19,122.052z"/>
<path style="fill:#FFF082;" d="M422.742,389.155c-3.392-0.827-5.926-3.582-6.398-6.96c-1.858-13.288-6.605-47.223-9.554-68.309
	c-0.405-2.896-4.582-2.846-4.987,0.05l-9.547,68.258c-0.473,3.377-2.984,6.129-6.376,6.956c-8.56,2.087-25.035,6.103-35.692,8.701
	c-2.566,0.625-2.566,4.259,0,4.884c10.656,2.597,27.13,6.613,35.691,8.698c3.393,0.826,5.905,3.578,6.378,6.956l9.546,68.255
	c0.405,2.896,4.589,2.896,4.995,0l9.546-68.256c0.472-3.378,2.985-6.13,6.377-6.956c8.56-2.086,25.033-6.102,35.689-8.699
	c2.566-0.625,2.535-4.267-0.031-4.892L422.742,389.155z"/>
<path style="fill:#EBAF4B;" d="M167.153,480.037l16.956-124.346c-18.386-37.283-31.98-75.965-40.54-103.51l-2.334,17.115
	c-0.886,6.495-5.595,11.786-11.955,13.377c-17.691,4.424-53.414,13.355-72.682,18.173c-3.4,0.85-3.4,5.663,0,6.513
	c19.268,4.817,54.988,13.746,72.679,18.167c6.361,1.59,11.072,6.882,11.958,13.378l19.246,141.134
	C161.011,483.92,166.624,483.92,167.153,480.037z"/>
<path style="fill:#FFC850;" d="M310.21,105.55l-1.127,7.935c-0.59,4.157-3.73,7.543-7.97,8.561
	c-11.35,2.725-33.835,8.121-46.96,11.272c-2.576,0.618-2.576,4.267,0,4.886c13.125,3.15,35.608,8.545,46.959,11.268
	c4.24,1.017,7.381,4.404,7.972,8.562l12.515,88.103c0.417,2.939,4.662,2.939,5.08,0l11.199-78.844
	C323.207,146.299,314.847,123.3,310.21,105.55z"/>
<path style="fill:#FFDC64;" d="M392.257,418.39l9.546,68.255c0.405,2.896,4.589,2.896,4.994,0l8.946-63.961
	c-13.432-14.868-19.872-32.634-22.881-44.825l-0.606,4.334c-0.473,3.377-2.984,6.129-6.376,6.956
	c-8.56,2.087-25.035,6.103-35.691,8.701c-2.566,0.625-2.566,4.259,0,4.884c10.656,2.598,27.13,6.613,35.69,8.699
	C389.272,412.26,391.784,415.011,392.257,418.39z"/>
<path d="M285.878,296.821l-85.664-21.416c-3.403-0.851-5.909-3.646-6.384-7.122l-7.278-53.384c-0.56-4.105-4.356-6.977-8.444-6.418
	c-4.104,0.56-6.979,4.34-6.419,8.444l7.279,53.385c1.308,9.588,8.22,17.3,17.608,19.647l56.56,14.14l-56.599,14.149
	c-9.365,2.341-16.262,10.05-17.569,19.64l-15.15,111.104l-15.15-111.1c-1.308-9.59-8.205-17.299-17.571-19.641l-56.601-14.148
	l56.604-14.152c9.363-2.342,16.259-10.051,17.566-19.639l15.15-111.107l3.499,25.662c0.561,4.104,4.349,6.979,8.445,6.417
	c4.104-0.56,6.978-4.34,6.418-8.445l-10.931-80.156c-0.507-3.716-3.681-6.487-7.432-6.487c-3.75,0-6.925,2.771-7.432,6.487
	l-22.582,165.602c-0.474,3.477-2.964,6.27-6.343,7.114L41.75,296.826c-3.339,0.835-5.681,3.835-5.681,7.276s2.342,6.441,5.681,7.276
	l85.707,21.424c3.38,0.845,5.871,3.638,6.345,7.115l22.581,165.597c0.507,3.716,3.681,6.486,7.432,6.486s6.925-2.771,7.432-6.486
	l22.582-165.6c0.474-3.478,2.964-6.27,6.344-7.114l85.703-21.426c3.339-0.835,5.681-3.835,5.681-7.276
	S289.217,297.656,285.878,296.821z"/>
<path d="M348.913,156.764l57.136-13.712c3.372-0.81,5.75-3.825,5.75-7.293s-2.378-6.483-5.75-7.293L348.94,114.76
	c-1.233-0.296-2.167-1.232-2.322-2.328L331.564,6.445C331.038,2.748,327.872,0,324.138,0s-6.9,2.748-7.426,6.445l-9.109,64.13
	c-0.582,4.101,2.271,7.897,6.371,8.48c4.088,0.581,7.897-2.27,8.48-6.371l1.684-11.853l7.628,53.709
	c1.03,7.247,6.397,13.058,13.674,14.804l26.721,6.413l-26.747,6.419c-7.262,1.743-12.618,7.552-13.646,14.8l-7.629,53.709
	l-7.629-53.708c-1.03-7.248-6.387-13.058-13.648-14.8l-26.748-6.419l26.752-6.421c7.258-1.743,12.614-7.551,13.645-14.799
	l1.391-9.792c0.582-4.101-2.271-7.898-6.371-8.48c-4.09-0.58-7.897,2.27-8.48,6.371l-1.391,9.792
	c-0.158,1.115-1.059,2.027-2.295,2.323l-57.139,13.715c-3.372,0.81-5.75,3.825-5.75,7.293s2.378,6.483,5.75,7.293l57.138,13.711
	c1.236,0.297,2.138,1.209,2.296,2.324l15.055,105.981c0.525,3.697,3.691,6.445,7.426,6.445s6.9-2.748,7.426-6.445l15.055-105.984
	C346.776,157.972,347.677,157.061,348.913,156.764z"/>
<path d="M470.206,393.004l-45.688-11.137c-0.4-0.098-0.7-0.384-0.746-0.712l-12.043-86.113c-0.519-3.704-3.687-6.461-7.428-6.461
	c-3.74,0-6.909,2.757-7.428,6.461l-12.044,86.112c-0.047,0.335-0.331,0.612-0.725,0.709l-45.712,11.143
	c-3.359,0.819-5.724,3.829-5.724,7.287s2.364,6.468,5.724,7.287l45.712,11.141c0.394,0.096,0.678,0.374,0.725,0.708
	c0.573,4.103,4.381,6.955,8.467,6.389c4.103-0.574,6.963-4.365,6.389-8.467c-0.904-6.462-5.627-11.645-12.03-13.204l-15.815-3.854
	l15.817-3.855c6.402-1.56,11.124-6.742,12.028-13.203l4.616-33.004l4.615,33.004c0.904,6.46,5.635,11.645,12.05,13.208l15.793,3.85
	l-15.814,3.854c-6.403,1.561-11.124,6.743-12.028,13.204l-4.615,33.004l-0.421-3.007c-0.574-4.102-4.362-6.957-8.467-6.389
	c-4.103,0.574-6.963,4.364-6.389,8.467l7.849,56.114c0.519,3.704,3.688,6.461,7.428,6.461c3.741,0,6.909-2.757,7.428-6.461
	l12.043-86.111c0.047-0.335,0.332-0.613,0.725-0.709l45.71-11.141c3.359-0.819,5.724-3.829,5.724-7.287
	S473.565,393.823,470.206,393.004z"/>
<g>
</g>
<g>
</g>
<g>
</g>
<g>
</g>
<g>
</g>
<g>
</g>
<g>
</g>
<g>
</g>
<g>
</g>
<g>
</g>
<g>
</g>
<g>
</g>
<g>
</g>
<g>
</g>
<g>
</g>
</svg>
