<svg id="Layer_5" enable-background="new 0 0 64 64" height="512" viewBox="0 0 64 64" width="512" xmlns="http://www.w3.org/2000/svg"><g><g><path d="m8 58v2h-6v-12h8v2h2v8z" fill="#ffeaa7"/><path d="m62 48v12h-8v-2h-2v-8h4v-2z" fill="#ffeaa7"/><g fill="#fcd770"><path d="m12 50h4v8h-4z"/><path d="m38 50h6v8h-6z"/><path d="m32 50h6v8h-6z"/><path d="m26 50h6v8h-6z"/><path d="m20 50h6v8h-6z"/><path d="m48 50h4v8h-4z"/></g><path d="m54 60v2h-46v-2-2h4 4 4 6 6 6 6 4 4 2z" fill="#969faa"/><path d="m16 46v4h-4-2v-2-2z" fill="#969faa"/><path d="m44 46v4h-6-6-6-6v-4h8 8z" fill="#969faa"/><path d="m56 48v2h-4-4v-4h8z" fill="#969faa"/><path d="m20 50v8h-4v-8-4-9.58c1.2.29 2.54.56 4 .78v.8 8z" fill="#aab2bd"/><path d="m48 50v8h-4v-8-4-8-.8c1.46-.22 2.8-.49 4-.78v9.58z" fill="#aab2bd"/><path d="m38 7v2c0 .55-.45 1-1 1h-3-4-3c-.55 0-1-.45-1-1v-2c0-.55.45-1 1-1h3 4 3c.55 0 1 .45 1 1z" fill="#fcd770"/><path d="m34 3v3h-4v-3c0-.55.45-1 1-1h2c.55 0 1 .45 1 1z" fill="#ffeaa7"/><path d="m30 10h4v8h-4z" fill="#ffeaa7"/><path d="m27.17 22.13.83-4.13h2 4 2l.84 4.18 1.16 5.82h-12z" fill="#fcd770"/><path d="m48 36.42c-1.2.29-2.54.56-4 .78-2.38.35-5.09.61-8.07.72-1.26.05-2.57.08-3.93.08s-2.67-.03-3.93-.08c-2.98-.11-5.69-.37-8.07-.72-1.46-.22-2.8-.49-4-.78-4.44-1.1-7-2.67-7-4.42v-4c0 3.31 10.3 6 23 6s23-2.69 23-6v4c0 1.75-2.56 3.32-7 4.42z" fill="#ccd1d9"/><path d="m21.37 22.68c1.8-.25 3.75-.43 5.8-.55l-1.17 5.87h12l-1.16-5.82.18-.04c1.98.12 3.86.3 5.61.54 7.35 1 12.37 3.01 12.37 5.32 0 3.31-10.3 6-23 6s-23-2.69-23-6c0-2.32 5.02-4.32 12.37-5.32z" fill="#e6e9ed"/></g><path d="m63 47h-6v-2h-8v-7.826c4.215-1.146 7-2.851 7-5.174v-4c0-3.245-5.943-5.234-12.639-6.22l-3.424-9.132-1.873.703 3.051 8.137c-1.157-.13-2.317-.232-3.459-.307l-.836-4.181h-1.82v-6h2c1.103 0 2-.897 2-2v-2c0-1.103-.897-2-2-2h-2v-2c0-1.103-.897-2-2-2h-2c-1.103 0-2 .897-2 2v2h-2c-1.103 0-2 .897-2 2v2c0 1.103.897 2 2 2h2v6h-1.82l-.836 4.181c-1.143.075-2.304.177-3.459.307l3.051-8.136-1.873-.703-3.424 9.13c-6.716.984-12.639 2.971-12.639 6.221v4c0 2.323 2.785 4.028 7 5.174v7.826h-6v2h-8v14h6v2h48v-2h8zm-8 0v2h-6v-2zm-6 10v-6h2v6zm-2 0h-2v-18.967c.689-.115 1.356-.242 2-.378zm-26-8v-2h22v2zm0-8.586 1.586 1.586-1.586 1.586zm22 3.172-1.586-1.586 1.586-1.586zm-1.414 1.414h-3.172l1.586-1.586zm-5.586-.414-2.586-2.586 2.586-2.586 2.586 2.586zm-2.414.414h-3.172l1.586-1.586zm-5.586-.414-2.586-2.586 2.586-2.586 2.586 2.586zm-2.414.414h-3.172l1.586-1.586zm14.414-4.414-1.789-1.789c1.346-.09 2.665-.209 3.938-.36zm-8 0-1.601-1.601c.534.009 1.067.015 1.601.015s1.067-.006 1.601-.015zm-8 0-2.149-2.149c1.273.151 2.592.271 3.938.36zm-3 10.414h4v6h-4zm6 0h4v6h-4zm6 0h4v6h-4zm6 0h4v6h-4zm-8-48h2v2h-2zm-4 4h10l.001 2h-10.001zm4 4h2v6h-2zm4.18 8 1.6 8h-9.56l1.6-8zm-15.342 4.917-1.774 4.731 1.873.703 2.159-5.757c1.195-.151 2.476-.278 3.841-.376l-1.157 5.782h14.44l-1.156-5.78c1.365.098 2.646.225 3.841.377l2.158 5.755 1.873-.703-1.773-4.727c6.451 1.074 9.837 2.852 9.837 4.078 0 2.039-8.57 5-22 5s-22-2.961-22-5c0-1.234 3.383-3.01 9.838-4.083zm-9.838 8.083v-1.019c3.914 2.648 12.997 4.019 22 4.019s18.086-1.371 22-4.019v1.019c0 2.097-7.646 5-22 5s-22-2.903-22-5zm9 6.033v18.967h-2v-19.345c.644.136 1.311.263 2 .378zm-4 12.967v6h-2v-6zm-4-4h4v2h-4zm-8 12v-10h6v2h2v6h-4v2zm50 2h-44v-2h44zm8-2h-6v-2h-2v-6h4v-2h4z"/></g></svg>