<svg id="Layer_5" enable-background="new 0 0 64 64" height="512" viewBox="0 0 64 64" width="512" xmlns="http://www.w3.org/2000/svg"><g><g><path d="m22 25c0 .41.08.8.23 1.16-3.04.88-5.4 1.97-6.79 3.21-.43-.24-.92-.37-1.44-.37-1.66 0-3 1.34-3 3s1.34 3 3 3c.52 0 1.01-.13 1.44-.37 2.78 2.46 9.35 4.37 17.56 5.08 1.61.14 3.28.23 5 .27v.02c0 1.66 1.34 3 3 3s3-1.34 3-3c0-.03 0-.06-.01-.09h.01c7.57-.36 14.07-1.73 18-3.64v12.04c-1.28.48-2.63.92-4.02 1.32h-.01c-.17-1.48-1.43-2.63-2.97-2.63-1.66 0-3 1.34-3 3 0 .33.05.65.16.95-3.82.68-7.91 1.05-12.16 1.05-.12 0-.24 0-.36 0-2.3-.01-4.53-.13-6.71-.35.05-.21.07-.43.07-.65 0-1.66-1.34-3-3-3-1.59 0-2.89 1.23-2.99 2.8-7.11-1.36-13.23-3.81-17.64-6.96.39-.51.63-1.15.63-1.84 0-1.66-1.34-3-3-3-.78 0-1.49.3-2.02.79v-.01c-1.92-2.39-2.98-5.02-2.98-7.78 0-5.62 4.41-10.7 11.5-14.34.54.81 1.45 1.34 2.5 1.34 1.66 0 3-1.34 3-3 0-.22-.02-.44-.07-.65 5.94-2.08 13.05-3.31 20.71-3.35l.01.01c-3.11 3.46-5.42 7.65-6.64 12.28h-.01c-1.75.15-3.42.36-5 .61h-.01c-.04-1.61-1.36-2.9-2.99-2.9-1.66 0-3 1.34-3 3z" fill="#ffeaa7"/><path d="m57.98 49.63c1.39-.4 2.74-.84 4.02-1.32v13.69c-8.88 0-16.87-3.86-22.36-10h.36c4.25 0 8.34-.37 12.16-1.05.39 1.19 1.51 2.05 2.84 2.05 1.66 0 3-1.34 3-3 0-.12-.01-.25-.03-.37z" fill="#cf9e76"/><path d="m39.65 12.01c-3.11 3.46-5.42 7.65-6.64 12.28-.66 2.46-1.01 5.04-1.01 7.71 0 2.66.35 5.25 1 7.71 1.61.14 3.28.23 5 .27.01-1.65 1.35-2.98 3-2.98 1.63 0 2.95 1.29 2.99 2.91h.01c7.57-.36 14.07-1.73 18-3.64v-34.27c-8.89 0-16.87 3.86-22.35 10.01z" fill="#cf9e76"/><circle cx="38" cy="28" fill="#b27946" r="2"/><circle cx="50" cy="30" fill="#b27946" r="2"/><circle cx="49" cy="18" fill="#b27946" r="2"/><circle cx="59" cy="9" fill="#b27946" r="3"/><g fill="#fcd770"><path d="m18.93 15.35c.05.21.07.43.07.65 0 1.66-1.34 3-3 3-1.05 0-1.96-.53-2.5-1.34-.31-.48-.5-1.05-.5-1.66 0-1.66 1.34-3 3-3 1.44 0 2.64 1.01 2.93 2.35z"/><path d="m27.99 24.9c.01.03.01.07.01.1 0 1.66-1.34 3-3 3-1.25 0-2.32-.76-2.77-1.84-.15-.36-.23-.75-.23-1.16 0-1.66 1.34-3 3-3 1.63 0 2.95 1.29 2.99 2.9z"/><path d="m15.44 29.37c.93.51 1.56 1.49 1.56 2.63s-.63 2.12-1.56 2.63c-.43.24-.92.37-1.44.37-1.66 0-3-1.34-3-3s1.34-3 3-3c.52 0 1.01.13 1.44.37z"/><path d="m10 42c0 .69-.24 1.33-.63 1.84-.55.71-1.4 1.16-2.37 1.16-1.66 0-3-1.34-3-3 0-.88.38-1.67.98-2.21.53-.49 1.24-.79 2.02-.79 1.66 0 3 1.34 3 3z"/><path d="m33 51c0 .22-.02.44-.07.65-.29 1.34-1.49 2.35-2.93 2.35-1.66 0-3-1.34-3-3 0-.07 0-.13.01-.2.1-1.57 1.4-2.8 2.99-2.8 1.66 0 3 1.34 3 3z"/><path d="m43.99 39.91c.01.03.01.06.01.09 0 1.66-1.34 3-3 3s-3-1.34-3-3c0-.01 0-.01 0-.02.01-1.65 1.35-2.98 3-2.98 1.63 0 2.95 1.29 2.99 2.91z"/><path d="m58 50c0 1.66-1.34 3-3 3-1.33 0-2.45-.86-2.84-2.05-.11-.3-.16-.62-.16-.95 0-1.66 1.34-3 3-3 1.54 0 2.8 1.15 2.97 2.63.02.12.03.25.03.37z"/></g></g><g><path d="m62 1c-9.003 0-17.12 3.861-22.788 10.011-7.01.074-13.786 1.146-19.705 3.104-.677-1.252-1.986-2.115-3.507-2.115-2.206 0-4 1.794-4 4 0 .43.086.836.212 1.224-7.233 3.932-11.212 9.151-11.212 14.776 0 2.688.917 5.286 2.705 7.74-.443.643-.705 1.421-.705 2.26 0 2.206 1.794 4 4 4 .942 0 1.797-.341 2.481-.887 4.35 2.936 10.044 5.173 16.582 6.508.301 1.91 1.944 3.379 3.937 3.379 1.593 0 2.96-.943 3.603-2.294 1.843.162 3.712.253 5.586.274 5.863 6.369 14.148 10.02 22.811 10.02h1v-62zm-1 2.017v2.54c-.591-.345-1.268-.557-2-.557-2.206 0-4 1.794-4 4s1.794 4 4 4c.732 0 1.409-.212 2-.556v23.181c-3.781 1.689-9.593 2.85-16.186 3.234-.495-1.648-2.008-2.859-3.814-2.859-1.839 0-3.375 1.254-3.841 2.946-1.136-.039-2.255-.1-3.352-.185-.527-2.204-.807-4.473-.807-6.761 0-15.656 12.471-28.454 28-28.983zm0 5.983c0 1.103-.897 2-2 2s-2-.897-2-2 .897-2 2-2 2 .897 2 2zm-18 31c0 1.103-.897 2-2 2s-2-.897-2-2 .897-2 2-2 2 .897 2 2zm-27-8c0 1.103-.897 2-2 2s-2-.897-2-2 .897-2 2-2 2 .897 2 2zm1.035-2.576c1.163-.758 2.769-1.463 4.74-2.079.728.998 1.898 1.655 3.225 1.655 1.938 0 3.556-1.386 3.921-3.218.906-.134 1.836-.249 2.786-.349-.459 2.117-.707 4.313-.707 6.567 0 2.218.247 4.42.711 6.569-6.424-.681-11.818-2.129-14.675-3.996.593-.697.964-1.588.964-2.573 0-.986-.372-1.878-.965-2.576zm5.965-4.424c0-1.103.897-2 2-2s2 .897 2 2-.897 2-2 2-2-.897-2-2zm-7-11c1.103 0 2 .897 2 2s-.897 2-2 2-2-.897-2-2 .897-2 2-2zm-9 30c-1.103 0-2-.897-2-2s.897-2 2-2 2 .897 2 2-.897 2-2 2zm23 9c-1.103 0-2-.897-2-2s.897-2 2-2 2 .897 2 2-.897 2-2 2zm0-6c-1.718 0-3.174 1.094-3.739 2.619-6.149-1.277-11.489-3.37-15.564-6.099.193-.47.303-.982.303-1.52 0-2.206-1.794-4-4-4-.641 0-1.239.166-1.776.435-1.472-2.067-2.224-4.228-2.224-6.435 0-4.885 3.65-9.51 10.282-13.083.715.667 1.666 1.083 2.718 1.083 2.185 0 3.961-1.763 3.994-3.941 5.269-1.76 11.258-2.79 17.496-3.007-2.357 3.041-4.158 6.529-5.258 10.315-1.176.112-2.324.251-3.442.413-.519-1.607-2.012-2.78-3.79-2.78-2.206 0-4 1.794-4 4 0 .163.029.318.048.476-2.487.787-4.426 1.708-5.783 2.748-.4-.134-.82-.224-1.265-.224-2.206 0-4 1.794-4 4s1.794 4 4 4c.448 0 .871-.091 1.273-.227 3.749 2.858 12.133 4.846 21.852 5.173.428 1.749 1.997 3.054 3.875 3.054 1.911 0 3.508-1.349 3.902-3.143 6.385-.371 12.105-1.463 16.098-3.062v9.805c-.763.273-1.548.531-2.352.775-.625-1.396-2.022-2.375-3.648-2.375-2.206 0-4 1.794-4 4 0 .043.011.082.013.124-5.472.882-11.361 1.095-17.039.612-.139-2.081-1.859-3.736-3.974-3.736zm27 3c0 1.103-.897 2-2 2s-2-.897-2-2 .897-2 2-2 2 .897 2 2zm-15.029 2.958c3.279-.087 6.5-.387 9.615-.904.701 1.161 1.962 1.946 3.414 1.946 2.079 0 3.773-1.6 3.963-3.631.693-.206 1.371-.423 2.037-.651v11.264c-7.117-.246-13.895-3.122-19.029-8.024z"/><path d="m48 18c0-.552.449-1 1-1v-2c-1.654 0-3 1.346-3 3s1.346 3 3 3 3-1.346 3-3h-2c0 .552-.449 1-1 1s-1-.448-1-1z"/><path d="m38 31c1.654 0 3-1.346 3-3s-1.346-3-3-3-3 1.346-3 3 1.346 3 3 3zm0-4c.551 0 1 .448 1 1s-.449 1-1 1-1-.448-1-1 .449-1 1-1z"/><path d="m50 27c-1.654 0-3 1.346-3 3s1.346 3 3 3v-2c-.551 0-1-.448-1-1s.449-1 1-1 1 .448 1 1h2c0-1.654-1.346-3-3-3z"/><path d="m53.346 8.538-.692-1.877c-.695.257-1.394.548-2.077.867l.847 1.812c.632-.295 1.279-.565 1.922-.802z"/><path d="m49.501 10.344-1.002-1.73c-4.821 2.789-8.615 6.926-10.97 11.963l1.812.848c2.18-4.666 5.694-8.497 10.16-11.081z"/><path d="m57 29h2v2h-2z"/><path d="m57 25h2v2h-2z"/><path d="m57 33h2v2h-2z"/></g></g></svg>