<svg id="Layer_5" enable-background="new 0 0 64 64" height="512" viewBox="0 0 64 64" width="512" xmlns="http://www.w3.org/2000/svg"><g><g><path d="m40 14v2h-7c0-1.1-.9-2-2-2h-7v-8h20v4h-4z" fill="#aab2bd"/><path d="m33 20h7v2h-1c-1.1 0-2 .9-2 2v4c0 1.1.9 2 2 2h1v4.39c0 1.44-.36 2.83-1.02 4.06s-1.62 2.31-2.81 3.1c-1.42.95-3.08 1.45-4.78 1.45h-3.39c-.07 0-.13 0-.2 0-1.33.04-2.58.39-3.67 1h-8.13c0-3.56-1.61-6.81-4.2-9h.2 3.39c1.7 0 3.36-.5 4.78-1.45 1.19-.79 2.15-1.87 2.81-3.1s1.02-2.62 1.02-4.06v-4.39h7c1.1 0 2-.9 2-2z" fill="#aab2bd"/><path d="m16 44h8.13c-1.6.88-2.86 2.3-3.55 4h-16.58v-5c0-4.35 3.47-7.89 7.8-8 2.59 2.19 4.2 5.44 4.2 9z" fill="#ccd1d9"/><path d="m4 48h16.58c-.37.93-.58 1.94-.58 3v3h-16c-1.1 0-2-.9-2-2v-2c0-1.1.9-2 2-2z" fill="#cf9e76"/><path d="m24 2h20v4h-20z" fill="#e6e9ed"/><path d="m60 10v4h-20v-4h4z" fill="#e6e9ed"/><path d="m60 14v10h-11c0-1.1-.9-2-2-2h-7v-2-4-2z" fill="#aab2bd"/><path d="m60 28v24h-28c0-3.56-1.61-6.81-4.2-9h.2 3.39c1.7 0 3.36-.5 4.78-1.45 1.19-.79 2.15-1.87 2.81-3.1s1.02-2.62 1.02-4.06v-4.39h7c1.1 0 2-.9 2-2z" fill="#aab2bd"/><path d="m60 52v4h-40v-2-3c0-1.06.21-2.07.58-3 .69-1.7 1.95-3.12 3.55-4 1.09-.61 2.34-.96 3.67-1 2.59 2.19 4.2 5.44 4.2 9z" fill="#ccd1d9"/><path d="m62 58v2c0 1.1-.9 2-2 2h-14l-2-2h-10v2h-14c-1.1 0-2-.9-2-2v-2c0-1.1.9-2 2-2h40c1.1 0 2 .9 2 2z" fill="#cf9e76"/><path d="m33 16h7v4h-7z" fill="#ffeaa7"/><path d="m49 24h11v4h-11z" fill="#ffeaa7"/><path d="m33 16v4c0 1.1-.9 2-2 2h-7-1c-1.1 0-2-.9-2-2v-4c0-1.1.9-2 2-2h1 7c1.1 0 2 .9 2 2z" fill="#fcd770"/><path d="m49 28c0 1.1-.9 2-2 2h-7-1c-1.1 0-2-.9-2-2v-4c0-1.1.9-2 2-2h1 7c1.1 0 2 .9 2 2z" fill="#fcd770"/><g fill="#69d6f4"><path d="m55 41c0 3.31-2.69 6-6 6-.81 0-1.58-.16-2.29-.45 1.34-.86 2.84-2.08 4.3-3.54s2.68-2.96 3.54-4.3c.29.71.45 1.48.45 2.29z"/><path d="m51.28 35.45c1.47.61 2.66 1.79 3.27 3.26-.86 1.34-2.08 2.84-3.54 4.3s-2.96 2.68-4.3 3.54c-1.47-.61-2.65-1.8-3.26-3.27-.29-.7-.45-1.47-.45-2.28 0-3.31 2.69-6 6-6 .81 0 1.58.16 2.28.45z"/></g></g><g><path d="m61 55.184v-46.184h-16v-8h-22v12c-1.654 0-3 1.346-3 3v4c0 1.654 1.346 3 3 3v3.395c0 2.549-1.266 4.915-3.387 6.328-1.253.836-2.712 1.277-4.218 1.277h-3.395c-4.962 0-9 4.037-9 9v4.184c-1.161.414-2 1.514-2 2.816v2c0 1.654 1.346 3 3 3h15v.184c-1.161.414-2 1.514-2 2.816v2c0 1.654 1.346 3 3 3h15v-2h8.586l2 2h14.414c1.654 0 3-1.346 3-3v-2c0-1.302-.839-2.402-2-2.816zm-33.575-11.155c2.27 2.034 3.575 4.912 3.575 7.971v1h28v2h-38v-4c0-3.665 2.834-6.677 6.425-6.971zm11.575-27.029v2h-5v-2zm20 10h-9v-2h9zm0-4h-9.184c-.414-1.161-1.514-2-2.816-2h-6v-6h18zm-12 0c.551 0 1 .448 1 1v1 2 1c0 .552-.449 1-1 1h-8c-.551 0-1-.448-1-1v-4c0-.552.449-1 1-1zm-6 8h6c1.302 0 2.402-.839 2.816-2h9.184v22h-26.039c-.202-2.578-1.182-5.011-2.796-7h1.229c1.903 0 3.745-.558 5.328-1.613 2.679-1.785 4.278-4.773 4.278-7.992zm18-18h-18v-2h18zm-16-10v2h-18v-2zm-18 4h18v2h-4v6h-5.184c-.414-1.161-1.514-2-2.816-2h-6zm-3 13v-4c0-.552.449-1 1-1h8c.551 0 1 .448 1 1v1 2 1c0 .552-.449 1-1 1h-8c-.551 0-1-.448-1-1zm-1.277 14.387c2.678-1.785 4.277-4.773 4.277-7.992v-3.395h6c1.302 0 2.402-.839 2.816-2h5.184c-1.654 0-3 1.346-3 3v4c0 1.654 1.346 3 3 3v3.395c0 2.549-1.266 4.915-3.387 6.328-1.253.836-2.712 1.277-4.218 1.277h-3.395c-1.479 0-2.872.365-4.104 1h-6.935c-.202-2.578-1.182-5.011-2.796-7h1.229c1.903 0 3.746-.558 5.329-1.613zm-9.298 1.642c2.27 2.034 3.575 4.912 3.575 7.971v1h6.311c-.539.6-.998 1.271-1.361 2h-14.95v-4c0-3.665 2.834-6.677 6.425-6.971zm-7.425 16.971c-.551 0-1-.448-1-1v-2c0-.552.449-1 1-1h15.232c-.147.644-.232 1.312-.232 2v2zm57 7c0 .552-.449 1-1 1h-13.586l-2-2h-11.414v2h-13c-.551 0-1-.448-1-1v-2c0-.552.449-1 1-1h40c.551 0 1 .448 1 1z"/><path d="m41.59 48.41c.419.419.956.601 1.569.601 1.068 0 2.368-.554 3.679-1.356.682.221 1.407.345 2.162.345 3.86 0 7-3.141 7-7 0-.756-.124-1.483-.347-2.166 1.262-2.063 1.906-4.096.757-5.245-.987-.988-2.797-.712-5.234.761-.686-.224-1.416-.35-2.176-.35-3.86 0-7 3.141-7 7 0 .76.126 1.49.351 2.176-1.474 2.437-1.748 4.247-.761 5.234zm7.602-2.429c.943-.757 1.817-1.554 2.526-2.263s1.506-1.584 2.263-2.527c-.101 2.601-2.188 4.689-4.789 4.79zm5.786-11.001c.1.207-.018.824-.451 1.739-.362-.466-.78-.884-1.246-1.246 1.078-.509 1.62-.515 1.697-.493zm-5.978 1.02c1.905 0 3.545 1.083 4.388 2.655-.728 1.06-1.729 2.294-3.085 3.649-1.354 1.354-2.586 2.357-3.643 3.088-1.574-.843-2.66-2.485-2.66-4.392 0-2.757 2.243-5 5-5zm-4.265 10.538c-.912.442-1.52.57-1.713.481-.052-.107-.055-.657.452-1.738.366.471.789.893 1.261 1.257z"/><path d="m22.941 37.715c2.983-1.988 5.031-5.01 5.767-8.509l-1.957-.412c-.627 2.983-2.375 5.561-4.919 7.257-1.195.797-2.508 1.359-3.901 1.671l.437 1.951c1.633-.365 3.173-1.024 4.573-1.958z"/><path d="m29 26.395v-1.38h-2v1.38c0 .187-.004.373-.013.56l1.998.092c.01-.217.015-.435.015-.652z"/></g></g></svg>