<svg id="Layer_5" enable-background="new 0 0 64 64" height="512" viewBox="0 0 64 64" width="512" xmlns="http://www.w3.org/2000/svg"><g><g><path d="m62 10v44h-6v-9-4-.89-13.11-17z" fill="#ccd1d9"/><path d="m28 35v8.2l-.1.26-11.9-4.46v-4-6-4l11.9-4.46.1.26z" fill="#ccd1d9"/><path d="m9 25c-.34 0-.68.02-1 .08v3.92 6 3.92c.32.06.66.08 1 .08h7v-4-6-4z" fill="#a0d468"/><path d="m8 35v3.92c-1.54-.21-2.9-.92-3.95-1.97-1.27-1.27-2.05-3.01-2.05-4.95 0-3.53 2.6-6.44 6-6.92v3.92z" fill="#b4dd7f"/><path d="m27.9 20.54.1 22.66 28 10.8v-44z" fill="#69d6f4"/><path d="m34 40v5l-.25.66-5.85-2.2.1-.26v-8.2h2c2.21 0 4 1.79 4 4z" fill="#d3a06c"/><g fill="#fcd770"><path d="m56 40.11v.89 4h-22v-5h11l1.51-2.52c.47-.77 1.11-1.39 1.87-1.82.38-.21.78-.38 1.2-.49s.86-.17 1.31-.17c2.82 0 5.11 2.29 5.11 5.11z"/><path d="m48 19c4.42 0 8 3.58 8 8 0 3.9-2.79 7.14-6.48 7.86-.49.09-1 .14-1.52.14-4.42 0-8-3.58-8-8s3.58-8 8-8z"/></g></g><g><path d="m15.818 24h-6.818c-4.411 0-8 3.589-8 8s3.589 8 8 8h6.818l39.83 14.937.17.063h7.182v-46h-7.182zm-6.818 6h6v4h-6zm8-4.307 10-3.75v20.114l-10-3.75zm12 10.307h1c1.654 0 3 1.346 3 3v5.307l-4-1.5zm26 16.557-17.485-6.557h17.485zm0-8.557h-20v-3h10.566l1.803-3.006c.738-1.229 2.089-1.994 3.523-1.994 2.265 0 4.108 1.843 4.108 4.108v.892zm0-8.399c-.554-.506-1.199-.91-1.911-1.186.72-.495 1.363-1.093 1.911-1.771zm-7-1.601c-3.859 0-7-3.141-7-7s3.141-7 7-7 7 3.141 7 7-3.141 7-7 7zm0-16c-4.963 0-9 4.037-9 9 0 4.455 3.257 8.154 7.512 8.866-.323.331-.616.695-.858 1.098l-1.22 2.036h-9.434c0-2.757-2.243-5-5-5h-1v-12.807l26-9.75v9.912c-1.651-2.043-4.174-3.355-7-3.355zm-33 8v2h-6v-2zm-12 6c0-2.607 1.673-4.824 4-5.65v11.3c-2.327-.826-4-3.043-4-5.65zm6 4h6v2h-6zm52 17h-4v-12-.892-29.108h4z"/><path d="m59 5h2v2h-2z"/><path d="m43 5h14v2h-14z"/><path d="m31 14h2v2h-2z"/><path d="m21 14h8v2h-8z"/><path d="m31 48h2v2h-2z"/><path d="m21 48h8v2h-8z"/><path d="m61 1h2v2h-2z"/><path d="m45 1h14v2h-14z"/><path d="m59 57h2v2h-2z"/><path d="m43 57h14v2h-14z"/><path d="m61 61h2v2h-2z"/><path d="m45 61h14v2h-14z"/><path d="m5 14h2v2h-2z"/><path d="m5 18h2v2h-2z"/><path d="m7 16h2v2h-2z"/><path d="m3 16h2v2h-2z"/><path d="m15 50h2v2h-2z"/><path d="m15 54h2v2h-2z"/><path d="m17 52h2v2h-2z"/><path d="m13 52h2v2h-2z"/><path d="m35 5h2v2h-2z"/><path d="m35 9h2v2h-2z"/><path d="m37 7h2v2h-2z"/><path d="m33 7h2v2h-2z"/></g></g></svg>