<svg id="Layer_5" enable-background="new 0 0 64 64" height="512" viewBox="0 0 64 64" width="512" xmlns="http://www.w3.org/2000/svg"><g><g><path d="m2 22v4 4 4l6 4v-2-4-8-6z" fill="#aab2bd"/><path d="m56 18v6 8 4 2l6-4v-4-4-4z" fill="#aab2bd"/><path d="m14 44h8v4h-8z" fill="#838f9b"/><path d="m50 44v4h-8v-4h4z" fill="#838f9b"/><path d="m12 44c-2.21 0-4-1.79-4-4v-2-2h4 5 6 6 5 3 8 7 4v2 2c0 2.21-1.79 4-4 4v-4h-6-6-6v4h-12-8z" fill="#ccd1d9"/><path d="m46 40h-6-6v4h6 2 4 4 2v-4z" fill="#fcd770"/><path d="m52 12h-10-30c-2.21 0-4 1.79-4 4v2 6 8 4h4v-1c0-1.8.43-3.5 1.2-5 .52-1.03 1.21-1.97 2.02-2.78 1.99-1.99 4.74-3.22 7.78-3.22 1.04 0 2.05.14 3 .42v-4.42c0-2.21 1.79-4 4-4h4c2.21 0 4 1.79 4 4v6.2.01c.64-.14 1.31-.21 2-.21h1 1c5.52 0 10 4.48 10 10h4v-4-8-6-2c0-2.21-1.79-4-4-4z" fill="#69d6f4"/><path d="m42 26h-1-1c-.69 0-1.36.07-2 .21-2.18.43-4.1 1.59-5.52 3.2.11.19.22.39.32.59.77 1.5 1.2 3.2 1.2 5v1h3 8 7c0-5.52-4.48-10-10-10z" fill="#e6e9ed"/><path d="m26 20c0-2.21 1.79-4 4-4h4c2.21 0 4 1.79 4 4z" fill="#a0d468"/><path d="m38 26.2v.01c-2.18.43-4.1 1.59-5.52 3.2-1.42-2.4-3.73-4.22-6.48-4.99v-4.42h12z" fill="#b4dd7f"/><path d="m32.48 29.41c.11.19.22.39.32.59h-.01-3.79-6-6-3.79-.01c.52-1.03 1.21-1.97 2.02-2.78 1.99-1.99 4.74-3.22 7.78-3.22 1.04 0 2.05.14 3 .42 2.75.77 5.06 2.59 6.48 4.99z" fill="#fcd770"/><path d="m32.8 30h-.01-3.79-6-6-3.79-.01c-.77 1.5-1.2 3.2-1.2 5v1h5 6 6 5v-1c0-1.8-.43-3.5-1.2-5z" fill="#ffeaa7"/></g><g><path d="m57 16c0-2.757-2.243-5-5-5h-40c-2.757 0-5 2.243-5 5v1.465l-6 4v3.814 5.441 3.814l6 4v1.466c0 2.757 2.243 5 5 5h1v4h10v-4h18v4h10v-4h1c2.757 0 5-2.243 5-5v-1.465l6-4v-3.814-5.441-3.814l-6-4zm0 9.387 4 1.334v2.559l-4 1.334zm-45-12.387h40c1.654 0 3 1.346 3 3v19h-2.051c-.348-3.838-2.675-7.106-5.949-8.786v-9.214h-2v8.426c-.645-.183-1.312-.313-2-.376v-10.05h-2v10h-1c-.336 0-.669.023-1 .054v-5.054c0-2.757-2.243-5-5-5h-4c-2.757 0-5 2.243-5 5v3.181c-.652-.11-1.317-.181-2-.181-6.617 0-12 5.383-12 12h-2v-19c0-1.654 1.346-3 3-3zm15 8h10v4.433c-1.62.46-3.123 1.278-4.383 2.42-1.409-1.89-3.355-3.349-5.617-4.152zm.184-2c.414-1.161 1.514-2 2.816-2h4c1.302 0 2.402.839 2.816 2zm3.797 10h-15.962c1.827-2.423 4.719-4 7.981-4s6.154 1.577 7.981 4zm-17.14 2h2.159v4h-3c0-1.422.303-2.774.841-4zm4.159 0h4v4h-4zm6 0h4v4h-4zm6 0h2.159c.538 1.226.841 2.578.841 4h-3zm3.697-1.409c1.169-1.148 2.617-1.95 4.191-2.33-1.11 1.921-1.749 4.821-1.868 7.74h-1.02c0-1.948-.476-3.783-1.303-5.41zm7.303-2.591c1.148 0 2.781 3.084 2.98 8h-5.96c.199-4.916 1.832-8 2.98-8zm4.98 8c-.119-2.919-.757-5.818-1.868-7.739 3.63.878 6.408 3.954 6.829 7.739zm-38.98-4.387-4-1.334v-2.559l4-1.334zm-4-8.078 4-2.667v3.411l-4 1.333zm0 10.93v-2.078l4 1.333v3.411zm18 13.535h-6v-2h6zm30-4h-4v-2h4zm-6 0h-4v-2h4zm-6 0h-4v-2h4zm10 4h-6v-2h6zm4-4.184v-3.816h-20v4h-21c-1.654 0-3-1.346-3-3v-3h46v3c0 1.302-.839 2.402-2 2.816zm8-9.351-4 2.667v-3.412l4-1.333zm0-10.93v2.078l-4-1.333v-3.411z"/><path d="m11 39h2v2h-2z"/><path d="m19 39h2v2h-2z"/><path d="m15 39h2v2h-2z"/><path d="m11 19h2v2h-2z"/><path d="m11 23h2v2h-2z"/><path d="m11 15h2v2h-2z"/><path d="m31 1h2v2h-2z"/><path d="m31 5h2v2h-2z"/><path d="m33 3h2v2h-2z"/><path d="m29 3h2v2h-2z"/><path d="m3 49h2v2h-2z"/><path d="m3 53h2v2h-2z"/><path d="m5 51h2v2h-2z"/><path d="m1 51h2v2h-2z"/><path d="m59 45h2v2h-2z"/><path d="m59 49h2v2h-2z"/><path d="m61 47h2v2h-2z"/><path d="m57 47h2v2h-2z"/><path d="m3 6h2v2h-2z"/><path d="m3 10h2v2h-2z"/><path d="m5 8h2v2h-2z"/><path d="m1 8h2v2h-2z"/><path d="m59 5h2v2h-2z"/><path d="m59 9h2v2h-2z"/><path d="m61 7h2v2h-2z"/><path d="m57 7h2v2h-2z"/><path d="m45 51h2v8h-2z"/><path d="m45 61h2v2h-2z"/><path d="m49 51h2v10h-2z"/><path d="m41 51h2v10h-2z"/><path d="m17 51h2v8h-2z"/><path d="m17 61h2v2h-2z"/><path d="m21 51h2v10h-2z"/><path d="m13 51h2v10h-2z"/></g></g></svg>