<svg id="Layer_5" enable-background="new 0 0 64 64" height="512" viewBox="0 0 64 64" width="512" xmlns="http://www.w3.org/2000/svg"><g><g><path d="m5 58h24v4h-24z" fill="#e6e9ed"/><path d="m26 23c0-1.66 1.34-3 3-3 .83 0 1.58.34 2.12.88s.88 1.29.88 2.12v3.9 9c0 1.36-.46 2.68-1.31 3.74l-2.69 3.36 1 11v4h-24v-4l1-10-2.99-4.49c-.66-.98-1.01-2.14-1.01-3.33v-10.18c0-.55.45-1 1-1 1.38 0 2.63.56 3.54 1.46.9.91 1.46 2.16 1.46 3.54v-12c0-.83.34-1.58.88-2.12s1.29-.88 2.12-.88c1.66 0 3 1.34 3 3v-4c0-.83.34-1.58.88-2.12s1.29-.88 2.12-.88c1.66 0 3 1.34 3 3v5c0-.83.34-1.58.88-2.12s1.29-.88 2.12-.88c1.66 0 3 1.34 3 3z" fill="#ffeaa7"/><path d="m35 49h24v4h-24z" fill="#e6e9ed"/><path d="m56 21c0-1.38.56-2.63 1.46-3.54.91-.9 2.16-1.46 3.54-1.46.55 0 1 .45 1 1v10.18c0 1.19-.35 2.35-1.01 3.33l-2.99 4.49 1 10v4h-24v-4l1-11-2.69-3.36c-.85-1.06-1.31-2.38-1.31-3.74v-3.9-9c0-.83.34-1.58.88-2.12s1.29-.88 2.12-.88c1.66 0 3 1.34 3 3v-4c0-1.66 1.34-3 3-3 .83 0 1.58.34 2.12.88s.88 1.29.88 2.12v-5c0-1.66 1.34-3 3-3 .83 0 1.58.34 2.12.88s.88 1.29.88 2.12v4c0-1.66 1.34-3 3-3 .83 0 1.58.34 2.12.88s.88 1.29.88 2.12z" fill="#ffeaa7"/><g fill="#69d6f4"><path d="m19.01 50.01c1.46-1.46 2.68-2.96 3.54-4.3.29.71.45 1.48.45 2.29 0 3.31-2.69 6-6 6-.81 0-1.58-.16-2.29-.45 1.34-.86 2.84-2.08 4.3-3.54z"/><path d="m19.28 42.45c1.47.61 2.66 1.79 3.27 3.26-.86 1.34-2.08 2.84-3.54 4.3s-2.96 2.68-4.3 3.54c-1.47-.61-2.65-1.8-3.26-3.27-.29-.7-.45-1.47-.45-2.28 0-3.31 2.69-6 6-6 .81 0 1.58.16 2.28.45z"/><path d="m49.01 41.01c1.46-1.46 2.68-2.96 3.54-4.3.29.71.45 1.48.45 2.29 0 3.31-2.69 6-6 6-.81 0-1.58-.16-2.29-.45 1.34-.86 2.84-2.08 4.3-3.54z"/><path d="m49.28 33.45c1.47.61 2.66 1.79 3.27 3.26-.86 1.34-2.08 2.84-3.54 4.3s-2.96 2.68-4.3 3.54c-1.47-.61-2.65-1.8-3.26-3.27-.29-.7-.45-1.47-.45-2.28 0-3.31 2.69-6 6-6 .81 0 1.58.16 2.28.45z"/></g></g><g><path d="m61 15c-1.538 0-2.937.586-4 1.54v-7.54c0-2.206-1.794-4-4-4-.732 0-1.409.212-2 .556v-.556c0-2.206-1.794-4-4-4s-4 1.794-4 4v1.556c-.591-.344-1.268-.556-2-.556-2.206 0-4 1.794-4 4v.556c-.591-.344-1.268-.556-2-.556-2.206 0-4 1.794-4 4v5.556c-.591-.344-1.268-.556-2-.556s-1.409.212-2 .556v-.556c0-2.206-1.794-4-4-4-.732 0-1.409.212-2 .556v-1.556c0-2.206-1.794-4-4-4s-4 1.794-4 4v.556c-.591-.344-1.268-.556-2-.556-2.206 0-4 1.794-4 4v7.54c-1.063-.954-2.462-1.54-4-1.54-1.103 0-2 .897-2 2v10.184c0 1.387.406 2.729 1.176 3.883l2.794 4.19-.97 9.743v9h26l-.004-9.091-.964-10.599 2.435-3.042c.988-1.236 1.533-2.789 1.533-4.372v-4.044l1.968 2.459-.968 10.689v9h26l-.005-9.1-.965-9.644 2.794-4.19c.77-1.153 1.176-2.496 1.176-3.882v-10.184c0-1.103-.897-2-2-2zm-55.001 46-.001-2h22.002v2zm25.001-25.104c0 1.131-.389 2.24-1.096 3.123l-2.937 3.671 1.033 11.31v3h-22.003l-.002-2.9 1.035-10.357-3.19-4.786c-.55-.824-.84-1.783-.84-2.773v-10.184c2.206 0 4 1.794 4 4v3 .721l.684.228c1.385.462 2.316 1.753 2.316 3.213v.838h2v-.838c0-2.073-1.18-3.932-3-4.83v-2.332-12c0-1.103.897-2 2-2s2 .897 2 2v15h2v-15-4c0-1.103.897-2 2-2s2 .897 2 2v5 14h2v-14c0-1.103.897-2 2-2s2 .897 2 2v4 8 2h2v-2-8c0-1.103.897-2 2-2s2 .897 2 2v3.896zm4.999 16.104-.001-2h22.002v2zm25.001-24.816c0 .99-.29 1.949-.84 2.773l-3.19 4.786 1.03 10.257v3h-22.003l-.001-2.909 1.036-11.401-2.937-3.671c-.706-.883-1.095-1.993-1.095-3.123v-3.896-9c0-1.103.897-2 2-2s2 .897 2 2v8 2h2v-2-8-4c0-1.103.897-2 2-2s2 .897 2 2v14h2v-14-5c0-1.103.897-2 2-2s2 .897 2 2v4 15h2v-15c0-1.103.897-2 2-2s2 .897 2 2v12 2.332c-1.82.898-3 2.757-3 4.83v.838h2v-.838c0-1.46.931-2.751 2.316-3.214l.684-.227v-.721-3c0-2.206 1.794-4 4-4z"/><path d="m54.41 31.59c-.986-.989-2.798-.712-5.234.761-.686-.225-1.416-.351-2.176-.351-3.859 0-7 3.141-7 7 0 .76.126 1.49.351 2.176-1.474 2.437-1.748 4.247-.761 5.234.419.419.955.601 1.568.601 1.068 0 2.367-.554 3.679-1.357.682.222 1.408.346 2.163.346 3.859 0 7-3.141 7-7 0-.756-.124-1.483-.347-2.166 1.262-2.063 1.906-4.096.757-5.244zm-7.41 2.41c1.905 0 3.545 1.083 4.388 2.655-.728 1.06-1.729 2.294-3.085 3.649-1.355 1.355-2.589 2.356-3.647 3.086-1.572-.844-2.656-2.484-2.656-4.39 0-2.757 2.243-5 5-5zm-5.978 11.02c-.052-.107-.055-.657.452-1.738.364.469.786.89 1.256 1.253-.912.441-1.52.57-1.708.485zm6.169-1.039c.943-.757 1.818-1.554 2.527-2.263s1.506-1.584 2.263-2.527c-.1 2.601-2.188 4.689-4.79 4.79zm4.089-10.507c1.079-.51 1.622-.516 1.697-.493.101.207-.018.824-.451 1.739-.361-.466-.78-.885-1.246-1.246z"/><path d="m24.41 40.59c-.986-.989-2.798-.712-5.234.761-.686-.225-1.416-.351-2.176-.351-3.859 0-7 3.141-7 7 0 .76.126 1.49.351 2.176-1.474 2.437-1.748 4.247-.761 5.234.419.419.955.601 1.568.601 1.068 0 2.367-.554 3.679-1.357.682.222 1.408.346 2.163.346 3.859 0 7-3.141 7-7 0-.756-.124-1.483-.347-2.166 1.262-2.063 1.906-4.096.757-5.244zm-7.41 2.41c1.905 0 3.545 1.083 4.388 2.655-.728 1.06-1.729 2.294-3.085 3.649-1.354 1.354-2.588 2.356-3.646 3.087-1.572-.844-2.657-2.485-2.657-4.391 0-2.757 2.243-5 5-5zm-5.978 11.02c-.052-.107-.055-.657.452-1.738.365.47.787.891 1.258 1.254-.913.442-1.521.57-1.71.484zm6.169-1.039c.943-.757 1.818-1.554 2.527-2.263s1.506-1.584 2.263-2.527c-.1 2.601-2.188 4.689-4.79 4.79zm4.089-10.507c1.079-.511 1.623-.517 1.697-.493.101.207-.018.824-.451 1.739-.361-.466-.78-.885-1.246-1.246z"/></g></g></svg>