<svg id="Layer_5" enable-background="new 0 0 64 64" height="512" viewBox="0 0 64 64" width="512" xmlns="http://www.w3.org/2000/svg"><g><g><path d="m19 57h7.77c-.48.53-.77 1.23-.77 2s.29 1.47.77 2h-7.77c-8.84 0-16-7.16-16-16v-10.27c.29.17.64.27 1 .27h2.72.28v10c0 6.63 5.37 12 12 12z" fill="#969faa"/><path d="m35 56c1.66 0 3 1.34 3 3 0 .83-.34 1.58-.88 2.12s-1.29.88-2.12.88h-6c-.89 0-1.69-.38-2.23-1-.48-.53-.77-1.23-.77-2s.29-1.47.77-2c.03-.04.07-.08.11-.12.54-.54 1.29-.88 2.12-.88z" fill="#fcd770"/><path d="m7.09 34.97-.09.03h-.28-2.72c-.36 0-.71-.1-1-.27-.6-.35-1-.99-1-1.73v-8c0-1.1.9-2 2-2h2.65c-.28 1.27-.48 2.59-.57 3.93-.05.35-.08.71-.08 1.07 0 .11 0 .23.01.34-.01.22-.01.44-.01.66v.19c.02 2.04.4 3.98 1.09 5.78z" fill="#aab2bd"/><path d="m62 25v8c0 1.1-.9 2-2 2h-2.72-.38c.7-1.81 1.08-3.76 1.1-5.81 0-.06 0-.13 0-.19 0-.22 0-.44-.01-.66.01-.11.01-.23.01-.34 0-.36-.03-.72-.08-1.07-.09-1.34-.29-2.66-.57-3.93h2.65c1.1 0 2 .9 2 2z" fill="#aab2bd"/><path d="m52.14 41.75c.55.72.86 1.46.86 2.25 0 4.42-9.4 8-21 8s-21-3.58-21-8c0-.79.31-1.53.86-2.25 3.05 2.65 7.06 4.25 11.4 4.25h17.48c4.34 0 8.35-1.6 11.4-4.25z" fill="#ccd1d9"/><path d="m57.35 23c.28 1.27.48 2.59.57 3.93-1.01-7.23-12.23-12.93-25.92-12.93s-24.91 5.7-25.92 12.93c.09-1.34.29-2.66.57-3.93 1.94-8.88 8.09-16.1 16.17-19.26l1.18 6.26h16l1.18-6.26c8.08 3.16 14.23 10.38 16.17 19.26z" fill="#e6e9ed"/><path d="m41.18 3.74-1.18 6.26h-16l-1.18-6.26c1.47-.58 3-1.03 4.58-1.31l.6 3.57h8l.6-3.57c1.58.28 3.11.73 4.58 1.31z" fill="#ffeaa7"/><path d="m36.6 2.43-.6 3.57h-8l-.6-3.57c1.49-.29 3.03-.43 4.6-.43s3.11.14 4.6.43z" fill="#fcd770"/><path d="m11.86 41.75c-2.11-1.82-3.77-4.14-4.77-6.78-.69-1.8-1.07-3.74-1.09-5.78 0-.06 0-.13 0-.19 0-.22 0-.44.01-.66.33 7.57 11.84 13.66 25.99 13.66s25.66-6.09 25.99-13.66c.01.22.01.44.01.66v.19c-.02 2.05-.4 4-1.1 5.81-1 2.63-2.66 4.94-4.76 6.75-3.05 2.65-7.06 4.25-11.4 4.25h-17.48c-4.34 0-8.35-1.6-11.4-4.25z" fill="#e6e9ed"/><path d="m57.92 26.93c.04.46.06.93.07 1.41-.33 7.57-11.84 13.66-25.99 13.66s-25.66-6.09-25.99-13.66c.01-.48.03-.95.07-1.41 1.01-7.23 12.23-12.93 25.92-12.93s24.91 5.7 25.92 12.93z" fill="#69d6f4"/></g><g><path d="m55 28h-2c0 2.601-4.282 6.312-12.216 8.07l.433 1.953c8.244-1.827 13.783-5.855 13.783-10.023z"/><path d="m32 19v-2c-.691 0-1.373.016-2.044.046l.089 1.998c.642-.028 1.294-.044 1.955-.044z"/><path d="m28.091 19.177-.183-1.992c-10.602.971-18.908 5.721-18.908 10.815h2c0-3.505 6.868-7.887 17.091-8.823z"/><path d="m60 22h-1.854c-3.005-12.063-13.588-21-26.146-21s-23.141 8.937-26.146 21h-1.854c-1.654 0-3 1.346-3 3v8c0 .883.391 1.67 1 2.22v9.78c0 9.374 7.626 17 17 17h7.382c.703.615 1.612 1 2.618 1h6c2.206 0 4-1.794 4-4s-1.794-4-4-4h-6c-1.005 0-1.914.385-2.618 1h-7.382c-6.065 0-11-4.935-11-11v-6.131c.741 1.107 1.598 2.13 2.563 3.049-.369.678-.563 1.375-.563 2.082 0 5.131 9.458 9 22 9s22-3.869 22-9c0-.707-.194-1.404-.563-2.082 1.752-1.67 3.168-3.677 4.131-5.918h2.432c1.654 0 3-1.346 3-3v-8c0-1.654-1.346-3-3-3zm-52.919 5c.986-6.702 11.782-12 24.919-12s23.933 5.298 24.919 12c.033.442.054.886.065 1.333-.342 7.014-11.414 12.667-24.984 12.667s-24.642-5.653-24.984-12.667c.011-.447.033-.891.065-1.333zm20.072-20h9.694l.563-3.38c.894.206 1.769.463 2.625.765l-.865 4.615h-14.34l-.865-4.614c.855-.303 1.731-.559 2.625-.765zm8.291-3.747-.291 1.747h-6.306l-.291-1.747c1.127-.163 2.275-.253 3.444-.253s2.317.09 3.444.253zm-13.372 1.89 1.098 5.857h17.66l1.098-5.857c6.447 2.913 11.487 8.572 13.756 15.549-4.55-4.622-13.351-7.692-23.684-7.692s-19.134 3.07-23.684 7.693c2.269-6.978 7.309-12.636 13.756-15.55zm-19.072 19.857c0-.552.449-1 1-1h1.44c-.159.911-.275 1.837-.347 2.777-.056.403-.093.81-.093 1.223 0 .12.011.238.016.357-.005.215-.016.427-.016.643v.201c.012 1.664.275 3.27.724 4.799h-1.724c-.551 0-1-.448-1-1zm26 32h6c1.103 0 2 .897 2 2s-.897 2-2 2h-6c-1.103 0-2-.897-2-2s.897-2 2-2zm-10 1h6.142c-.084.322-.142.653-.142 1s.058.678.142 1h-6.142c-8.271 0-15-6.729-15-15v-9h2v9c0 7.168 5.832 13 13 13zm33-14c0 3.311-8.214 7-20 7s-20-3.689-20-7c0-.245.052-.495.145-.748 3.086 2.34 6.936 3.748 11.113 3.748h17.483c4.177 0 8.027-1.408 11.113-3.748.094.253.146.503.146.748zm-11.258 1h-17.484c-6.693 0-12.475-4.012-14.959-9.71 4.545 4.632 13.356 7.71 23.701 7.71s19.156-3.078 23.701-7.71c-2.485 5.698-8.267 9.71-14.959 9.71zm20.258-12c0 .552-.449 1-1 1h-1.724c.448-1.529.711-3.134.724-4.799v-.201c0-.216-.011-.428-.016-.643.005-.119.016-.237.016-.357 0-.413-.037-.82-.093-1.223-.072-.939-.188-1.866-.347-2.777h1.44c.551 0 1 .448 1 1z"/></g></g></svg>