<svg id="Layer_5" enable-background="new 0 0 64 64" height="512" viewBox="0 0 64 64" width="512" xmlns="http://www.w3.org/2000/svg"><g><g><path d="m62 56v6h-60v-6h8 22 22z" fill="#aab2bd"/><circle cx="56" cy="8" fill="#ff826e" r="5"/><circle cx="8" cy="8" fill="#ff826e" r="5"/><path d="m32 44c-5.96 0-11.33-2.49-15.15-6.48.73-.99 1.15-2.2 1.15-3.52h-2c-.59 0-1.17.09-1.71.25-.84-1.33-1.54-2.75-2.08-4.25h.01 1.78c1.1 0 2-.9 2-2 0-.55.22-1.05.59-1.41.36-.37.86-.59 1.41-.59h2c1.1 0 2-.9 2-2 0-.55-.22-1.05-.59-1.41-.36-.37-.86-.59-1.41-.59h-8.95-.02c.06-1.37.25-2.71.57-4h.02 10.44c1.07 0 1.94-.87 1.94-1.94v-.05c0-1.11-.9-2.01-2-2.01h-1c-1.1 0-2-.9-2-2 0-.55.22-1.05.59-1.41.36-.37.86-.59 1.41-.59h9c1.1 0 2-.9 2-2 0-.55-.22-1.05-.59-1.41-.36-.37-.86-.59-1.41-.59h-10.29l-.01-.02c3.46-2.51 7.71-3.98 12.3-3.98 5.72 0 10.91 2.29 14.69 5.99l-.01.01h-8.68c-1.1 0-2 .9-2 2 0 .55.22 1.05.59 1.41.36.37.86.59 1.41.59h5c1.1 0 2 .9 2 2 0 .55.22 1.05.59 1.41.36.37.86.59 1.41.59h4.78l.02-.01c.46 1.28.79 2.62.98 4.01h-.02-8.76c-1.1 0-2 .9-2 2 0 .55.22 1.05.59 1.41.36.37.86.59 1.41.59h3c1.1 0 2 .9 2 2 0 .55-.22 1.05-.59 1.41-.36.37-.86.59-1.41.59h-1c-1.1 0-2 .9-2 2 0 .55.22 1.05.59 1.41.36.37.86.59 1.41.59h4.95.01c-.68 1.44-1.52 2.79-2.5 4.02-.15-.01-.3-.02-.46-.02h-2l.43 2.23c-1.38 1.31-2.93 2.44-4.64 3.34.14-.5.21-1.03.21-1.57h-4c-1.66 0-3.16.67-4.24 1.76-.62.62-1.11 1.37-1.4 2.22h-.01c-.12 0-.23.02-.35.02z" fill="#69d6f4"/><g fill="#b4dd7f"><path d="m16 28c0 1.1-.9 2-2 2h-1.78-.01c-.78-2.19-1.21-4.55-1.21-7 0-.34.01-.67.03-1h.02 8.95c.55 0 1.05.22 1.41.59.37.36.59.86.59 1.41 0 1.1-.9 2-2 2h-2c-.55 0-1.05.22-1.41.59-.37.36-.59.86-.59 1.41z"/><path d="m22 14c1.1 0 2 .9 2 2.01v.05c0 1.07-.87 1.94-1.94 1.94h-10.44-.02c1.2-4.91 4.13-9.15 8.1-12.02l.01.02h10.29c.55 0 1.05.22 1.41.59.37.36.59.86.59 1.41 0 1.1-.9 2-2 2h-9c-.55 0-1.05.22-1.41.59-.37.36-.59.86-.59 1.41 0 1.1.9 2 2 2z"/><path d="m46.68 8 .01-.01c2.27 2.22 4.03 4.95 5.11 8l-.02.01h-4.78c-.55 0-1.05-.22-1.41-.59-.37-.36-.59-.86-.59-1.41 0-1.1-.9-2-2-2h-5c-.55 0-1.05-.22-1.41-.59-.37-.36-.59-.86-.59-1.41 0-1.1.9-2 2-2z"/><path d="m52.78 20c.15.98.22 1.98.22 3 0 3.22-.73 6.28-2.04 9h-.01-4.95c-.55 0-1.05-.22-1.41-.59-.37-.36-.59-.86-.59-1.41 0-1.1.9-2 2-2h1c.55 0 1.05-.22 1.41-.59.37-.36.59-.86.59-1.41 0-1.1-.9-2-2-2h-3c-.55 0-1.05-.22-1.41-.59-.37-.36-.59-.86-.59-1.41 0-1.1.9-2 2-2h8.76z"/></g><path d="m32 32c-.65 0-1.28-.22-1.78-.62l-.32-.26c-2.46-1.97-3.9-4.96-3.9-8.12 0-1.58.36-3.12 1.03-4.51s1.64-2.63 2.87-3.61l.32-.26c.5-.4 1.13-.62 1.78-.62s1.28.22 1.78.62l.32.26c2.46 1.97 3.9 4.96 3.9 8.12 0 1.58-.36 3.12-1.03 4.51s-1.64 2.63-2.87 3.61l-.32.26c-.5.4-1.13.62-1.78.62z" fill="#a0d468"/><path d="m10 52h-2c-1.66 0-3.16-.67-4.24-1.76-1.09-1.08-1.76-2.58-1.76-4.24h2c1.66 0 3.16.67 4.24 1.76 1.09 1.08 1.76 2.58 1.76 4.24z" fill="#a0d468"/><path d="m10 42h-2c-1.66 0-3.16-.67-4.24-1.76-1.09-1.08-1.76-2.58-1.76-4.24h2c1.66 0 3.16.67 4.24 1.76 1.09 1.08 1.76 2.58 1.76 4.24z" fill="#b4dd7f"/><path d="m16.24 38.24c-1.08 1.09-2.58 1.76-4.24 1.76h-2c0-1.66.67-3.16 1.76-4.24.69-.7 1.56-1.23 2.53-1.51.54-.16 1.12-.25 1.71-.25h2c0 1.32-.42 2.53-1.15 3.52-.18.26-.38.5-.61.72z" fill="#a0d468"/><path d="m16 44h2c0 1.66-.67 3.16-1.76 4.24-1.08 1.09-2.58 1.76-4.24 1.76h-2c0-1.66.67-3.16 1.76-4.24 1.08-1.09 2.58-1.76 4.24-1.76z" fill="#b4dd7f"/><path d="m32 52h-4c-1.66 0-3.16-.67-4.24-1.76-1.09-1.08-1.76-2.58-1.76-4.24h4c1.66 0 3.16.67 4.24 1.76 1.09 1.08 1.76 2.58 1.76 4.24z" fill="#a0d468"/><path d="m32 39h-4c-1.66 0-3.16-.67-4.24-1.76-1.09-1.08-1.76-2.58-1.76-4.24h4c1.66 0 3.16.67 4.24 1.76 1.09 1.08 1.76 2.58 1.76 4.24z" fill="#b4dd7f"/><path d="m41.79 41.57c-.27 1.03-.82 1.94-1.55 2.67-1.08 1.09-2.58 1.76-4.24 1.76h-4c0-.71.12-1.39.35-2.02h.01c.29-.85.78-1.6 1.4-2.22 1.08-1.09 2.58-1.76 4.24-1.76h4c0 .54-.07 1.07-.21 1.57z" fill="#b4dd7f"/><path d="m54 40c0-1.66.67-3.16 1.76-4.24 1.08-1.09 2.58-1.76 4.24-1.76h2c0 1.66-.67 3.16-1.76 4.24-1.08 1.09-2.58 1.76-4.24 1.76z" fill="#b4dd7f"/><path d="m54 52h-2c-1.66 0-3.16-.67-4.24-1.76-1.09-1.08-1.76-2.58-1.76-4.24h2c1.66 0 3.16.67 4.24 1.76 1.09 1.08 1.76 2.58 1.76 4.24z" fill="#b4dd7f"/><path d="m48.46 36.02c1.47.11 2.8.75 3.78 1.74 1.09 1.08 1.76 2.58 1.76 4.24h-2c-1.66 0-3.16-.67-4.24-1.76-.57-.57-1.03-1.25-1.33-2.01l-.43-2.23h2c.16 0 .31.01.46.02z" fill="#a0d468"/><path d="m60 44h2c0 1.66-.67 3.16-1.76 4.24-1.08 1.09-2.58 1.76-4.24 1.76h-2c0-1.66.67-3.16 1.76-4.24 1.08-1.09 2.58-1.76 4.24-1.76z" fill="#b4dd7f"/></g><g><path d="m55 42v-1h1c3.859 0 7-3.141 7-7v-1h-3c-3.014 0-5.582 1.919-6.566 4.597-.838-1.033-1.964-1.82-3.255-2.245 2.499-3.655 3.821-7.89 3.821-12.352 0-12.131-9.869-22-22-22s-22 9.869-22 22c0 3.775.985 7.469 2.842 10.762-1.569.798-2.795 2.168-3.407 3.835-1.285-1.583-3.243-2.597-5.435-2.597h-3v1c0 3.859 3.141 7 7 7h1v4.111c-1.272-1.301-3.042-2.111-5-2.111h-3v1c0 3.859 3.141 7 7 7h1v2h-8v8h62v-8h-8v-2-1-1h1c3.859 0 7-3.141 7-7v-1h-3c-1.958 0-3.728.81-5 2.111v-2.111zm5-7h.899c-.465 2.279-2.484 4-4.899 4h-.899c.464-2.279 2.484-4 4.899-4zm-52 6c-2.415 0-4.435-1.721-4.899-4h.899c2.415 0 4.435 1.721 4.899 4zm0 10c-2.415 0-4.435-1.721-4.899-4h.899c2.415 0 4.435 1.721 4.899 4zm52-6h.899c-.465 2.279-2.484 4-4.899 4h-.899c.464-2.279 2.484-4 4.899-4zm-7.101-4h-.899c-2.415 0-4.435-1.721-4.899-4h.899c2.415 0 4.435 1.721 4.899 4zm-2.572-10h-4.327c-.552 0-1-.448-1-1s.448-1 1-1h1c1.654 0 3-1.346 3-3s-1.346-3-3-3h-3c-.552 0-1-.448-1-1s.448-1 1-1h7.899c.065.658.101 1.325.101 2 0 2.799-.573 5.501-1.673 8zm-.008-16h-3.319c-.552 0-1-.448-1-1 0-1.654-1.346-3-3-3h-5c-.552 0-1-.448-1-1s.448-1 1-1h8.259c1.694 1.725 3.075 3.756 4.06 6zm-30.268-8h9.949c.552 0 1 .448 1 1s-.448 1-1 1h-9c-1.654 0-3 1.346-3 3s1.346 3 3 3h1c.552 0 1 .453 1 1.06 0 .52-.422.941-.941.941l-9.137-.001c1.274-4.041 3.81-7.515 7.129-10zm-8.051 16h8c.552 0 1 .448 1 1s-.448 1-1 1h-2c-1.654 0-3 1.346-3 3 0 .552-.448 1-1 1h-1.06c-.614-1.934-.94-3.953-.94-6zm1.69 8h.31c1.654 0 3-1.346 3-3 0-.552.448-1 1-1h2c1.654 0 3-1.346 3-3s-1.346-3-3-3h-7.899c.068-.677.168-1.344.302-2l9.656.001c1.622 0 2.941-1.319 2.941-2.991 0-1.659-1.346-3.01-3-3.01h-1c-.552 0-1-.448-1-1s.448-1 1-1h9c1.654 0 3-1.346 3-3s-1.346-3-3-3h-6.66c2.625-1.268 5.555-2 8.66-2 4.482 0 8.611 1.5 11.949 4h-5.949c-1.654 0-3 1.346-3 3s1.346 3 3 3h5c.552 0 1 .448 1 1 0 1.654 1.346 3 3 3h4.078c.206.653.381 1.32.519 2h-7.597c-1.654 0-3 1.346-3 3s1.346 3 3 3h3c.552 0 1 .448 1 1s-.448 1-1 1h-1c-1.654 0-3 1.346-3 3s1.346 3 3 3h3.296c-.401.687-.845 1.354-1.332 2h-2.964v1c0 .666.099 1.309.274 1.92-.722.644-1.482 1.23-2.274 1.756v-.676h-5c-1.958 0-3.728.81-5 2.111v-1.111-1-6.147c.508-.138.991-.366 1.406-.698l.314-.251c2.72-2.175 4.28-5.421 4.28-8.904s-1.56-6.729-4.279-8.903l-.315-.253c-1.361-1.088-3.448-1.089-4.812.001l-.314.251c-2.72 2.175-4.28 5.421-4.28 8.904s1.56 6.729 4.279 8.903l.315.253c.415.331.897.559 1.405.697v1.258c-1.271-1.301-3.041-2.111-4.999-2.111h-5v1c0 3.859 3.141 7 7 7h3v2.95c-4.848-.238-9.353-2.193-12.863-5.589.549-.998.863-2.144.863-3.361v-1h-3c-.417 0-.823.043-1.22.114-.405-.687-.772-1.391-1.09-2.114zm27.209 10c-.465 2.279-2.484 4-4.899 4h-2.899c.465-2.279 2.484-4 4.899-4zm-5.342-17.17-.557-.83-.555-.832c-.061.041-.72.488-1.445 1.267v-6.435h-2v3.875c-.775-.505-1.517-.768-1.684-.823l-.633 1.896c.49.163 2.317.99 2.317 2.052v6.679c-.05-.032-.109-.047-.156-.084l-.314-.253c-2.244-1.793-3.53-4.47-3.53-7.342s1.286-5.549 3.529-7.343l.313-.251c.329-.261.74-.406 1.158-.406s.829.145 1.156.405l.314.253c2.244 1.793 3.53 4.47 3.53 7.342s-1.286 5.549-3.529 7.342l-.313.252c-.047.038-.107.052-.157.085v-2.679c-.001-2.415 2.53-4.152 2.556-4.17zm-4.658 14.17h-2.899c-2.415 0-4.435-1.721-4.899-4h2.899c2.415 0 4.435 1.721 4.899 4zm-14.899-3h.899c-.465 2.279-2.484 4-4.899 4h-.899c.464-2.279 2.484-4 4.899-4zm-5 18v-1-1h1c3.859 0 7-3.141 7-7v-1h-3c-1.958 0-3.728.81-5 2.111v-2.111-1-1h1c1.92 0 3.661-.778 4.927-2.034 3.859 3.654 8.782 5.748 14.073 5.984v1.05 1 .111c-1.272-1.301-3.042-2.111-5-2.111h-5v1c0 3.859 3.141 7 7 7h3v2h-20zm.101-4c.465-2.279 2.484-4 4.899-4h.899c-.465 2.279-2.484 4-4.899 4zm19.798 2h-2.899c-2.415 0-4.435-1.721-4.899-4h2.899c2.415 0 4.435 1.721 4.899 4zm30.101 10h-58v-4h58zm-8-13.889c-1.272-1.301-3.042-2.111-5-2.111h-3v1c0 3.859 3.141 7 7 7h1v2h-20v-2-1-5h3c3.073 0 5.685-1.995 6.624-4.755 1.238-.686 2.417-1.495 3.519-2.424 1.251 1.911 3.407 3.179 5.857 3.179h1zm-.101 3.889h-.899c-2.415 0-4.435-1.721-4.899-4h.899c2.415 0 4.435 1.721 4.899 4z"/><path d="m55 13h2c0-2.206 1.794-4 4-4v-2c-2.206 0-4-1.794-4-4h-2c0 2.206-1.794 4-4 4v2c2.206 0 4 1.794 4 4zm1-6.687c.444.668 1.019 1.243 1.687 1.687-.668.444-1.243 1.019-1.687 1.687-.444-.668-1.019-1.243-1.687-1.687.668-.444 1.243-1.019 1.687-1.687z"/><path d="m7 13h2c0-2.206 1.794-4 4-4v-2c-2.206 0-4-1.794-4-4h-2c0 2.206-1.794 4-4 4v2c2.206 0 4 1.794 4 4zm1-6.687c.444.668 1.019 1.243 1.687 1.687-.668.444-1.243 1.019-1.687 1.687-.444-.668-1.019-1.243-1.687-1.687.668-.444 1.243-1.019 1.687-1.687z"/><path d="m4 18h2v2h-2z"/><path d="m4 22h2v2h-2z"/><path d="m6 20h2v2h-2z"/><path d="m2 20h2v2h-2z"/><path d="m5 28h2v2h-2z"/><path d="m5 32h2v2h-2z"/><path d="m7 30h2v2h-2z"/><path d="m3 30h2v2h-2z"/><path d="m58 16h2v2h-2z"/><path d="m58 20h2v2h-2z"/><path d="m56 18h2v2h-2z"/><path d="m60 18h2v2h-2z"/><path d="m57 26h2v2h-2z"/><path d="m57 30h2v2h-2z"/><path d="m55 28h2v2h-2z"/><path d="m59 28h2v2h-2z"/></g></g></svg>