<svg id="Layer_5" enable-background="new 0 0 64 64" height="512" viewBox="0 0 64 64" width="512" xmlns="http://www.w3.org/2000/svg"><g><g><g fill="#ccd1d9"><path d="m12 16v4h-2-4-2v-4z"/><path d="m20 12v4h-3c-.55 0-1-.45-1-1v-2c0-.55.45-1 1-1z"/><path d="m32 12.85v2.3c0 1.02-.83 1.85-1.85 1.85-.1 0-.2-.01-.3-.03l-5.85-.97v-4l5.85-.97c.1-.02.2-.03.3-.03 1.02 0 1.85.83 1.85 1.85z"/></g><path d="m6 20h4v4h-4z" fill="#cf9e76"/><path d="m24 16v6h-4v-6-4-1c0-.55.45-1 1-1h2c.55 0 1 .45 1 1v1z" fill="#cf9e76"/><path d="m56 29v2c0 .55-.45 1-1 1h-2c-.55 0-1-.45-1-1v-1-14-1c0-.55.45-1 1-1h2c.55 0 1 .45 1 1v2z" fill="#aab2bd"/><path d="m56 17c3.31 0 6 2.69 6 6s-2.69 6-6 6z" fill="#fcd770"/><path d="m52 16v14h-6-6v-14z" fill="#ccd1d9"/><path d="m49.96 59.74c.08.52-.06 1.05-.39 1.47-.32.43-.79.7-1.32.77-.09.01-.18.02-.27.02-1 0-1.85-.75-1.98-1.74l-1.92-6.26-1.23-4-4.3-14h3.45c.23 0 .45-.02.66-.06z" fill="#cf9e76"/><path d="m42.66 35.94c-.21.04-.43.06-.66.06h-3.45-3.09c-.69-1.2-1.98-2-3.46-2s-2.77.8-3.46 2h-3.09-3.45c-.23 0-.45-.02-.66-.06-1.9-.31-3.34-1.96-3.34-3.94v-2h2 14 6 6v2c0 1.98-1.44 3.63-3.34 3.94z" fill="#aab2bd"/><path d="m42.85 50 1.23 4h-10.08-4-10.08l1.23-4h8.85 4z" fill="#d3a06c"/><path d="m40 16v14h-6v-8z" fill="#ffeaa7"/><path d="m34 41.46c-.59.34-1.27.54-2 .54s-1.41-.2-2-.54c-1.2-.69-2-1.98-2-3.46 0-.73.2-1.41.54-2 .69-1.2 1.98-2 3.46-2s2.77.8 3.46 2c.34.59.54 1.27.54 2 0 1.48-.8 2.77-2 3.46z" fill="#b27946"/><path d="m34 54v6c0 1.1-.9 2-2 2s-2-.9-2-2v-6z" fill="#cf9e76"/><path d="m34 41.46v8.54h-4v-8.54c.59.34 1.27.54 2 .54s1.41-.2 2-.54z" fill="#cf9e76"/><path d="m34 22v8h-14v-8h4z" fill="#ccd1d9"/><path d="m25.45 36-4.3 14-1.23 4-1.92 6.26c-.13.99-.98 1.74-1.98 1.74-.09 0-.18-.01-.27-.02-.53-.07-1-.34-1.32-.77-.33-.42-.47-.95-.39-1.47l7.3-23.8c.21.04.43.06.66.06z" fill="#cf9e76"/><path d="m20 22v8h-2-2v-6z" fill="#ffeaa7"/><path d="m16 24v6h-10v-6h4z" fill="#ccd1d9"/><path d="m6 24v6h-4v-4z" fill="#ffeaa7"/></g><g><path d="m57 16.08v-1.08c0-1.103-.897-2-2-2h-2c-1.103 0-2 .897-2 2h-11.414l-6 6h-8.586v-3.82l4.687.781c.154.025.31.039.466.039 1.57 0 2.847-1.277 2.847-2.847v-2.307c0-1.726-1.585-3.089-3.315-2.808l-4.703.784c-.091-1.018-.94-1.822-1.982-1.822h-2c-1.103 0-2 .897-2 2h-2c-1.103 0-2 .897-2 2v2c0 1.103.897 2 2 2h2v4.382l-3.236 1.618h-4.764v-2h2v-6h-10v6h2v2.382l-4 2v5.618h16v1c0 2.079 1.277 3.863 3.087 4.616l-7.008 22.826-.035.161c-.106.794.104 1.581.591 2.22.487.635 1.191 1.043 1.991 1.151.135.017.264.026.393.026 1.466 0 2.722-1.074 2.959-2.514l1.684-5.486h8.338v5c0 1.654 1.346 3 3 3s3-1.346 3-3v-5h8.338l1.684 5.486c.237 1.44 1.493 2.514 2.959 2.514.129 0 .258-.009.4-.026.793-.107 1.498-.516 1.985-1.151.487-.638.697-1.425.59-2.219l-7.044-22.987c1.811-.754 3.088-2.538 3.088-4.617v-1h4c0 1.103.897 2 2 2h2c1.103 0 2-.897 2-2v-1.08c3.387-.488 6-3.401 6-6.92s-2.613-6.432-6-6.92zm-18 2.334v10.586h-4v-6.586zm-18 4.586h12v6h-12zm9.012-10.988c.509-.086.988.321.988.835v2.307c0 .514-.494.92-.986.835l-5.014-.836v-2.306zm-7.012-1.012v10h-2v-10zm-6 4v-2h2v2zm2 8.618v5.382h-2v-4.382zm-12 1.382h8v4h-8zm-2-8h6v2h-6zm4 4v2h-2v-2zm-6 5.618 2-1v3.382h-2zm14.044 33.352-.035.162c-.072.541-.628.93-1.123.859-.269-.036-.498-.169-.663-.384-.148-.194-.219-.43-.204-.67l7.043-22.937h2.034zm11.956-17.996v7.026h-6.495l3.684-12h.912c-.066.323-.101.658-.101 1 0 1.627.793 3.061 2 3.974zm8-3.974c0-.342-.035-.677-.101-1h.913l3.684 12h-6.496v-7.026c1.207-.913 2-2.347 2-3.974zm-6 11v-6.101c.323.066.658.101 1 .101s.677-.035 1-.101v6.101zm1-8c-1.654 0-3-1.346-3-3s1.346-3 3-3 3 1.346 3 3-1.346 3-3 3zm1 19c0 .552-.449 1-1 1s-1-.448-1-1v-5h2zm-11.723-7 .614-2h20.219l.614 2zm27.5 7.606c-.165.216-.395.349-.656.384-.575.083-1.058-.317-1.13-.858l-7.087-23.132h2.035l7.042 22.938c.015.24-.056.475-.204.668zm-3.777-28.606c0 1.654-1.346 3-3 3h-6.026c-.914-1.207-2.348-2-3.974-2s-3.061.793-3.974 2h-6.026c-1.654 0-3-1.346-3-3v-1h26zm-4-3v-12h10v12zm12 2v-16h2l.001 16zm4-3.101v-9.798c2.279.465 4 2.484 4 4.899s-1.721 4.434-4 4.899z"/><path d="m43 1h2v2h-2z"/><path d="m43 5h2v2h-2z"/><path d="m45 3h2v2h-2z"/><path d="m41 3h2v2h-2z"/><path d="m59 5h2v2h-2z"/><path d="m59 9h2v2h-2z"/><path d="m61 7h2v2h-2z"/><path d="m57 7h2v2h-2z"/><path d="m53 35h2v2h-2z"/><path d="m53 39h2v2h-2z"/><path d="m55 37h2v2h-2z"/><path d="m51 37h2v2h-2z"/><path d="m59 48h2v2h-2z"/><path d="m59 52h2v2h-2z"/><path d="m61 50h2v2h-2z"/><path d="m57 50h2v2h-2z"/><path d="m9 35h2v2h-2z"/><path d="m9 39h2v2h-2z"/><path d="m7 37h2v2h-2z"/><path d="m11 37h2v2h-2z"/><path d="m3 48h2v2h-2z"/><path d="m3 52h2v2h-2z"/><path d="m1 50h2v2h-2z"/><path d="m5 50h2v2h-2z"/><path d="m3 5h2v2h-2z"/><path d="m3 9h2v2h-2z"/><path d="m5 7h2v2h-2z"/><path d="m1 7h2v2h-2z"/><path d="m26 2h2v2h-2z"/><path d="m26 6h2v2h-2z"/><path d="m28 4h2v2h-2z"/><path d="m24 4h2v2h-2z"/></g></g></svg>