<svg id="Layer_5" enable-background="new 0 0 64 64" height="512" viewBox="0 0 64 64" width="512" xmlns="http://www.w3.org/2000/svg"><g><g><circle cx="55" cy="32" fill="#ff826e" r="5"/><circle cx="55" cy="55" fill="#ff826e" r="5"/><circle cx="7" cy="57" fill="#ff826e" r="5"/><circle cx="7" cy="26" fill="#ff826e" r="5"/><g fill="#969faa"><path d="m32 8v10c-2.15 0-4.18-.17-6-.48v-9.04c1.82-.31 3.86-.48 6-.48z"/><path d="m38 8.48v9.04c-1.82.31-3.86.48-6 .48v-10c2.14 0 4.18.17 6 .48z"/><path d="m32 24v26c-2.14 0-4.18-.17-6-.48v-9.04-5.98-11c1.9.32 3.91.5 6 .5z"/><path d="m38 34.5v5.98 9.04c-1.82.31-3.86.48-6 .48v-26c2.09 0 4.11-.18 6-.5z"/><path d="m38 55.5v7.5h-6v-7c2.09 0 4.1-.18 6-.5z"/><path d="m32 56v7h-6v-7.5-.01c1.89.33 3.91.51 6 .51z"/></g><path d="m21 52c1.1 0 2 .9 2 2 0 .27-.05.53-.16.77-.3.72-1.01 1.23-1.84 1.23-1.1 0-2-.9-2-2 0-.21.03-.41.09-.6h.01c.25-.81 1.01-1.4 1.9-1.4z" fill="#fcd770"/><path d="m22.84 41.22c.1.24.16.5.16.78 0 1.1-.9 2-2 2-.76 0-1.43-.43-1.76-1.06-.16-.28-.24-.6-.24-.94 0-1.1.9-2 2-2 .82 0 1.54.51 1.84 1.22z" fill="#fcd770"/><path d="m46 35c1.1 0 2 .9 2 2 0 .43-.13.82-.37 1.15-.36.51-.96.85-1.63.85-1.1 0-2-.9-2-2 0-.26.05-.5.14-.73.29-.74 1.02-1.27 1.86-1.27z" fill="#fcd770"/><path d="m52 11c1.1 0 2 .9 2 2s-.9 2-2 2c-.12 0-.23-.01-.34-.03-.94-.16-1.66-.99-1.66-1.97s.72-1.81 1.66-1.97c.11-.02.22-.03.34-.03z" fill="#fcd770"/><path d="m18.62 4.84h.01c.24.33.37.73.37 1.16 0 1.1-.9 2-2 2-.74 0-1.39-.41-1.74-1.01-.17-.29-.26-.63-.26-.99 0-1.1.9-2 2-2 .67 0 1.26.33 1.62.84z" fill="#fcd770"/><path d="m21 14c1.1 0 2 .9 2 2 0 .28-.06.54-.16.78-.3.71-1.02 1.22-1.84 1.22-1.1 0-2-.9-2-2 0-.34.09-.67.24-.95.34-.62 1-1.05 1.76-1.05z" fill="#fcd770"/></g><g><path d="m53 45c0-2.599-1.471-5.116-4.132-7.168.077-.266.132-.541.132-.832 0-1.654-1.346-3-3-3-.904 0-1.706.41-2.256 1.044-1.489-.571-3.076-1.027-4.744-1.36v-9.372c6.51-1.312 11.606-4.405 13.331-8.346 1.497-.167 2.669-1.425 2.669-2.966s-1.172-2.799-2.669-2.967c-2.308-5.272-10.657-9.033-20.331-9.033-4.805 0-9.439.943-13.163 2.646-.509-.399-1.142-.646-1.837-.646-1.654 0-3 1.346-3 3 0 .244.037.477.092.704-2.018 1.883-3.092 4.045-3.092 6.296 0 5.318 5.772 9.713 14 11.328v9.355c-8.405 1.671-14 6.152-14 11.317 0 3.472 2.544 6.712 7.003 8.973 0 .009-.003.018-.003.027 0 1.654 1.346 3 3 3 .925 0 1.742-.429 2.293-1.089.564.146 1.129.288 1.707.405v6.684h2v-6.344c1.304.181 2.643.276 4 .312v6.032h2v-6.028c1.376-.035 2.712-.141 4-.315v6.343h2v-6.672c8.228-1.615 14-6.01 14-11.328zm-7-9c.552 0 1 .449 1 1s-.448 1-1 1-1-.449-1-1 .448-1 1-1zm-7 5.694c3.94.845 6 2.255 6 3.306 0 1.077-2.217 2.471-6 3.297zm-2 6.961c-1.219.174-2.557.289-4 .326v-24.006c1.368-.037 2.706-.146 4-.327zm16-35.655c0 .551-.448 1-1 1s-1-.449-1-1 .448-1 1-1 1 .449 1 1zm-36-8c.552 0 1 .449 1 1s-.448 1-1 1-1-.449-1-1 .448-1 1-1zm-4 8c0-1.92 1.085-3.487 2.212-4.605.501.375 1.116.605 1.788.605 1.654 0 3-1.346 3-3 0-.224-.029-.441-.076-.652 3.423-1.513 7.663-2.348 12.076-2.348 8.553 0 16.169 3.167 18.356 7.495-.815.537-1.356 1.458-1.356 2.505s.541 1.968 1.356 2.505c-2.187 4.328-9.803 7.495-18.356 7.495-10.299 0-19-4.58-19-10zm18 11.972v24.009c-1.443-.037-2.781-.152-4-.326v-23.998c1.288.174 2.624.28 4 .315zm-11.78 19.429c.499.372 1.111.599 1.78.599 1.654 0 3-1.346 3-3 0-.019-.005-.037-.006-.056.327-.086.66-.168 1.006-.243v6.596c-3.783-.826-6-2.221-6-3.297 0-.207.094-.409.22-.599zm.78-2.401c0-.551.448-1 1-1s1 .449 1 1-.448 1-1 1-1-.449-1-1zm1 13c-.552 0-1-.449-1-1s.448-1 1-1 1 .449 1 1-.448 1-1 1zm0-4c-.919 0-1.732.424-2.283 1.077-3.633-1.895-5.717-4.436-5.717-7.077 0-4.042 4.879-7.765 12-9.281v3.943c-.598.119-1.173.254-1.725.405-.55-.647-1.36-1.067-2.275-1.067-1.654 0-3 1.346-3 3 0 .224.029.442.076.652-.867.889-1.076 1.746-1.076 2.348 0 3.897 7.729 6 15 6s15-2.103 15-6c0-2.38-2.974-4.351-8-5.349v-3.928c1.408.301 2.748.698 4.01 1.181-.001.032-.01.063-.01.096 0 1.654 1.346 3 3 3 .64 0 1.23-.205 1.718-.547 1.622 1.259 3.282 3.136 3.282 5.547 0 5.42-8.701 10-19 10-2.792 0-5.474-.339-8.003-.974 0-.009.003-.017.003-.026 0-1.654-1.346-3-3-3z"/><path d="m32 19c7.271 0 15-2.103 15-6s-7.729-6-15-6-15 2.103-15 6c0 .598.209 1.451 1.078 2.341-.048.213-.078.432-.078.659 0 1.654 1.346 3 3 3 .913 0 1.721-.418 2.272-1.063 2.52.685 5.58 1.063 8.728 1.063zm1-9.981c1.443.037 2.781.152 4 .326v7.311c-1.219.174-2.557.289-4 .326zm-2 7.965c-1.381-.036-2.727-.148-4-.329v-7.311c1.219-.174 2.557-.289 4-.326zm14-3.984c0 1.077-2.217 2.471-6 3.297v-6.594c3.783.826 6 2.22 6 3.297zm-20-3.297v6.6c-.345-.074-.68-.154-1.006-.24 0-.022.006-.041.006-.063 0-1.654-1.346-3-3-3-.667 0-1.278.226-1.777.596-.128-.19-.223-.391-.223-.596 0-1.077 2.217-2.471 6-3.297zm-4 7.297c-.552 0-1-.449-1-1s.448-1 1-1 1 .449 1 1-.448 1-1 1z"/><path d="m50 31v2c2.206 0 4 1.794 4 4h2c0-2.206 1.794-4 4-4v-2c-2.206 0-4-1.794-4-4h-2c0 2.206-1.794 4-4 4zm6.69 1c-.67.445-1.245 1.02-1.69 1.69-.445-.67-1.02-1.245-1.69-1.69.67-.445 1.245-1.02 1.69-1.69.445.67 1.02 1.245 1.69 1.69z"/><path d="m6 31h2c0-2.206 1.794-4 4-4v-2c-2.206 0-4-1.794-4-4h-2c0 2.206-1.794 4-4 4v2c2.206 0 4 1.794 4 4zm1-6.69c.445.67 1.02 1.245 1.69 1.69-.67.445-1.245 1.02-1.69 1.69-.445-.67-1.02-1.245-1.69-1.69.67-.445 1.245-1.02 1.69-1.69z"/><path d="m56 50h-2c0 2.206-1.794 4-4 4v2c2.206 0 4 1.794 4 4h2c0-2.206 1.794-4 4-4v-2c-2.206 0-4-1.794-4-4zm-1 6.69c-.445-.67-1.02-1.245-1.69-1.69.67-.445 1.245-1.02 1.69-1.69.445.67 1.02 1.245 1.69 1.69-.67.445-1.245 1.02-1.69 1.69z"/><path d="m8 52h-2c0 2.206-1.794 4-4 4v2c2.206 0 4 1.794 4 4h2c0-2.206 1.794-4 4-4v-2c-2.206 0-4-1.794-4-4zm-1 6.69c-.445-.67-1.02-1.245-1.69-1.69.67-.445 1.245-1.02 1.69-1.69.445.67 1.02 1.245 1.69 1.69-.67.445-1.245 1.02-1.69 1.69z"/><path d="m59 1h2v2h-2z"/><path d="m59 5h2v2h-2z"/><path d="m61 3h2v2h-2z"/><path d="m57 3h2v2h-2z"/><path d="m3 40h2v2h-2z"/><path d="m3 44h2v2h-2z"/><path d="m5 42h2v2h-2z"/><path d="m1 42h2v2h-2z"/><path d="m5 8h2v2h-2z"/><path d="m5 12h2v2h-2z"/><path d="m7 10h2v2h-2z"/><path d="m3 10h2v2h-2z"/><path d="m57 41h2v2h-2z"/><path d="m57 45h2v2h-2z"/><path d="m59 43h2v2h-2z"/><path d="m55 43h2v2h-2z"/></g></g></svg>